<?xml version="1.0" encoding="utf-8"?>
<!-- Generator: Adobe Illustrator 24.1.0, SVG Export Plug-In . SVG Version: 6.00 Build 0)  -->
<svg version="1.1" id="Layer_1" xmlns="http://www.w3.org/2000/svg" xmlns:xlink="http://www.w3.org/1999/xlink" x="0px" y="0px"
	 viewBox="0 0 935.43 935.43" style="enable-background:new 0 0 935.43 935.43;" xml:space="preserve">
<style type="text/css">
	.st0{fill:#1A5989;}
	.st1{fill:#FDC7A8;}
	.st2{fill:#EFB190;}
	.st3{fill:#75828D;}
	.st4{fill:#1A1919;}
	.st5{fill:#EA5F4C;}
	.st6{fill:#31ACB5;}
	.st7{fill:#BAD94B;}
	.st8{fill:#FD9E05;}
	.st9{fill:#EEB191;}
	.st10{fill:#F0B392;}
	.st11{fill:#CAD7DD;}
	.st12{fill:#CFDDE1;}
	.st13{fill:#D3E0E4;}
	.st14{fill:#D1E0E4;}
	.st15{fill:#D4E2E6;}
	.st16{fill:#CBDDE2;}
	.st17{fill:#9A785A;}
	.st18{fill:#D6E5E9;}
	.st19{fill:#E2ECEE;}
	.st20{fill:#EDF2F3;}
	.st21{fill:#E8EFF1;}
	.st22{fill:#EEF3F4;}
	.st23{fill:#EEF2F4;}
	.st24{fill:#EFF3F4;}
	.st25{fill:#EFF4F4;}
	.st26{fill:#877360;}
	.st27{fill:#E1EBED;}
	.st28{fill:#F0F4F5;}
	.st29{fill:#DCE8EB;}
	.st30{fill:#DDE8EB;}
	.st31{fill:#E3EBED;}
	.st32{fill:#E4ECEE;}
	.st33{fill:#F7F9F9;}
	.st34{fill:#E1EAED;}
	.st35{fill:#ECF1F2;}
	.st36{fill:#E7EEF0;}
	.st37{fill:#E4EBED;}
	.st38{fill:#E0EAED;}
	.st39{fill:#F2F5F6;}
	.st40{fill:#E5EDEF;}
	.st41{fill:#D6E1E5;}
	.st42{fill:#E7EDEF;}
	.st43{fill:#776F69;}
	.st44{fill:#FDFDFD;}
	.st45{fill:#6E8598;}
	.st46{fill:#768A99;}
	.st47{fill:#808992;}
	.st48{fill:#99765A;}
	.st49{fill:#B4CBD2;}
	.st50{fill:#98B5C0;}
	.st51{fill:#708495;}
	.st52{fill:#8BA1AE;}
	.st53{fill:#869FAD;}
	.st54{fill:#FEFEFE;}
	.st55{fill:#3BAFB8;}
	.st56{fill:#FADDBC;}
	.st57{fill:#EFB191;}
	.st58{fill:#42403F;}
	.st59{fill:#3D3D3E;}
	.st60{fill:#C6D7DB;}
	.st61{fill:#353536;}
	.st62{fill:#FEFCFB;}
	.st63{fill:#FDFBF9;}
	.st64{fill:#FEFCFA;}
	.st65{fill:#F3BA9A;}
	.st66{fill:#FBFCFC;}
	.st67{fill:#F6F9F9;}
	.st68{fill:#C4DBDF;}
	.st69{fill:#C0D8DD;}
	.st70{fill:#FEFDFC;}
	.st71{fill:#FAE2D1;}
	.st72{fill:#F8D4B4;}
	.st73{fill:#FCF2EA;}
	.st74{fill:#FCF0E8;}
	.st75{fill:#FDC970;}
	.st76{fill:#FEFEFD;}
	.st77{fill:#FEFBF9;}
	.st78{fill:#FDCE92;}
	.st79{fill:#FEFDFD;}
	.st80{fill:#FEFDFB;}
	.st81{fill:#FDF9F4;}
	.st82{fill:#32ADB6;}
	.st83{fill:#FED02D;}
	.st84{fill:#32ACB6;}
	.st85{fill:#C5DBDF;}
	.st86{fill:#FED030;}
	.st87{fill:#FED02F;}
	.st88{fill:#FED02E;}
	.st89{fill:#F2B897;}
	.st90{fill:#C0D9DE;}
	.st91{fill:#FAECDA;}
	.st92{fill:#FBDBB2;}
	.st93{fill:#FECA69;}
	.st94{fill:#EB6D58;}
	.st95{fill:#FC9A09;}
	.st96{fill:#FBD5B4;}
	.st97{fill:#FDA10A;}
	.st98{fill:#FDCA6F;}
	.st99{fill:#FD9F07;}
	.st100{fill:#BBD94C;}
	.st101{fill:#C0D74F;}
</style>
<g>
	<path class="st0" d="M337.83,44.13c9.7-2.53,19.39-5.06,29.09-7.59c15.49-2.91,30.94-6.04,46.62-7.75
		c28.44-3.11,56.9-4.07,85.5-2.02c23.24,1.67,46.21,4.84,68.91,9.92c33.62,7.52,65.93,18.86,97.01,33.77
		c16.02,7.69,31.33,16.63,46.59,25.69c1.59,0.42,3.11,0.9,4.53,1.83c12.48,8.18,24.75,16.66,36.37,26.04
		c1.68,1.36,3.3,2.78,4.17,4.85c0.18,0.24,0.42,0.35,0.72,0.34c4.86,2.26,8.82,5.58,11.8,10.05c17.05,15.7,33.35,32.12,48.37,49.79
		c4.05,1.49,5.8,5.34,8.21,8.38c8.03,10.1,15.53,20.61,22.83,31.26c0.97,1.41,1.53,2.87,1.85,4.49
		c5.45,9.29,11.05,18.49,16.33,27.87c25.1,44.6,41.76,92.22,50.91,142.54c6.39,35.17,8.49,70.63,6.59,106.23
		c-2.85,53.46-14.49,105.01-35.37,154.43c-6.98,16.52-15.28,32.34-23.38,48.28c-2.34,7.71-7.56,13.84-11.4,20.72
		c-1.69,3.02-3.8,5.82-5.73,8.71c-17.28,26.2-37.19,50.27-59.51,72.29c-17.78,17.53-36.82,33.64-57.34,47.94
		c-1.49,1.04-2.9,2.28-4.88,2.32c-21.36,14.11-43.37,27.1-66.59,37.92c-41.33,19.25-84.59,31.99-129.77,38.19
		c-1.48,0.2-2.95,0.42-4.43,0.62c-2.01-2.02-1.58-4.61-1.58-7.07c-0.05-21.59,0.11-43.19,0.07-64.77
		c-0.26-6.24,2.72-11.15,6.2-16.07c8.98-12.69,18.8-24.78,26.82-38.15c4.08-6.8,9.41-12.8,13.34-19.71
		c4.69-8.24,10.49-15.72,15.88-23.47c8.54-12.27,15.98-25.27,24.9-37.29c1.74-2.34,3.66-4.77,3.97-7.92
		c1.03-3.68,2.48-7.23,4.49-10.44c4.16-6.63,3.39-13.9,3.2-21.13c0.1-1.66,0.8-3.57-1.74-4.13c-4.03-2.65-7.22-6.29-10.95-9.29
		c-4.76-2.12-9.31-0.61-13.86,0.82c-1.63-0.02-3.08-0.31-3.48-2.23c1.67-4.68,6.08-7.1,8.98-10.79c4.63-5.9,11.56-9.8,14.07-17.61
		c2.93-9.11,1.11-16.85-4.97-23.95c-1.84-2.15-3.61-4.33-5.72-6.22c-6.5-3.3-13.14-2.31-19.7-0.44c-2.51,0.72-4.57,1.59-5.13-2.04
		c0.48-4.64,5.2-5.77,7.42-8.97c5.34-5.93,10.22-12.18,13.31-19.62c2.25-5.43,2.2-11.78,0.73-16.61
		c-1.63-5.38-4.94-11.2-10.86-14.41c-5.68-3.08-11.36-5.51-17.98-4.71c-2.08-0.17-4.4,0.16-5.27-2.52c-0.08-0.51-0.04-1.01,0.1-1.5
		c3.84-3.83,7.17-8.11,11.41-11.66c7.05-5.91,11.23-14.14,15.98-21.85c3.82-6.21,6.81-12.95,11.29-18.73
		c4.4-5.67,6.25-11.94,5.78-19.03c-0.16-2.47-2.05-3.93-3.27-5.63c-5.33-7.44-16.01-9.67-24.43-5.9
		c-5.83,2.61-10.06,6.67-13.8,11.74c-3.05,4.14-5.45,9.07-10.57,11.37c-0.75,0.12-1.44,0-2.05-0.48c-1.33-1.94-0.98-4.16-0.98-6.29
		c-0.04-13.47-0.36-26.96,0.07-40.42c0.57-17.91-10.99-27.46-27.34-27.91c-8.36-0.23-16.76,0.3-25.15,0.33
		c-12.99,0.04-25.98,0.31-38.97,0.36c-11.89,0.04-23.79,0.12-35.68,0.06c-11.58-0.06-23.17,0.54-34.75-0.51
		c-8.82-0.8-19.01,6.55-22.31,15.05c-1.68,4.32-2.22,8.59-2.21,13.13c0.07,31.44,0.05,62.88,0,94.32c0,2.42,0.62,5.04-1.32,7.14
		c-1.88,0.89-3.15-0.19-4.43-1.33c-2.76-2.48-5.91-4.22-9.38-5.57c-6.66-2.59-13.56-0.26-17.71,5.48c-2.52,3.5-3.66,7.01-3.02,11.15
		c1.52,9.81-2.68,18.96-3.28,28.53c-0.05,0.81-1.06,1.69-1.02,2.11c0.17,1.51-2.31-2.3-1.29,0.77c1.1,3.34,0.68,6.66-0.97,10.09
		c-1.39,2.91-1.37,6.46-1.49,9.8c-0.05,1.48-0.19,2.91-1.13,4.25c-0.5,0.7-1.58-1-1.46,0.57c0.67,9.24,1.93,18.38,4.86,27.21
		c0.71,2.13,0.76,4.24,0.76,6.39c0.02,17.14,0.13,34.29-0.06,51.43c-0.06,5.63,2.19,10.66,3.13,16c0.86,4.9,3.07,9.61,4.93,13.9
		c2.45,5.65,3.7,11.72,6.11,17.37c2.3,5.4,3.06,11.89,5.59,17.39c2.99,6.5,3.53,13.76,6.96,20.04c0.32,0.58,0.15-0.2,0.22,0.43
		c0.42,3.87,2.26,7.33,3.09,11.08c-0.45,3.63,2.09,6.5,2.55,9.9c2.48,3.37,2.58,7.24,2.42,11.18c0.02,0.64-0.02,1.29-0.02,1.93
		c0.01,2.48-1.12,5.43,2.66,6.34c3.21,13.44,4.09,27.31,2.2,40.69c-3.05,21.56-0.54,43.05-1.67,64.54c-0.1,1.96,0.13,4.03-1.53,5.57
		c-22.16-4.36-43.52-11.34-64.54-19.49c-22.29-8.63-43.72-19-64.3-31.16c-1.55-0.91-3.22-1.62-4.84-2.42
		c-5.88-1.3-10.15-5.51-15.06-8.51c-10.66-6.5-20.52-14.18-30.54-21.63c-18.99-14.84-36.86-30.94-53.35-48.5
		c-8.62-9.18-16.81-18.77-24.72-28.59c-3.34-5.21-8.08-9.47-10.5-15.32c-0.34-0.4-0.67-0.81-1.01-1.21
		c-5.58-5.13-9.01-11.85-13.24-17.97c-2.62-3.79-5.59-7.44-6.59-12.13c-10.23-17.83-20.21-35.79-28.44-54.65
		c-18.24-41.78-30.25-85.22-35.74-130.53C9.6,505.62,9.52,470,13.23,434.35c1.58-15.19,4.02-30.27,7.27-45.21
		c0.35-1.62,0.54-3.27,0.81-4.91c2.71-10.4,5.42-20.8,8.14-31.21c-0.72-5.57,2.77-10.09,3.76-15.23c3.3-9.77,6.81-19.46,10.7-29.01
		c2.59-5.56,5.19-11.11,7.35-16.86c5-9.75,9.48-19.77,14.87-29.33c8.8-15.32,17.86-30.47,28.18-44.83
		c30.08-42.16,66.03-78.46,108.24-108.52c14.81-10.59,30.2-20.26,46.19-28.97c9.75-5.56,19.81-10.5,30.06-15.07
		c9.68-4.54,19.62-8.45,29.56-12.37c5.19-1.83,10.29-3.9,15.55-5.52C328.67,46.79,332.79,43.43,337.83,44.13z"/>
	<path class="st1" d="M363.46,930.1c0.04-16.6-0.19-33.21,0.19-49.81c0.38-16.56,2.7-33.11,1.12-49.64
		c-0.39-4.08-0.94-8.26-1.36-12.41c-1.96-2.01-0.1-5.47-2.76-7.21c0.46-3.84-1.04-7.29-2.16-10.81c-0.77-2.26-0.43-4.65-0.8-6.96
		c0.13-0.49,0.38-0.92,0.75-1.27c4.28,0.25,4.62,4.28,5.87,6.86c3.27,6.78,7.23,13.03,11.98,18.82c1.35,1.65,4.48,3.07,1.99,5.61
		c-2.18,2.23-3.7-0.39-5.26-1.73c-0.49-0.42-1.23-0.5-1.26-0.54c4.4,4.55,10.93,7,16.71,10.52c7.32,4.45,15.82,5.91,24.14,7.36
		c7.59,1.33,14.86,2.85,21.24,7.73c4.59,3.51,10.35,5.19,15.49,7.9c4.22,2.22,7.61,5.33,11.1,8.4c2.24,1.97,1.77,3.4-1.08,4.03
		c-1.98,0.43-4.09,0.67-5.78-0.62c-2.02-1.55-4.23-1.78-6.46-1.66c8.1,3.04,17.34,3.48,25.02,7.54c7.27,3.84,14.09,8.22,22.41,9.42
		c1.1,0.16,2.02,1.1,2.98,1.78c2.82,2.01,5.56,3.96,0.76,6.86c-0.68,0.41-0.27,1.56-0.48,2.35c-0.16,0.65,0.97-0.04,0.3-0.03
		c-0.23,0-0.24-0.13-0.2-0.42c0.11-0.64-0.12-1.44,0.52-1.82c1.08-0.64,1.47,0.34,1.76,1.04c5.69,13.81,8.99,28.06,7.59,43.1
		c-0.18,2-0.19,3.56,1.69,4.63c-5.06,1.82-10.43,1.29-15.63,1.76c-10.36,0.94-20.83,1.42-31.22,1.07c-26.44-0.9-52.89-2-78.92-7.59
		C376.96,932.93,370.06,932.24,363.46,930.1z"/>
	<path class="st2" d="M509.46,939.13c-2.07,0.02-3.53,0.21-3.19-3.09c1.41-13.63,0.38-27-6.13-39.44c-0.9-1.71-0.59-3.55-0.88-5.63
		c-1.52,1.24-0.28,2.93-1.25,4.03c-0.18-0.14-0.52-0.27-0.52-0.42c-0.05-1.16,0.08-2.34-0.07-3.49c-0.3-2.19,4.3-2.83,2.23-4.7
		c-2.64-2.4-5.76-5.17-9.61-5.14c-5.55,0.05-10.17-1.35-13.8-5.7c-1.96-2.36-4.98-2.75-7.7-3.41c-5.72-1.39-11.19-3.57-17.13-4.43
		c-1.97-0.29-4.57-1.66-7.78-2.15c2.91-3.85,6.89-2.82,9-1.21c3.02,2.3,5.47,1.72,8.69,0.95c-7.08-6.84-14.86-11.86-23.99-14.89
		c-1.85-0.61-4.1-1.92-5.27-3.11c-5.26-5.35-12.08-5.79-18.67-7.09c-9.95-1.97-19.92-3.49-28.58-9.65
		c-4.75-3.38-10.5-5.33-14.76-9.61c-0.65-0.66-1.98-0.78-1.17-2c0.6-0.91,1.44-0.24,2.12,0.24c1.32,0.94,3.11,1.6,3.86,2.87
		c0.92,1.56,2.02,1.32,2.81,0.72c1.27-0.97,0.35-1.62-0.58-2.62c-5.81-6.34-10.7-13.21-14.02-21.34c-0.84-2.05-1.64-5.42-4.58-6.59
		c-2.46-4.18-3.86-8.71-4.47-13.5c-0.15-1.17,0.51-1.88,1.59-2.18c1.43-0.4,2.53,0.14,3.58,1.14c3.86,3.69,6.77,8.2,10.35,12.09
		c10.3,11.2,21.84,20.46,37.12,24.54c10.34,2.76,20.72,4.15,31.31,4.9c5.85,0.41,9.17,4.93,12.78,8.84
		c5.85,6.34,12.4,11.79,19.56,16.66c6.18,4.2,12.11,8.64,19.33,11.01c5.59,1.83,10.44,1.07,14.71-3c5.64-5.38,10.8-11.29,17.3-15.72
		c1.35-0.92,1.93-2.27,2.45-3.66c2.16-5.78,6.77-9.61,10.71-14.06c6.35-7.17,12.87-14.3,17.51-22.79c2.63-4.81,7.4-7.56,10.6-11.84
		c3.59-4.8,5.98-10.58,9.71-14.84c4.46-5.09,5.8-11.69,10.46-16.41c-4.85,2.85-9.73,5.29-15.13,6.63c-1.63,0.4-3.25,1.19-4.81,0.28
		c-1.75-1.02-3.09-2.41-0.51-4.07c1.26-0.81,2.41-1.79,3.74-2.48c12.8-6.62,23.45-16.45,35.73-23.84c2.92-1.76,6.36-2.7,8.37-5.86
		c0.52-0.82,1.82-0.59,2.66,0.21c-1.37,5.23-5.21,9.03-7.98,13.43c-4.47,7.12-9.35,13.97-14.04,20.95
		c-4.35,6.47-8.67,12.94-13.01,19.42c-4.94,7.38-9.9,14.76-14.83,22.15c-5.56,8.33-11.09,16.66-16.63,25
		c-4.76,7.16-10.79,13.47-15.29,20.67c-3.52,5.64-9.48,10.46-9.14,18.15c-1.18,2.16-0.9,4.51-0.86,6.81
		c0.33,20.51-0.84,41.01-0.54,61.53c0.03,1.98,0.1,3.99-1.18,5.72C516.35,939.23,512.89,939.09,509.46,939.13z"/>
	<path class="st3" d="M519.68,938.11c-1.12-23.42,1.47-46.81,0.75-70.23c-0.05-1.64,0.45-2.92,1.82-3.83
		c0.01,22.83,0.02,45.66,0.04,68.49c0,1.82,0.13,3.63,0.19,5.45C521.55,938.03,520.61,938.07,519.68,938.11z"/>
	<path class="st1" d="M613.17,724.28c-0.5,0.04-1.2-0.11-1.46,0.16c-6.56,6.7-15.52,9.87-22.72,15.43
		c-4.53,3.5-9.45,6.6-13.77,10.51c-3.02,2.73-7.69,3.72-10.95,6.65c-0.62,0.55-2.4-0.31-2.03,1.31c0.38,1.65,2.24,1.87,3.27,1.34
		c4.85-2.47,10.7-2.62,14.95-6.5c1.16-1.05,2.7-1.68,4.35-2.67c0.18,0.93,0.61,1.88,0.36,2.11c-5.04,4.71-4.84,13.02-11.6,16.63
		c-1.9,1.01-1.53,3.9-2.44,5.82c-4.64,9.87-14.45,15.46-19.52,24.7c-3.95,7.2-9.62,12.92-14.79,19.05
		c-4.7,5.57-10.2,10.28-12.71,17.63c-1.02,2.98-5.33,4.33-8.02,6.6c-3.89,3.26-7.15,7.11-10.85,10.52c-3.98,3.67-10.93,5.62-17,2.92
		c-5.18-2.3-10.06-4.81-14.76-7.94c-4.93-3.28-9.73-6.66-14.22-10.55c-4.88-4.23-9.43-8.69-13.59-13.66
		c-1.78-2.13-4.57-3.91-7.67-4.03c-10.57-0.43-20.83-2.01-31.15-4.72c-9.48-2.49-17.2-7.21-25.03-12.57
		c-9.05-6.2-15.24-14.84-22.03-23.05c-0.78-0.94-1.76-3.87-4.02-2.49c-2.02,1.23-1.28,4.49-0.6,5.23c2.59,2.83,2.28,6.37,3.31,9.55
		c0,0,0.01-0.01,0.01-0.01c-2.42,1.46-2.2-0.9-2.87-1.98c-0.17-0.98-0.17-2.03-0.54-2.93c-2.77-6.85-5.03-13.85-7.26-20.9
		c-1.78-5.64-4.16-11.25-6.26-16.88c-0.21-0.57-0.92-1.06-0.91-1.58c0.05-7.53-4.52-13.76-5.76-21.04
		c-0.96-5.64-5.05-10.69-6.45-16.32c-1.33-5.37-3.22-10.68-3.15-16.47c0.22-17.95,1.15-35.97-0.53-53.84
		c-0.52-5.49-1.47-11.38-3.49-16.9c-1.94-5.34-1.66-11.49-0.19-16.63c0.78-2.71,0.77-5.47,1.46-8.13
		c1.38-5.36,1.75-11.19,3.36-16.24c3.93-12.28,4.67-24.64,4.52-37.26c-0.01-0.66,0.1-1.31,0.15-1.97c2.32,0.65,2.09-1.33,2.69-2.54
		c2.94-5.96,12.18-8.73,18.5-6.77c5.64,1.75,9.81,5.3,14.26,8.67c2.53,3.35,1.99,7.29,1.99,11.07
		c0.04,60.09,0.02,120.17,0.03,180.26c0,3.15,0.18,6.26,0.74,9.41c1.18,6.67,5.35,11.29,9.77,15.84c-1.13,4.3,1.64,5.86,4.81,7.81
		c6.39,3.93,13.48,4.26,20.53,4.87c9.63,0.83,19.28,0.27,28.92-0.23c3.72-0.19,3.7-0.27,6.47,3.16c0.55,0.67,0.81-0.25,1.1-0.45
		c6.85-4.73,14.49-2.4,21.82-2.34c2.99,0.02,2.62,2.35,1.83,4.63c1.6-4.33,4.95-5.15,9.01-5.04c7.49,0.19,14.97-0.33,22.45-0.58
		c4.87-0.16,9.01-3.72,13.2-2.65c-31.11,0.52-63.09,0.22-95.07,0.08c-8.15-0.04-16.31,0.32-24.45-0.03
		c-2.05-0.09-5.35,0.28-5.41-2.25c-0.07-2.81,3.21-2.11,5.17-2.11c44.45-0.06,88.89,0,133.34-0.14c3.59-0.01,6.52,2.31,10.13,1.78
		c-2.09,0.37-3.15-1.32-4.63-2.12c-1.41-0.72-1.79-3-3.96-2.56c-7.96-4.07-10.63-20.08-4.76-26.54c-2.65-2.12-7.35,0.85-8.96-3.55
		c0.89-2.41,2.86-3.09,5.14-2.93c1.4,0.1,2.57,0.75,1.6,3.6c3.4-5.65,7.44-9.24,11.14-13.14c4.06-4.28,5.27-9.4,3.51-15.01
		c-1.65-5.27-7.93-8.09-13.1-6.46c-5.66,1.79-9.47,5.92-13.45,9.89c-1.57,1.57-1.18,3.68-1.36,5.65c-0.27,3.07,0.93,6.34-1.21,9.16
		c-1.79,0.65-2.69-0.58-3.65-1.7c-4.86-6.37-5.98-13.24-2.73-20.68c5.45-7.09,11.38-13.7,18.35-19.38c3.07-2.5,6.2-4.94,8.93-7.9
		c1.62-1.76,2.85-3.59,3.73-5.74c4.5-3.58,7.87-8.29,12.19-12.55c-4.21,1.74-8.07,0.76-11.83-0.98c-4.65-1.78-8.24-5.13-11.98-8.24
		c-1.26-1.04-2.42-2.21-3.81-3.1c-2.65-2.16-3.79-4.95-3.55-8.33c-0.29-3,1.42-5.76,0.86-8.54c-0.53,0.99,0.71,2.69-1.16,4.02
		c-2.24-2.23-1.68-5.02-1.62-7.69c0.08-0.67,0.22-1.32,0.48-1.94c2.56-5.93,2.56-5.92-4.19-5.92c-32.81,0-65.62,0.04-98.43-0.06
		c-2.59-0.01-5.78,1.11-7.5-2.22c2.25-2.45,5.26-1.7,7.98-1.7c33.59-0.06,67.2-0.49,100.78,0.24c10.09,0.22,14.65-5.91,18.64-12.35
		c2.46-3.98,0.61-10.03,0.26-15.14c-0.1-1.43-1.52-1.63-2.69-1.73c-1.82-0.16-3.66-0.02-5.49-0.02c-37.09,0-74.17,0.01-111.26-0.03
		c-2.78,0-5.69,0.53-8.21-1.29c-1.45-2.5-0.18-3.7,2.13-4.31c1.78-0.47,3.63-0.36,5.45-0.36c38.36-0.01,76.73-0.01,115.09,0
		c1.33,0,2.66,0.03,3.98,0.13c3.57,0.28,5.36,2.24,5.61,5.76c0.26,3.76-0.06,7.55,0.28,11.93c4.02-4.92,7.76-9.29,12.07-13.11
		c1-0.88,2.24-1.32,3.41-1.89c1.16-0.51,1.86-1.44,2.36-2.56c0.42-0.9,0.82-1.83,1.52-2.51c4.39-4.21,6.55-9.18,5.7-15.36
		c-0.2-1.42,0.04-2.96,1.28-4.05c2.38,0.4,1.3,2.29,1.42,3.55c0.26,2.69-0.25,5.44,0.3,8.11c-0.5-2.55,0.01-5.16-0.26-7.72
		c-0.41-3.92,1.04-5.65,5.06-4.73c2.57-0.5,5.12,0,7.67,0.17c1.53,0.67,1.85,2.02,1.23,3.29c-1.53,3.17-0.23,5.26,2.14,7.3
		c3.51,3.01,5.34,6.92,6.36,11.46c1.36,6.06,4.87,11.59,4.41,18.14c-0.11,1.63,0.22,3.34-0.23,4.93c-1.02,3.55-1.15,6.82,1.93,9.53
		c0.51,0.45,0.38,1.21-0.08,1.79c-2.43,2.43-4.86,4.87-7.28,7.3c-8.81,10.77-17.41,21.74-27.79,31.15
		c9.43-6.34,18.69-12.73,28.68-18.19c4.96-2.71,10.4-5.62,13.71-11.13c1.73-2.88,5.4-1.22,8.16-0.43c0.84,0.24,1.71,0.96,2.52,1.55
		c3.6,0.72,5.05,4.15,6.88,6.47c4.66,5.89,6.6,13.01,5.18,20.62c-0.95,5.09-2.92,9.82-6.95,13.3c-6.41,5.52-11.21,12.64-17.96,17.81
		c-1.47,0.46-2.07,1.85-3.02,2.86c-8.84,10.37-19.44,18.79-29.98,27.29c-3.86,3.12-7.19,6.84-11,10.03
		c-1.92,1.61-3.86,3.14-6.07,4.28c5.93-1.94,10.2-6.54,14.82-10.26c13.03-10.49,25.79-21.32,40.37-29.65
		c3.69-2.11,7.57-5.16,12.44-2.79c4.38,1.91,7.6,5.14,10.31,8.97c1.25,1.18,1.61,2.96,2.81,4.18
		C623.36,703.59,618.5,713.99,613.17,724.28z"/>
	<path class="st4" d="M555.44,552.47c-0.07,0.66-0.24,1.32-0.18,1.96c0.65,7.39,0.39,14.41-7,18.85c-0.54,0.33-0.64,1.39-0.95,2.11
		c-2.07,1.2-3.12,0.44-3.31-1.79c-0.11-1.33-0.04-2.66-0.04-3.99c0-33.8,0.01-67.6-0.02-101.4c0-2.3,0.42-4.68-0.74-6.85
		c-0.39-0.41-0.76-0.83-1.14-1.25c-0.88-1.83-2.57-2.73-4.26-3.63c-1.93-0.74-3.95-0.51-5.93-0.51
		c-48.04-0.04-96.07,0.03-144.11-0.04c-0.98,0-2-0.2-2.87,0.46c-0.79,1.04-1.99,1.58-2.96,2.43c-0.41,0.4-0.8,0.8-1.16,1.25
		c-1.25,1.82-0.77,3.89-0.77,5.84c-0.03,81.55-0.03,163.09,0,244.64c0,2.53-0.85,5.55,2.77,6.62c2.62,0.66,5.28,0.51,7.94,0.51
		c33.36,0.01,66.72,0,100.08,0.01c2.97,0,6.02-0.29,8.65,1.58c0.78,0.98,1.13,2.5,2.89,2.2c2.37,3.2,6,5.29,7.87,8.93
		c1.37,2.85,4.08,1.38,6.16,1.83c1.71,0.37,3.53,0.22,5.46,0.31c-7.1,11.29-6.2,20.42,2.52,27.77c0.94,2.46-0.89,2.84-2.52,3.15
		c-1.96,0.38-3.98,0.21-5.97,0.21c-39.55,0.01-79.1,0-118.65,0c-3.16,0-6.31-0.04-9.45,0.26c-3.29-0.69-7.4,0.75-9.32-3.55
		c-5.03-2.38-7.66-6.94-9.91-11.59c-2.85-5.88-2.34-12.34-2.33-18.68c0.03-59.38,0.02-118.75,0.01-178.13c0-3.15-0.11-6.3-0.17-9.44
		c0.82-2.6,0.56-5.28,0.56-7.93c0.02-32.3-0.15-64.6,0.1-96.89c0.1-12.6,7.44-22.49,20.33-24.43c9.01-1.35,17.77-0.19,26.61-0.6
		c7.45-0.34,14.92-0.32,22.34-0.44c7.11-0.11,14.34,0.16,21.47,0.21c6.57,0.04,13.25,0.03,19.88-0.3c6.93-0.34,13.96-0.3,20.96,0.06
		c3.18,0.16,6.69-0.07,10-0.15c10.59-0.26,21.55-1.91,31.62,2.13c9.27,3.72,15.09,11.55,15.32,22.36
		c0.36,16.96,0.17,33.93,0.21,50.89c0.56,0.74,1.03,1.53,1.17,2.47c0.29,3.39,0.1,6.78,0.19,10.18
		c-0.02,14.93,0.36,29.85,0.17,44.77C556.91,547.46,557.43,550.23,555.44,552.47z"/>
	<path class="st5" d="M522.33,172.04c2.73,32.79-27.33,57.93-55.37,57.71c-28.94-0.23-56.17-25.45-55.58-56.76
		c0.56-29.6,25.45-56.2,58.62-55.1c13.02,0.43,24.93,5.37,34.04,13.82C515.52,142.35,523.91,155.62,522.33,172.04z"/>
	<path class="st6" d="M739.52,266.69c-1.37,12.21-6.23,23.73-16.69,33.25c-5.49,4.99-11.3,8.7-18,11.13
		c-11.16,4.05-22.42,5.46-34.29,2.08c-5.24-1.49-10.29-3.33-14.95-5.8c-5.71-3.02-9.9-8.25-14.19-13.05
		c-2.25-2.52-3.6-5.99-5.46-8.69c-3.94-5.75-3.8-12.4-6.1-18.24c-3.99-10.14-0.18-19,2.74-27.52c3.27-9.55,9.34-18.08,18.42-23.88
		c4.07-2.6,7.43-6.39,12.13-7.98c11.7-3.97,23.25-5.29,35.72-1.92c10.78,2.91,19.33,8.63,26.93,15.93
		c5.46,5.25,8.69,12.32,11.47,19.51C740.29,249.33,738.9,257.34,739.52,266.69z"/>
	<path class="st5" d="M193.67,593.29c9.03,1.89,16.64,6.11,23.55,12.38c6.09,5.52,10.56,12.11,13.98,19.17
		c2.96,6.11,3.51,13.14,3.71,20.19c0.31,11.42-1.62,22.22-8,31.5c-4.73,6.87-10.84,12.66-18.08,17.51
		c-12.93,8.66-27.13,9.8-41.21,7.05c-12.85-2.5-23.9-9.63-32.07-20.77c-3.31-4.52-6.23-9.01-8.22-14.17
		c-0.29-0.76-0.76-1.48-0.89-2.26c-1.22-7.29-4.17-14.53-2.6-21.98c1.98-9.43,3.68-19.29,9.93-26.98
		c6.91-8.5,14.54-16.4,25.63-19.87c2.36-0.74,4.51-2.04,7.1-1.85c3.39-2,6.68-0.5,9.82,0.01c-0.48-0.82-2.21,0.14-2.85-1.69
		C180.48,589.73,187.06,591.83,193.67,593.29z"/>
	<path class="st7" d="M143.5,509.23c-2.71,0-4.63,0.38-6.34-0.06c-10.8-2.8-21.35-5.51-30.19-13.54
		c-7.77-7.06-12.17-15.47-16.54-24.64c-4.94-10.37-2.78-20.8-1.95-30.99c0.35-4.28,4.37-9.29,6.11-13.89
		c3.35-8.84,11.32-12.9,16.87-19.32c2.45-2.83,7.2-3.7,10.93-5.41c11.11-5.08,22.94-3.46,34.25-2.21c6.89,0.76,13.9,4.02,19.62,9.46
		c3.82,3.64,8.45,6.72,11.72,10.85c2.13,2.69,3.74,6.23,4.96,9.54c3.18,8.61,7.56,16.98,6.44,26.69c-0.7,6.09-2.27,11.71-5,17.34
		c-1.64,3.39-3.34,6.91-4.78,10.44c-1.81,4.44-5.13,7.67-8.43,10.45c-8.78,7.39-18.36,13.25-30.53,14.19
		C148.3,508.31,145.17,508.22,143.5,509.23z"/>
	<path class="st8" d="M739.14,433.52c3.05-7.53,7.01-14.73,13.08-20.01c10.42-9.08,21.88-16.26,36.78-15.22
		c7.95,0.56,15.94-0.24,23.64,2.96c6.59,2.74,11.86,7.18,17.12,11.68c6.7,5.73,10.89,13.08,13.77,21.44
		c0.83,2.41,1.71,4.61,1.7,7.15c2.79,6.8,1.2,13.84,0.96,20.78c-0.05,1.35-0.35,2.91-0.96,4.26c-2.51,9.61-6.45,18.27-13.93,25.33
		c-2.78,2.62-5.79,5.08-8.7,7.35c-5.35,4.17-11.73,6.97-18.63,8.05c-4.92,0.77-9.7,2.67-14.83,1.87c-7.64-1.19-15.1-2.56-22.2-6.15
		c-6.66-3.37-12.46-7.54-17.2-13.16c-4.6-5.46-8.86-11.16-10.74-18.3c-0.43-1.65-2.39-2.82-1.94-4.92c-1.79-9.05-1.79-18.1,0-27.15
		c0.05-0.29,0.11-0.58,0.17-0.87C739.03,437.34,737.55,434.85,739.14,433.52z"/>
	<path class="st8" d="M196.54,244.68c3.03-12.95,9.71-23.12,21.23-30.35c5.13-3.22,10.01-6.17,15.92-8.03
		c14.01-4.43,27.55-3,40.23,3.15c6.3,3.06,12.82,7.05,17.39,12.8c3.26,4.11,5.82,8.81,8.33,13.45c4.74,8.76,6.04,18.15,5.73,28.12
		c-0.24,7.73-3.19,14.29-6.35,20.85c-2.7,5.61-6.6,10.47-10.99,15.03c-4.18,4.34-9.07,7.59-14.29,9.99
		c-7.88,3.63-16.25,5.56-25.21,5.32c-13.71-0.38-25.52-4.9-35.85-13.77c-4.98-4.27-9.42-8.72-11.66-15.26
		c-0.4-1.18-1.16-3.25-2.24-4.64c-1.55-1.98-1.38-4.87-2.47-6.67c-4.47-7.38-2.01-15.24-2.53-22.87
		C194.81,249.47,194.94,246.79,196.54,244.68z"/>
	<path class="st7" d="M810.17,646.84c1.82,29.75-26.16,55.71-55.36,55.65c-30.03-0.06-55.59-25.46-55.76-55.17
		c-0.19-32.39,26.81-56.39,55.28-56.5C784.07,590.7,811.55,615.54,810.17,646.84z"/>
	<path class="st1" d="M557.35,487.61c4.77-6.01,9.2-12.33,14.4-17.94c5.56-5.99,12.86-9.43,21.11-7.9
		c6.38,1.18,12.6,3.51,15.71,10.45c3.66,8.17,2.43,17.7-3.42,24.28c-5.11,5.75-8.26,12.74-11.91,19.42
		c-1.67,3.07-4.04,5.75-5.77,8.79c-5.09,8.91-13.44,14.83-20.15,22.24c-0.37,0.41-1.17,0.43-1.77,0.63
		c-2.3,1.28-3.91,0.45-4.61-1.86c-0.67-2.21-1.89-4.39-1.77-6.69c0.81-15.85-4.5-31.31-2.82-47.2
		C556.51,490.37,556.16,488.82,557.35,487.61z"/>
	<path class="st2" d="M585.34,608.1c-3.26-3.16-4.4-6.42-3.24-11.35c1.45-6.18,0.65-12.72-2.93-18.38c-0.9-1.42-0.67-2.84-1.01-4.24
		c-0.8-3.31-1.33-6.73-4.22-9.04c-4.26-3.41-6.68-7.32-3.64-12.79c-0.55-0.64-0.54-1.24,0.09-1.82
		c12.44-1.04,21.72,4.97,27.19,15.11c5.54,10.28,4.25,21.27-2.99,30.97C591.65,600.51,588.99,604.71,585.34,608.1z"/>
	<path class="st9" d="M603.34,618.36c-1.74-0.4-3.6-0.53-5.2-1.25c-2.8-1.25-4.87-1.34-5.29,2.32c-0.17,1.46-1.24,2.03-2.18,2.47
		c-5.55,2.58-9.67,7.17-15.3,9.9c-7.95,3.85-15.33,9.07-22.34,14.6c-0.87,0.69-1.26,2-2.69,1.92c-0.95-0.05-2.19,0.35-2.55-0.89
		c-0.25-0.87,0.84-1.12,1.35-1.66c7.28-7.69,15.33-14.66,21.47-23.44c1.89-2.7,3.46-6.26,7.44-6.92c0.1,4.93,2.48,2.45,4.38,1.32
		C587.18,613.9,599.8,614.87,603.34,618.36z"/>
	<path class="st2" d="M608.04,678.32c-11.55,1.79-20.38,8.56-29.15,15.61c-6.35,5.1-13.2,9.52-19.37,14.93
		c-6.11,5.36-12.96,9.88-19.52,14.72c-0.45,0.33-1.43,0.59-1.74,0.35c-1.17-0.92-0.26-1.8,0.45-2.41
		c4.14-3.56,8.47-6.91,12.48-10.62c9.83-9.08,20.66-17.01,30.22-26.42c2.03-2,3.13-4.95,6.02-6.08c1.99,1.94,3.98,0.73,5.97,0.01
		c3.63-2.63,7.79-2.2,11.88-2.01C606.5,676.45,607.99,676.43,608.04,678.32z"/>
	<path class="st10" d="M557.35,487.61c0.16,9.5-1.63,19.37,1.28,28.38c2.56,7.93,0.25,15.73,2.05,23.23
		c0.65,2.71-0.92,8.14,4.88,8.35c-0.05,0.28-0.14,0.55-0.26,0.81c-1.05,1.5-1.91,3.17-3.72,3.94c-2.89-0.5-4.52,0.3-4.27,3.66
		c0.21,2.77,0.04,5.58-0.24,8.37c-1.66-3.85,0.56-8.14-1.61-11.89c0-17.66,0-35.33,0-52.99c0.75-3.3,0.58-6.62,0.11-9.93
		c-0.04-0.7-0.09-1.4-0.13-2.1C556.06,487.5,556.7,487.56,557.35,487.61z"/>
	<path class="st11" d="M467.38,294.68c2,1.3,4.78,1.95,4.71,5.11c-0.08,3.32-2.44,5.23-5.34,5.05c-2.56-0.16-5.23-1.96-4.93-5.09
		C462.1,296.92,464.33,295.31,467.38,294.68z"/>
	<path class="st12" d="M576.47,388.47c-3.86,0.28-5.54-2.36-5.68-4.44c-0.16-2.44,1.85-5.06,4.83-5.04
		c2.47,0.01,4.55,1.38,4.77,4.36C580.64,386.65,578.53,387.83,576.47,388.47z"/>
	<path class="st13" d="M472.34,335.99c-1.45,2.17-2.35,4.77-5.46,4.54c-2.83-0.21-5.09-2.12-4.93-4.72
		c0.14-2.29,2.29-4.79,4.83-4.85C469.59,330.88,470.83,333.67,472.34,335.99z"/>
	<path class="st14" d="M646.4,525.23c-2.18,1.55-2.28,5.24-5.54,4.89c-2.6-0.28-4.18-2.59-4.44-5.16c-0.29-2.87,2.09-4.29,4.3-4.41
		C643.39,520.41,645.15,522.43,646.4,525.23z"/>
	<path class="st15" d="M466.49,322.83c-1.74-1.45-4.74-1.81-4.42-5.01c0.29-2.89,1.98-5.1,5.02-4.96c2.65,0.11,4.64,1.89,4.73,4.77
		C471.93,320.98,469.41,321.97,466.49,322.83z"/>
	<path class="st16" d="M358.49,378.42c1.16,2.51,5.42,2.47,4.68,5.56c-0.52,2.18-2.82,4.84-5.7,4.32c-1.95-0.35-4.15-1.84-3.99-4.66
		C353.66,380.67,356.1,379.94,358.49,378.42z"/>
	<path class="st17" d="M845.23,466.55c0-8.35,0-16.69,0-25.04c2.51-0.05,2.88,1.56,2.87,3.58c-0.03,5.27-0.12,10.55,0.05,15.81
		C848.23,463.47,845.93,464.54,845.23,466.55z"/>
	<path class="st18" d="M609.95,348.41c-1.63-1.12-3.66-2.52-3.73-5.32c-0.07-2.83,2.25-4.26,4.3-4.1c2.18,0.18,5.38,1.67,4.46,4.48
		C614.41,345.19,614.06,348.68,609.95,348.41z"/>
	<path class="st19" d="M626.2,330.62c0.5,2.87-2.79,4.45-4.15,4.15c-1.76-0.39-4.8-1.5-4.24-5.15c0.43-2.74,1.32-4.14,4.15-4.09
		C625.1,325.58,626.25,327.33,626.2,330.62z"/>
	<path class="st20" d="M274.08,446.57c3.38-0.46,3.58,1.75,3.69,4.25c0.13,2.94-1.17,4.08-4.03,3.99c-2.84-0.09-4.48-0.89-4.37-4.24
		C269.49,447.22,271.21,446.36,274.08,446.57z"/>
	<path class="st21" d="M238.74,446.58c3.02-0.62,4.04,1.22,4.12,3.84c0.09,2.78-0.86,4.59-4.2,4.39c-2.63-0.16-4.29-0.79-4.23-3.86
		C234.48,448.04,235.22,446.09,238.74,446.58z"/>
	<path class="st22" d="M269.43,555.71c-1.89-0.31-4.78-0.65-4.35-3.54c0.32-2.17,1.94-4.46,5.05-4.44c3.08,0.02,4.21,2.52,4.43,4.47
		C274.88,555.03,272.3,555.69,269.43,555.71z"/>
	<path class="st23" d="M256.56,454.67c-2.95,0.21-4.71-0.25-4.71-3.56c0-3.11,1.12-4.38,4.2-4.66c3.51-0.32,4.27,1.8,4.29,4.39
		C260.36,453.36,259.42,455.4,256.56,454.67z"/>
	<path class="st24" d="M669.15,450.65c0.46,3.31-1.37,4.18-4.08,4.21c-2.68,0.03-4.41-0.8-4.14-3.95c0.21-2.44,0.29-4.45,3.74-4.5
		C668.01,446.36,668.97,447.97,669.15,450.65z"/>
	<path class="st25" d="M592.45,369.33c-0.9,3.44-3.44,4.94-6.08,5.55c-0.57,0.13-4.58-2.24-3.38-5.09c0.78-1.86,2.04-3.84,5.01-3.88
		C591.05,365.86,590.39,369.27,592.45,369.33z"/>
	<path class="st26" d="M737.06,439.46c0,9.05,0,18.1,0,27.15C733.2,457.56,733.2,448.51,737.06,439.46z"/>
	<path class="st27" d="M661.3,555.4c-4.03-2.71-1.42-5.48,0.58-7.19c2.56-2.18,4.95,0.2,6.41,2.17c1.64,2.2,0.69,4.17-1.99,5.09
		C664.62,556.64,662.95,556.7,661.3,555.4z"/>
	<path class="st28" d="M342.35,371.12c0.35-3.46,1.14-5.52,4.22-5.14c2.74,0.34,4.19,1.68,4.25,4.81c0.06,3.19-3.41,2.4-4.15,4.44
		C345.21,373.61,341.71,373.66,342.35,371.12z"/>
	<path class="st29" d="M334.94,360.68c-2.29-0.48-4.87-0.65-4.59-4.23c0.27-3.54,2.87-3.26,5.25-3.44c2.97-0.23,3.24,2.57,4.61,4.13
		C338.34,358.12,338.29,361.72,334.94,360.68z"/>
	<path class="st30" d="M262.54,565.31c0.37,3.28-1.76,4.7-4.34,4.82c-2.18,0.1-3.61-1.17-3.99-3.96c-0.52-3.85,3-3.6,4.42-5.39
		C259.67,562.53,263.11,562.23,262.54,565.31z"/>
	<path class="st31" d="M295.36,450.5c0.26,2.93-0.85,4.45-3.88,4.39c-2.78-0.06-4.16-1.06-4.02-4.12c0.13-2.68,0.63-4.32,3.84-4.34
		C294.39,446.41,295.21,448.07,295.36,450.5z"/>
	<path class="st32" d="M689.21,451.5c0.58,2.5-1.34,3.27-3.98,3.38c-2.94,0.12-4.12-1.34-3.93-4.17c0.17-2.54,0.81-4.33,4.01-4.28
		C688.46,446.49,689.22,448.15,689.21,451.5z"/>
	<path class="st33" d="M315.43,329.57c1.52,3.85-2.81,3.44-3.69,5.49c-1.32-1.56-4.12-1.57-4.13-4.61c-0.01-3.2,1.78-4.45,4.37-4.81
		C314.94,325.24,315.15,327.66,315.43,329.57z"/>
	<path class="st34" d="M679.17,565.75c-0.54,1.99-0.54,4.76-3.7,4.35c-2.22-0.29-4.05-1.44-4.31-4.26c-0.3-3.22,2.66-3.46,4.09-5.08
		C676.68,562.28,679.7,562.54,679.17,565.75z"/>
	<path class="st35" d="M656.39,538.43c0.28,3.07-1,4.31-3.97,4.1c-2.55-0.17-4.21-0.61-4.34-3.84c-0.15-3.75,2.31-3.74,4.67-3.94
		C655.33,534.55,656.81,535.76,656.39,538.43z"/>
	<path class="st36" d="M467.08,284.82c-3.15,0.68-4.75-1.77-4.97-3.9c-0.12-1.12,1.93-3.56,4.7-3.45c2.84,0.11,4.83,1.49,5.01,3.95
		C472.01,284.13,469.84,285.24,467.08,284.82z"/>
	<path class="st23" d="M466.85,350.53c2.71-0.18,5.16,0.57,4.95,3.35c-0.18,2.44-1.95,4.22-5.03,4.2c-2.96-0.01-4.63-2.3-4.63-4.04
		C462.13,352.03,464.08,349.88,466.85,350.53z"/>
	<path class="st37" d="M466.8,259.59c2.93-0.03,5.39,1.26,4.99,3.75c-0.24,1.52-1.61,4.24-4.93,3.97c-2.98-0.24-4.76-2.36-4.76-4.09
		C462.09,261.25,464.18,259.14,466.8,259.59z"/>
	<path class="st38" d="M320.49,340.62c2.32-2.69,4.94-1.73,6.64,0.27c2.34,2.76-0.49,5.25-2.05,6.82c-1.56,1.57-4.37,1.66-4.59-2.03
		C319.32,343.99,319.3,342.3,320.49,340.62z"/>
	<path class="st39" d="M308.72,446.6c3.2-0.45,3.94,1.2,4,4c0.06,2.83-0.81,4.26-3.8,4.22c-2.63-0.04-3.89-1.22-3.69-3.85
		C305.39,448.71,305.16,446.05,308.72,446.6z"/>
	<path class="st22" d="M640.95,448.68c-0.09-1.64,1.7-2.29,4.42-2.15c3.59,0.19,2.81,2.74,3.01,4.93c0.29,3.21-1.86,3.23-4.05,3.3
		C640.95,454.86,640.99,452.48,640.95,448.68z"/>
	<path class="st40" d="M691.36,579c0.16,3.5-1.86,3.99-4.37,4.16c-3,0.2-4.21-2.55-4.04-4.02c0.17-1.48,1.27-4.34,4.41-3.86
		C689.87,575.66,691.88,576.21,691.36,579z"/>
	<path class="st41" d="M598.71,360.76c-2.46,0.45-3.54-1.09-3.7-3.58c-0.17-2.76,1.12-4.4,3.95-4.29c2.24,0.08,4.14,0.89,4.17,3.67
		C603.16,359.32,601.89,360.81,598.71,360.76z"/>
	<path class="st42" d="M246.75,575.29c3.06-0.45,3.21,2.61,4.84,3.76c-1.27,1.78-1.85,4.52-4.85,4.06
		c-2.11-0.32-4.25-1.02-4.28-3.73C242.45,576.52,244.44,575.67,246.75,575.29z"/>
	<path class="st28" d="M281.58,542.44c-3.49,0.34-4.18-1.52-4.16-4.25c0.02-2.99,1.92-3.31,4.22-3.46c3.13-0.2,3.57,2.45,3.6,4.21
		C285.27,540.81,284.39,543.3,281.58,542.44z"/>
	<path class="st43" d="M193.67,593.29c-6.12,1.2-11.64-3.26-17.76-1.83c-0.35,0.08-2.06-0.61-0.85,0.93
		c0.23,0.29,0.86,0.26,1.3,0.82c-3.29,0-6.58,0-9.87,0c0.21-0.82,0.47-1.74,1.41-1.84C176.6,590.52,185.4,588.41,193.67,593.29z"/>
	<path class="st44" d="M295.62,522.41c2.76,0.38-0.09,3.18,1.72,3.96c-0.39,0.59-1.43,0.42-1.59,0.87
		c-1.57,4.26-3.42,2.03-5.27,0.29l-0.05,0.05c-1.24-1.74-1.23-3.48,0-5.22l0.06,0.05C292.19,521.28,293.91,521.17,295.62,522.41z"/>
	<path class="st45" d="M360.64,811.04c0.76,0.15,1.87-1.78,2.3,0.52c0.42,2.23,0.81,4.43,0.46,6.7c-1.31-0.45-1.59,0.88-2.27,2.36
		C360.32,816.79,360.44,813.91,360.64,811.04z"/>
	<path class="st46" d="M561.57,552.33c1.12-1.43,1.56-3.5,3.72-3.94c0.53,3.55,3.45,1.29,5.11,2.1c-0.03,0.61-0.06,1.21-0.09,1.82
		C567.39,552.31,564.48,552.32,561.57,552.33z"/>
	<path class="st47" d="M593.39,678.4c-1.99,0.31-3.99,7.22-5.97-0.01c0.37-1.69,1.26-2.53,3.06-1.84
		C590.62,678.48,592.08,678.33,593.39,678.4z"/>
	<path class="st48" d="M196.54,244.68c0.83,3.06-0.82,5.15-2.77,7.12c-0.13-2.31-0.35-4.6,0.42-6.89
		C194.9,242.81,195.74,244.52,196.54,244.68z"/>
	<path class="st2" d="M355.63,790.24c0.93,0.69,1.33,2.17,2.87,1.98c-0.01,2.67-0.02,5.34-0.03,8.01
		C358.31,796.67,354.9,794.04,355.63,790.24z"/>
	<path class="st49" d="M290.47,527.53c0.84,0.19,5.28-0.56,6.87-1.16c-0.1,1.49-1.66,2.67-2.27,3.1
		C293.28,530.74,290.43,531.83,290.47,527.53z"/>
	<path class="st50" d="M290.42,522.36c0,1.74,0,3.48,0,5.22c-1.41-0.22-2.85-0.2-2.8-2.38C287.68,523.21,288.35,522.2,290.42,522.36
		z"/>
	<path class="st51" d="M621.16,691.47c-2.92-0.06-3.22-1.88-2.81-4.18C623.49,685.86,620.39,689.97,621.16,691.47z"/>
	<path class="st49" d="M295.62,522.41c-1.72,0-3.43-0.01-5.15-0.01C292.2,519.52,293.92,518.39,295.62,522.41z"/>
	<path class="st26" d="M739.14,433.52c-0.7,1.67,2.32,4.73-1.91,5.08C737.21,436.65,736.28,434.37,739.14,433.52z"/>
	<path class="st52" d="M320.49,340.62c0,1.69,0,3.38,0,5.07C317.36,343.99,317.45,342.3,320.49,340.62z"/>
	<path class="st53" d="M661.3,555.4c1.67,0.02,3.34,0.05,5,0.07C664.59,558.72,662.93,558.34,661.3,555.4z"/>
	<path class="st54" d="M499.44,719.25c-39.3-0.04-78.6-0.09-117.89-0.13c-1.36-2.4-1.58-5-1.57-7.71
		c0.02-82.25,0.02-164.51,0-246.76c0-2.54,0.22-4.98,1.36-7.27l0,0c5.01-1.53,10.17-1.26,15.3-1.26c45.24,0,90.47,0.01,135.71-0.02
		c3.77,0,7.34,0.22,9.9,3.5l0.24-0.12c0.4,0.53,0.72,1.11,0.95,1.74c0.5,2.13,0.33,4.29,0.33,6.44
		c0.01,33.67,0.02,67.34-0.02,101.01c0,3.26,0.45,6.63-1.3,9.68c-2.63,5.13-8.21,7.77-10.92,12.89c-0.4,0.76-1.25,1.45-1.63,2.36
		c-0.28,0.66,0.09,1.83-1.28,1.56c-1.08-0.21-1.12-1.12-1.13-1.94c-0.04-4.15-0.19-8.31-0.01-12.45c0.16-3.72-1.01-5.4-5.06-5.39
		c-40.69,0.12-81.39,0.09-122.08,0.1c-2.04,0-4.22-0.31-3.94,2.84c0.06,0.28,0.12,0.57,0.18,0.85c0.46,10.14,0.4,20.29,0.03,30.44
		c-0.06,0.28-0.13,0.57-0.19,0.85c1.43,1.77,3.41,0.96,5.12,0.96c34.94,0.05,69.89,0.04,104.83,0.04c1.65,0,3.29,0,5.28,0
		c-1.58,3.56-3.04,6.83-4.49,10.1c-2.46,1.98-5.4,1.4-8.17,1.41c-30.8,0.05-61.6,0.03-92.4,0.03c-1.83,0-3.66-0.04-5.48,0.21
		c-2.68,0.37-2.94,2.31-2.92,4.42c0.02,1.99,0.53,3.62,2.9,3.93c1.99,0.26,3.99,0.21,5.98,0.21c31.3,0.01,62.6-0.02,93.9,0.04
		c2.75,0,5.72-0.62,8.07,1.61c-0.69,3.41,2.63,5.18,3.3,8.03c0.55,2.72-1.46,2.98-3.27,3.29c-2.14,0.37-4.31,0.23-6.47,0.23
		c-35.08,0.02-70.17-0.02-105.24,0.04c-4.13,0.74-1.93,4.03-2.13,6.06c-0.21,2.13,1.69,3.5,3.86,3.8c1.8,0.24,3.65,0.07,5.47,0.07
		c38.37,0,76.73,0.03,115.1-0.04c2.05,0,4.36,0.83,6.07-1.16c0.35-0.78,0.81-1.48,1.42-2.08c4.8,1.93,9.64,2.28,14.79,0.15
		c-4.85,5.26-8.17,11.57-14.69,14.66c-2.46-1.08-5.01-1.58-7.73-1.57c-15.11,0.04-30.23-0.01-45.34,0.04
		c-5.82,0.02-6.15,0.4-6.19,6.27c-0.04,6.64-0.04,13.28,0,19.93c0.04,6.3,0.34,6.58,6.89,6.63c5.15,0.04,10.3-0.05,15.44,0.04
		c2.12,0.04,4.38-0.22,6.04,1.61c0.01,0.99,0.28,2.08-0.03,2.97C494.19,708.61,496.09,714.05,499.44,719.25z"/>
	<path class="st5" d="M396.4,578.31c40.8,0.01,81.6,0.02,122.41,0.02c1.33,0,2.66-0.09,3.98-0.18c2.54-0.17,3.62,0.18,3.36,3.5
		c-0.37,4.66-0.9,9.5,0.45,14.17c0.19,0.65,0.29,1.06-0.3,1.68c-3.69,3.91-7.35,7.86-10.89,11.91c-1.39,1.59-3.06,1.04-4.62,1.04
		c-38.12,0.03-76.24,0.02-114.36,0.01c0,0-0.01-0.02-0.01-0.02c-0.73-10.69-0.61-21.37-0.06-32.06L396.4,578.31z"/>
	<path class="st6" d="M496.37,699.4c-8.31-0.03-16.63-0.13-24.94-0.06c-3.39,0.03-4.96-0.84-4.81-4.78
		c0.34-9.13,0.25-18.29,0.03-27.43c-0.08-3.16,1.12-4.02,3.96-4.01c17.63,0.04,35.25,0.02,52.88-0.02c2.35-0.01,3.9,0.65,3.76,3.34
		c0.31,5.15-4.22,7.05-7.07,9.78c-6.25,6-13.27,11.19-18.93,17.86C499.7,695.91,500.02,699.51,496.37,699.4z"/>
	<path class="st55" d="M509.05,633.41c-35.95-0.01-71.9-0.17-107.84,0.13c-6.25,0.05-4.81-3.5-5-6.92
		c-0.21-3.74,0.63-5.25,5.14-5.22c35.28,0.27,70.55,0.15,105.83,0.14c0.17,2.1,0.33,4.19,0.52,6.54c1.6-1.72,0.36-3.68,1.36-5.7
		C509.05,626.36,509.05,629.89,509.05,633.41z"/>
	<path class="st6" d="M396.5,643.38c13.77-0.08,27.53-0.2,41.3-0.23c23.4-0.04,46.8,0,70.19-0.03c1.6,0,3.67,0.86,4.35-1.68
		c2.19,0.61,3.75,2.05,5.46,3.51c2.9,2.48,6.21,4.48,9.35,6.68c0.05,0.54,0.1,1.07,0.15,1.61c-1.82,1.95-4.25,1.66-6.52,1.66
		c-38.65-0.01-77.3,0.03-115.95-0.01c-0.5,0-1-0.01-1.49-0.02C395.16,654.71,393.18,651.39,396.5,643.38z"/>
	<path class="st56" d="M517.6,626.04c-2.74-7.95,3.59-10.68,8.26-14.07c7.47-5.42,13.23-4.69,20.2-0.97
		c6.33,3.38,8.06,12.8,3.36,19.08c-2.42,3.24-4.5,6.88-7.46,9.6c-6.24,5.74-12.56,5.22-18.65-0.8
		C519.67,635.28,515.89,631.87,517.6,626.04z"/>
	<path class="st2" d="M378.44,760.37c2.31,1.71,4.9,2.38,7.76,2.06c0.87,0.94,1.94,0.95,3.17,0.94
		c43.23-0.24,86.46-0.07,129.69-0.12c2.83,0,5.66,0.09,8.36-0.96c2.66,1.8,6.39,1.09,8.75,3.97c-25.19-2.24-50.36-0.67-75.5-0.93
		c-25.41-0.26-50.83-0.06-76.25-0.06c-0.01,0.47-0.01,0.93-0.02,1.4c42.45,0,84.9,0,127.36,0c-4.11,3.39-18.7,5.99-28.12,6.1
		c-3.26,0.04-6.6,0.58-9.78,0.08c-4.35-0.68-7.12,0.49-8.83,4.61c-0.42,1.02-0.69,3.62-2.89,2.2c-1.49-0.95-0.12-2.41,0.37-3.55
		c0.37-0.87,0.98-1.64,1.78-2.95c-9.86-0.18-19.46-2.75-27.93,5.23c-0.2-3.56,2.85-3.11,2.7-5.16c-7.11,0-14.27-0.43-21.35,0.11
		c-8.82,0.68-17.45-1.27-26.2-1.15c-2.46,0.03-4.08-2.06-5.82-3.15c-2.34-1.46-5.02-1.8-7.35-3.31
		C374.58,763.33,375.61,762.11,378.44,760.37z"/>
	<path class="st56" d="M510.2,730.38c-3.41-2.28-6.54-4.82-7.87-8.93c0.02-1.99,0.08-3.99,0.07-5.98
		c-0.02-8.64,5.09-15.09,13.1-18.83c4.89-2.29,8.73-1.86,13,0.7c4.02,2.42,5.21,8.33,4.78,12.72c-0.85,8.71-8.47,11.86-12.74,17.7
		c-0.54,0.74-1.52,1.02-1.42,2.35c0.17,2.2-1.62,0.78-2.49,1.09C515.19,725.26,512.27,731.15,510.2,730.38z"/>
	<path class="st57" d="M363.31,677.42c-4.05-9.07-1.95-17.65-2.62-25.91c-0.48-6.02-2.06-11.67-4.09-17.09
		c-1.19-3.18-0.07-7.07-3.06-9.64c-0.59-0.51-0.86-1.39-1.27-2.1c-1.05-1.84-4.39-1.57-4.07-4.8c0.46-4.61,3.56,0.29,4.77-1.48
		c2.24-3.29,6.47-5.05,7.43-9.26c0.38-1.68,0.49-3.27,2.9-4.26C365.13,627.52,363.15,651.91,363.31,677.42z"/>
	<path class="st58" d="M527.42,762.29c0.21,2.66-1.67,2.31-3.32,2.31c-43.97-0.04-87.95-0.06-131.92-0.19
		c-2.05-0.01-4.79,1.06-5.97-1.98c44.76-0.06,89.52-0.11,134.27-0.19c1.56,0,3.52,0.55,3.87-1.95
		C525.77,760.36,526.9,760.86,527.42,762.29z"/>
	<path class="st59" d="M542.53,460.58c-0.01-0.37-0.03-0.74-0.04-1.1c3.05-0.17,2.89,1.91,2.89,4
		c-0.02,36.25-0.01,72.51-0.06,108.76c0,1.63-0.79,3.42,1.99,3.15c-0.03,1.3-0.93,1.7-2,1.91c-3.45-0.4-2.38-3.1-2.39-5.03
		c-0.06-19.12-0.04-38.25-0.04-57.37c0-16.46,0.01-32.93-0.01-49.39C542.86,463.87,543.17,462.19,542.53,460.58z"/>
	<path class="st4" d="M542.53,460.58c1.52,1.73,0.8,3.82,0.81,5.74c0.05,34.91,0.03,69.82,0.04,104.74c0,2.26-0.56,4.74,1.93,6.25
		c-0.62,1.27-1.79,1.02-2.86,1.04C542.48,539.09,542.5,499.84,542.53,460.58z"/>
	<path class="st60" d="M381.33,457.38c0.03,10.63,0.08,21.26,0.08,31.9c0.01,71.96,0,143.93,0.01,215.89c0,4.65,0.08,9.3,0.12,13.96
		c-2.4-1.07-2.95-2.93-2.95-5.48c0.06-83.68,0.06-167.36,0.01-251.04C378.61,460.23,378.96,458.36,381.33,457.38z"/>
	<path class="st60" d="M542.24,459.6c-4.52-2.55-9.46-2.04-14.35-2.04c-47.2,0-94.39,0-141.59-0.01c-1.66,0-3.32-0.11-4.98-0.17
		c0.67-1.44,2.14-0.42,3.08-1c0.55-0.38,1.15-0.62,1.81-0.73c50.13-0.23,100.27-0.09,150.4-0.07c1.01,0.03,1.94,0.27,2.76,0.88
		C541.16,456.75,542.89,457.09,542.24,459.6z"/>
	<path class="st59" d="M385.55,456.38c-0.38,0-0.75,0-1.13,0c-0.66-0.45-1.32-0.89-2.01-1.35c0.56-0.93,1.48-0.47,2.21-0.47
		c49.78-0.03,99.56-0.04,149.35,0.04c1.86,0,4.54-1.39,5.42,1.85c-0.7-0.02-1.39-0.05-2.09-0.07c-1.27-0.58-2.62-0.35-3.94-0.35
		c-47.96-0.01-95.91-0.01-143.87,0C388.17,456.03,386.82,455.8,385.55,456.38z"/>
	<path class="st61" d="M527.52,441.55c-4.95-0.24-7.3-2.02-7.01-5.46c0.23-2.74,2.43-4.87,5.34-4.94c2.96-0.07,5.14,1.43,4.51,4.93
		C529.91,438.62,530.65,442.26,527.52,441.55z"/>
	<path class="st1" d="M555.55,489.54c1.26,3.32,1.41,6.64-0.11,9.93C555.19,496.16,554.97,492.85,555.55,489.54z"/>
	<path class="st62" d="M466.32,150.96c13.79-0.06,23.87,4.32,32.44,12.57c2.65,2.55,2.06,5.7,0.27,7.42
		c-1.52,1.47-4.63,1.81-6.98-0.71c-7.15-7.67-16.38-11.55-26.59-10.86c-8.47,0.58-16.61,3.91-22.68,10.38
		c-2.73,2.91-5.6,2.7-7.79,0.67c-2.33-2.16-1.98-4.76,0.9-7.34C445.16,154.82,455.75,150.61,466.32,150.96z"/>
	<path class="st63" d="M479.28,183.94c-3.8-0.49-4.67-5.63-9.29-5.35c-5.01,0.3-9.74-0.13-13.46,4.49
		c-2.22,2.75-5.57,2.35-8.19-0.22c-2.22-2.18,0.11-6.41,4.02-9.08c10.54-7.21,20.78-5.54,31.03,0.38c4.22,2.43,4.98,6.23,2.03,9.65
		C483.41,185.07,481.37,185.46,479.28,183.94z"/>
	<path class="st64" d="M474.59,194.63c0.07,5.34-1.96,7.46-7.14,7.45c-5.69-0.01-8.02-2.07-8.03-7.12
		c-0.01-4.39,3.57-8.14,7.79-8.17C472.6,186.74,474.51,188.77,474.59,194.63z"/>
	<path class="st65" d="M479.28,183.94c2.05-0.04,4.1-0.09,6.15-0.13c-0.84,1.51-1.4,3.16-3.77,3
		C479.61,186.66,479.39,185.46,479.28,183.94z"/>
	<path class="st66" d="M701.45,259.28c0-6.15,0.17-12.31-0.07-18.45c-0.13-3.3,1-4.54,4.22-4.24c1.63,0.15,3.3-0.01,4.95-0.02
		c2.66-0.02,3.75,1.16,3.73,3.94c-0.11,12.63-0.1,25.27-0.02,37.91c0.02,2.66-0.97,4.02-3.65,4.05c-0.5,0.01-1,0.01-1.5,0.02
		c-7.65,0.22-7.65,0.22-7.65-7.25C701.45,269.92,701.45,264.6,701.45,259.28z"/>
	<path class="st54" d="M671.43,281.62c-0.05-8.93,0.11-17.88-0.25-26.8c-0.16-4.08,1.01-5.78,5.14-5.25
		c1.63,0.21,3.29,0.1,4.94,0.14c1.45,1.59,1.67,3.5,1.63,5.57c-0.16,6.97-0.11,13.95-0.18,20.92c-0.06,5.55-0.55,6.01-5.94,5.94
		C674.99,282.12,673.11,282.71,671.43,281.62z"/>
	<path class="st67" d="M699.19,272.21c0,1.15,0,2.3,0,3.46c0.01,6.84-0.01,6.54-6.84,6.94c-4.73,0.27-6.66-1.08-6.1-5.99
		c0.39-3.43,0.16-6.95,0.05-10.42c-0.11-3.71-0.29-6.86,5.23-6.42c5.91,0.48,7.48,1.44,7.62,6.99c0.05,1.81,0.01,3.62,0.01,5.44
		C699.17,272.21,699.18,272.21,699.19,272.21z"/>
	<path class="st68" d="M671.43,281.62c9.87,0.21,9.89,0.21,9.89-9.81c0-7.36-0.04-14.73-0.06-22.09c2.56-0.38,3.01,1.1,3,3.22
		c-0.04,8.75-0.1,17.49,0.04,26.24c0.04,2.65-1.08,3.75-3.46,3.47C677.7,282.28,674.35,283.81,671.43,281.62z"/>
	<path class="st44" d="M656.43,281.62c-0.04-2.96-0.07-5.93-0.11-8.89c2.98-2.17,6.24-2.06,9.31-0.58c2.2,1.07,2.14,3.51,2.07,5.67
		c-0.09,2.89-1.22,4.74-4.51,4.35C660.94,281.92,658.6,282.75,656.43,281.62z"/>
	<path class="st69" d="M656.43,281.62c1.8,0.03,3.62-0.09,5.41,0.11c3.35,0.37,4.61-0.8,4.62-4.34c0.01-3.6-0.97-5.21-4.73-4.72
		c-1.78,0.23-3.6,0.06-5.41,0.07c0.11-1.23-0.39-3.09,1.64-2.91c3.42,0.3,7.39-1.87,10.09,2.25c0.81,1.24,1.62,5.79,1.12,8.51
		c-0.46,2.49-2.37,2.22-3.8,2.05C662.39,282.28,659.17,283.91,656.43,281.62z"/>
	<path class="st70" d="M201.63,656.38c-0.07,0.62-0.14,1.24-0.22,1.86c-3.81,2.29-8.06,1.54-12.13,1.54
		c-8.54,0-17.17,1.15-25.56-1.5c-2.88-5.82-3.84-12.17-5.14-18.44c-0.72-3.46-1.93-6.83-2.98-10.19c-0.72-2.32-3.37-3.54-6.34-3.33
		c-1.15,0.08-3.33,0.21-3.22-2.12c0.1-2.01,1.36-2.62,3.32-2.79c7-0.6,9.84,1.49,11.81,8.51c1.1,3.93,3.21,6.98,8.1,6.54
		c2.47-0.22,4.98,0.08,7.46-0.09c6.15-0.41,12.14-0.63,15.1,6.46c0.17,0.42,1.13,0.51,1.72,0.75c1.87,1.89,4.34,1.15,6.56,1.46
		c3.88,0.54,5.39,2.33,3.67,5.55C202.77,652.5,203.24,654.82,201.63,656.38z"/>
	<path class="st71" d="M201.63,656.38c0.07-1.65-0.32-3.49,0.28-4.91c2.1-5,2.23-4.87-3.25-5.09c-2.05-0.08-5.07,1.15-5.11-2.79
		c1.28-0.11,2.7,0.22,3.66-1.34c-4.06-2.3-8.08-5.15-7.94-10.17c0.11-3.93,7.94-9.07,11.66-8.61c3.5,0.43,7.68,5.29,7.92,9.2
		c0.33,5.45-1.48,7.9-6.86,9.16c0.64,2.36,5.32,3.05,4.02,4.82C203.76,649.71,205.62,654.38,201.63,656.38z"/>
	<path class="st72" d="M163.73,658.28c12.56-0.01,25.12-0.03,37.69-0.04c-1.58,2.38-3.75,3.1-6.61,3.03
		c-7.08-0.19-14.17-0.14-21.26-0.03C169.91,661.29,166.31,661.58,163.73,658.28z"/>
	<path class="st73" d="M192.1,674.43c-3.24-0.52-5.47-2.71-5.26-5.66c0.21-3.05,2.22-5.39,6.06-5.45c4.21-0.06,5.43,3.28,5.61,5.87
		C198.75,672.83,195.31,673.94,192.1,674.43z"/>
	<path class="st74" d="M172.18,674.26c-3.42-0.29-5.66-2.02-5.45-5.2c0.2-3.13,1.91-5.66,5.69-5.69c4.37-0.03,4.29,3.29,4.49,6.18
		C177.13,672.91,175.07,674.18,172.18,674.26z"/>
	<path class="st54" d="M141.59,469.52c-8.15,0-16.31,0.01-24.46,0c-5.38,0-9.13-3.48-10.21-9.43c-0.66-3.65,2.99-10.69,6.78-11.26
		c6.43-0.98,9.16-6.33,13.15-10.04c3.53-3.28,7.31-3.27,11.31-2.6c2.22,0.37,3.85,0.2,5.35-1.47c5.53-6.15,17.99-4.03,20.06,5.17
		c0.44,1.95,1.77,1.51,2.98,1.82c8.42,2.16,12.75,8.08,12.04,16.67c-0.33,4.01-3.03,7.19-5.57,9.69c-1.09,1.07-4.59,1.8-7.48,1.63
		C157.58,469.2,149.58,469.52,141.59,469.52z"/>
	<path class="st70" d="M820.37,463.61c-1.94,4.32-1.9,9.46-5.46,13.11c-1.8,1.85-3,4.35-5.5,0.09c-3.33-5.67-8.73-8.13-15.58-7.42
		c-4.11,0.43-8.31-0.04-12.46,0.1c-7.71,0.27-13.3-3.05-17.29-9.54c-3.64-5.92-2.87-12.39-0.99-18.19
		c2.78-8.58,10.42-11.25,18.66-13.75c9.05-2.75,17.54-1.1,25.72,1.21c6.36,1.8,11.25,7.06,12.8,14.26
		C822.54,450.18,821.42,456.9,820.37,463.61z"/>
	<path class="st75" d="M820.37,463.61c-0.03-6.71-0.07-13.41-0.1-20.12C825.36,450.17,822.8,456.89,820.37,463.61z"/>
	<path class="st76" d="M249.62,236.44c7.98,0,15.95-0.04,23.93,0.04c1.36,0.01,3.26-0.76,3.94,1.12c0.72,1.97-1.59,1.64-2.36,2.53
		c-4.93,5.69-11.85,9.02-17.14,14.31c-0.74,0.74-1.71,1.31-2.49,2.18c-3.76,4.19-8.89,4.41-12.47,0.29
		c-4.91-5.66-11.35-9.43-16.91-14.28c-0.54-0.47-2.1-0.38-1.94-1.17c0.48-2.37-3.77-1.74-2.52-4.02c1.08-1.97,3.33-0.92,5.03-0.94
		C234.33,236.38,241.98,236.44,249.62,236.44z"/>
	<path class="st76" d="M219.56,280.85c7.74-3.16,12.07-9.95,18.32-14.37c2.77-1.95,4.67-4.92,8.91-2.11
		c1.54,1.02,5.15,1.87,7.11-1.35c0.43-0.7,2.24-1.14,3.17-0.12c5.9,6.4,13.31,11.03,19.67,16.88c0.72,0.67,1.09,1.14,0.81,1.99
		c-0.31,0.95-1.15,1.08-2.01,1.08c-2.32,0-4.63-0.03-6.95-0.03c-14.5,0.01-29.01,0-43.51,0.09
		C223.18,282.91,221.52,282.62,219.56,280.85z"/>
	<path class="st77" d="M284.39,260.71c0,4.48,0.06,8.97-0.04,13.45c-0.02,1.1,0.82,2.62-1.36,3.12c-1.61,0.38-2.48,0.16-3.9-0.87
		c-6.25-4.53-11.08-10.72-17.69-14.83c-1.38-0.86-2.11-1.91,0.2-4.32c5.08-5.3,11.9-8.31,16.62-13.92c0.84-1,2.39-2.17,4.42-1.22
		c2.06,0.96,1.75,2.53,1.75,4.14C284.4,251.08,284.39,255.9,284.39,260.71z"/>
	<path class="st64" d="M223.61,272.72c-1.72-0.35-0.42,1.63-1.39,1.81c-2.4,0.44-3.3,4.62-6.29,2.97c-2.64-1.46-1.16-4.44-1.21-6.7
		c-0.18-8.45-0.11-16.9-0.03-25.35c0.01-1.1-0.83-2.63,1.2-3.23c1.61-0.48,2.57-0.06,3.95,0.91c6.25,4.44,11.86,9.64,17.85,14.36
		c2.17,1.71,1.32,1.93,0.2,2.94c-3.43,3.1-6.89,6.16-10.34,9.24C226.23,270.68,224.74,271.46,223.61,272.72z"/>
	<path class="st78" d="M223.61,272.72c0.49-2.09,1.35-3.69,3.95-3.05C227.87,272.8,225.8,272.84,223.61,272.72z"/>
	<path class="st79" d="M767.24,647.37c0-6.64,0.1-13.29-0.05-19.93c-0.07-2.98,1.02-4.62,3.99-3.97c4.15,0.91,7.33-2.3,11.35-2.18
		c3.74,0.11,5.51,1.3,5.49,5.16c-0.07,12.29-0.06,24.58-0.01,36.87c0.02,3.84-1.69,5.09-5.49,6.18c-3.84,1.1-7.52,1.69-11.43,1.89
		c-3.15,0.17-3.97-1.18-3.91-4.09C767.34,660.66,767.24,654.01,767.24,647.37z"/>
	<path class="st80" d="M732.21,658.31c-1.3,3.31,0.94,6.08,2.69,7.71c4.17,3.88-2.17,3.18-1.78,5.15c-2.82,0.04-5.65,0.24-8.46,0.07
		c-2.98-0.17-2.84-2.65-2.84-4.7c0.01-12.33,0.21-24.66,0.11-36.98c-0.04-4.22,1.35-6.41,5.8-6.18c3.93,0.2,7.28-3.09,11.41-1.97
		c1.04,0.28,2.76-0.29,2.84,1.26c0.2,4.14,0.16,8.29,0.04,12.43c-0.04,1.36-1.47,0.9-2.34,1.2c-2.69,0.92-5.8,1.5-5.61,5.43
		c0.29,1.43-0.76,2.05-1.65,2.77c-3.25,4.29-2.5,8.76-0.59,13.28C731.96,657.94,732.08,658.13,732.21,658.31z"/>
	<path class="st62" d="M757.23,643.39c-0.87-4.4-4.29-6.63-8.04-6.92c-3.73-0.29-4.27-2.32-4.73-4.93
		c-0.23-1.29-0.08-2.65-0.06-3.98c0.06-5.61,4.91-8.87,9.53-5.66c2.07,1.43,3.77,1.53,5.58,1.38c4.05-0.34,5.43,1.89,5.45,5.22
		c0.11,12.95,0.05,25.91,0.04,38.87c0,2.99-1.28,4.51-4.47,3.99c-1.14-0.18-2.34-0.18-3.48-0.04c-4.18,0.53-5.38-1.38-4.41-5.18
		c-0.36-1.53,0.46-2.53,1.55-3.39c1.77-0.78,1.84-2.57,2.38-4.09c0.21-0.39,0.49-0.72,0.81-1.02c2.5-4.53,2.43-9.08,0.15-13.66
		C757.44,643.79,757.33,643.59,757.23,643.39z"/>
	<path class="st81" d="M754.19,663.74c-0.52,0.8-1.03,1.61-1.55,2.41c-2.13,0.04-2.94,1.14-3.64,3.21
		c-1.45,4.24-3.57,4.14-6.82,1.38c-3.77-3.2-5.32-7.65-7.96-11.47c-0.59-0.85-1.16-1.02-2.01-0.96c0,0,0.04,0.07,0.04,0.07
		c-2.43-5.09-2.63-10.11,0.44-15.03c0.46-0.54,0.92-1.09,1.38-1.63c3.26,0.48,4.84-3.01,7.83-3.27c4.54-0.41,8.94-0.13,12.04,3.64
		c1.06,1.29,1.96,1.45,3.29,1.31c0,0-0.04-0.07-0.04-0.07c2.46,5.02,2.33,10.04,0,15.05l0.06-0.06
		C755.34,659.63,755.72,662.22,754.19,663.74z"/>
	<path class="st82" d="M425.77,512.31c8.27,0,16.54,0.12,24.8-0.06c3.03-0.07,4,1,3.99,3.93c-0.08,16.12-0.1,32.25,0.03,48.37
		c0.02,2.69-0.9,3.48-3.41,3.41c-17.44-0.49-34.87-0.45-52.31-0.05c-1.76,0.04-2.66-0.44-2.65-2.51
		c0.07-16.62,0.07-33.25,0.02-49.87c-0.01-3.14,1.9-3.21,4.24-3.19c8.43,0.07,16.86,0.03,25.29,0.03
		C425.77,512.34,425.77,512.32,425.77,512.31z"/>
	<path class="st83" d="M454.41,663.38c0.03,10.62-0.07,21.25,0.16,31.87c0.07,3.33-1.03,4.16-4.22,4.13
		c-17.93-0.15-35.86-0.1-53.79-0.11c-1.55-1.57-1.57-3.58-1.57-5.59c0-8.31-0.06-16.63,0.02-24.94c0.05-5.55,0.94-6.46,6.33-6.48
		c16.13-0.05,32.25-0.05,48.38,0C451.36,662.26,453.07,662.05,454.41,663.38z"/>
	<path class="st5" d="M396.56,474.58c33.26-0.07,66.52-0.14,99.77-0.2c8.15-0.01,16.31,0.29,24.44-0.09
		c4.8-0.22,7.32,0.76,6.32,6.12c-0.24,1.27,0.07,2.65,0.13,3.98c-1.51,1.6-3.42,1.74-5.49,1.72c-38.7-0.25-77.4-0.06-116.1-0.11
		C394.99,485.99,394.49,485.38,396.56,474.58z"/>
	<path class="st84" d="M527.34,503.54c0.03,0.28,0.02,0.56-0.05,0.84c-1.71,1.73-3.92,1.6-6.08,1.6
		c-39.58,0.01-79.15,0.02-118.73-0.01c-6.6-0.01-8.93-3.28-7.11-9.62c0.52-1.82,1.76-2.74,3.53-3.1c1.64-0.33,3.31-0.22,4.97-0.23
		c38.41-0.01,76.83-0.01,115.24,0c1.16,0,2.33-0.02,3.49,0.05c2.91,0.18,4.72,1.15,4.12,4.64
		C526.39,499.61,526.25,501.69,527.34,503.54z"/>
	<path class="st85" d="M527.34,503.54c-2.49-1.67-1.32-4.21-1.04-6.19c0.36-2.53-0.58-2.95-2.6-2.88c-0.67,0.02-1.33,0-2,0
		c-40.14,0-80.27-0.01-120.41,0.03c-1.55,0-4.03-0.87-4.46,0.99c-0.61,2.66-0.31,5.6-0.01,8.37c0.11,1,1.67,0.81,2.63,0.81
		c42.61-0.09,85.22-0.2,127.83-0.31c0.43,3.54-2.1,3.1-4.23,3.11c-7.99,0.02-15.98,0.01-23.97,0.01c-32.46,0-64.93,0-97.39,0
		c-5.48,0-8.18-2.11-8.13-6.29c0.1-8.05,1.42-9.64,8.17-9.64c39.29-0.01,78.58,0,117.87,0c7.89,0,7.89,0,7.86,7.99
		C527.46,500.88,527.38,502.21,527.34,503.54z"/>
	<path class="st86" d="M495.32,565.41c-8.79,0-17.59-0.17-26.37,0.08c-3.69,0.11-4.83-0.97-4.72-4.72c0.28-10.06-0.56-8.1,8.24-8.16
		c16.45-0.11,32.91,0.22,49.35-0.15c6.34-0.14,5.12,3.72,5.49,7.44c0.45,4.48-1.28,5.71-5.62,5.55c-8.78-0.32-17.58-0.09-26.37-0.09
		C495.32,565.37,495.32,565.39,495.32,565.41z"/>
	<path class="st87" d="M495.42,545.49c-8.98,0-17.96-0.09-26.94,0.05c-3.1,0.05-4.29-0.78-4.29-4.16c0-8.77-0.19-8.77,8.92-8.77
		c15.47,0,30.94-0.01,46.41,0c6.83,0.01,10.17,5.03,7.62,11.37c-0.87,2.17-2.82,1.45-4.28,1.47c-9.15,0.11-18.29,0.06-27.44,0.06
		C495.42,545.5,495.42,545.5,495.42,545.49z"/>
	<path class="st88" d="M527.16,515.69c0.21,8.99,0.21,8.98-8.76,8.98c-15.79,0-31.58-0.01-47.38,0.01
		c-7.41,0.01-6.75,0.83-6.68-6.53c0.01-1.15,0.16-2.31,0.24-3.46c1.43-1.62,3.37-1.18,5.15-1.19c17.32-0.03,34.63-0.05,51.95,0.01
		C523.71,513.52,526.21,512.79,527.16,515.69z"/>
	<path class="st89" d="M396.56,474.58c-0.1,9.95-0.1,9.95,9.76,9.95c36.7,0,73.39,0,110.09-0.01c3.61,0,7.21-0.08,10.82-0.13
		c0.01,2.88-2,3.04-4.12,3.04c-41.07-0.01-82.14-0.03-123.21,0.01c-3.41,0-5-1.65-4.48-4.8
		C395.85,479.96,394.27,476.98,396.56,474.58z"/>
	<path class="st90" d="M396.5,643.38c-0.12,10.64-0.12,10.63,10.61,10.63c38.11-0.02,76.21-0.03,114.32-0.09
		c1.96,0,3.91-0.44,5.87-0.67c0.33,3.46-2.11,3.1-4.28,3.1c-8.81,0.01-17.62,0-26.43,0c-32.25,0-64.5-0.06-96.75,0.09
		c-3.24,0.02-5.51-1.88-5.78-3.88c-0.37-2.8-1.61-6.11,0.53-8.87C394.88,643.33,395.85,643.47,396.5,643.38z"/>
	<path class="st91" d="M454.41,663.38c-18.11-0.04-36.22-0.03-54.33-0.16c-2.77-0.02-3.79,0.81-3.74,3.67
		c0.18,10.79,0.16,21.59,0.22,32.38c-2.5,0.29-3.11-1.04-3.1-3.28c0.06-9.81-0.07-19.63,0.08-29.44c0.05-3.33,1.21-5.85,5.47-5.82
		c17.34,0.12,34.68,0.03,52.03,0.07c1.3,0,2.73,0.08,3.85,0.63C456.77,662.34,454.15,662.6,454.41,663.38z"/>
	<path class="st92" d="M527.16,515.69c-1.12-0.78-2.35-1.12-3.74-1.12c-19.61,0.06-39.22,0.08-58.84,0.12
		c-0.25-1.48,0.28-2.28,1.87-2.2c1.54,0.92,3.24,0.48,4.85,0.48c16.38,0.04,32.76,0.04,49.14,0c1.62,0,3.31,0.41,4.87-0.45
		C527.68,512.56,527.35,514.17,527.16,515.69z"/>
	<path class="st93" d="M525.31,512.53c-0.97,1.29-2.38,0.92-3.66,0.92c-17.19,0.02-34.38,0.02-51.57,0c-1.27,0-2.69,0.35-3.64-0.96
		C486.07,512.51,505.69,512.52,525.31,512.53z"/>
	<path class="st1" d="M396.35,578.36c0.02,10.69,0.04,21.38,0.06,32.06c-1.58-1.27-0.96-3.05-0.97-4.62
		c-0.05-7.6-0.05-15.21,0.03-22.81C395.49,581.44,394.75,579.65,396.35,578.36z"/>
	<path class="st4" d="M385.55,456.38c1.56-1.47,3.49-0.81,5.24-0.81c47.09-0.04,94.18-0.04,141.27,0c1.75,0,3.69-0.66,5.24,0.81
		c-37.61,0.05-75.21,0.12-112.82,0.15C411.5,456.53,398.52,456.43,385.55,456.38z"/>
	<path class="st94" d="M200.1,627.89c1.42,1.66,2.74,2.8,3.55,4.23c1.45,2.56-0.95,3.88-2.2,5.51c-1.37,1.79-1.79,0.21-2.33-0.73
		c-0.67-1.16-3.3-0.21-2.79-2.61c-1.96,0.1-3.11-1.53-2-2.54C195.89,630.34,198.89,630.94,200.1,627.89z"/>
	<path class="st95" d="M792.11,446.54c4.48,0,8.95-0.08,13.43,0.04c1.48,0.04,4.02-0.77,3.99,1.36c-0.01,0.89-1.71,3.51-4.59,3.39
		c-6.95-0.3-13.92-0.1-20.89-0.1c-2.15,0-4.31-0.13-6.45,0.02c-2.47,0.17-2.68-1.54-2.77-3.19c-0.14-2.33,1.78-1.45,2.86-1.47
		C782.49,446.49,787.3,446.54,792.11,446.54z"/>
	<path class="st96" d="M809.98,441.35c-1.59,2.45-3.86,3.25-6.73,3.21c-7.96-0.11-15.92-0.03-23.89-0.05
		c-0.99,0-2.26,0.26-2.92-0.23c-1.47-1.12-4.15-1.7-3.83-3.95c0.34-2.35,2.82-1.82,4.56-1.83c9.62-0.05,19.24-0.04,28.86,0.01
		c1.41,0.01,3.06-0.48,4.03,1.17c-6.17,1.73-12.47,0.58-18.71,0.84c-3.74,0.16-7.5,0.02-11.24,0.04c8.92-0.03,17.84,0.03,26.76-0.03
		C807.99,440.52,809.22,440.05,809.98,441.35z"/>
	<path class="st97" d="M807.11,459.4c-10.05,0.04-20.11,0.11-30.16,0.11c-2.16,0-5.38,0.39-2.03-3.21
		c4.67-1.55,9.48-0.57,14.22-0.72c5.11-0.17,10.23-0.18,15.34,0.03C807.91,455.75,808.29,456.48,807.11,459.4z"/>
	<path class="st98" d="M807.11,459.4c1.18-3.96-1.97-2.81-3.63-2.84c-9.52-0.18-19.04-0.19-28.56-0.26
		c-0.23-0.62-1.98-1.66,0.3-1.67c10.77-0.07,21.55-0.04,32.32-0.06c1.92,0,2.58,1.04,2.62,2.82
		C810.2,459.76,808.63,459.49,807.11,459.4z"/>
	<path class="st99" d="M809.98,441.35c-11.67,0-23.34,0-35,0c0-0.56-0.01-1.12-0.01-1.68c11.7,0,23.4,0,35.1,0
		C810.04,440.23,810.01,440.79,809.98,441.35z"/>
	<path class="st100" d="M732.7,643.35c-1.11,4.98-0.52,10.02-0.44,15.03c-0.49,0.03-1.23,0.29-1.43,0.06
		c-2.9-3.26-1.38-7.23-1.54-10.9C729.19,645.47,729.55,643.1,732.7,643.35z"/>
	<path class="st101" d="M757.18,658.38c0-5.02,0-10.04,0-15.05c6.55,1.68,1.94,6.78,2.85,10.15
		C760.39,654.77,762.07,659.12,757.18,658.38z"/>
	<path class="st7" d="M754.19,663.74c0.54-2.07-1.86-5.8,3.05-5.42C757.42,660.8,758.12,663.57,754.19,663.74z"/>
	<path class="st7" d="M744.9,643.2c5.25,0,9.35,3.41,9.29,7.73c-0.06,3.71-5.52,9.94-8.81,10.04c-4.14,0.12-9.97-5.54-9.8-9.5
		C735.82,646,738.97,643.2,744.9,643.2z"/>
</g>
</svg>
