<?xml version="1.0" encoding="utf-8"?>
<!-- Generator: Adobe Illustrator 24.1.0, SVG Export Plug-In . SVG Version: 6.00 Build 0)  -->
<svg version="1.1" id="Layer_1" xmlns="http://www.w3.org/2000/svg" xmlns:xlink="http://www.w3.org/1999/xlink" x="0px" y="0px"
	 viewBox="0 0 708.66 708.66" style="enable-background:new 0 0 708.66 708.66;" xml:space="preserve">
<style type="text/css">
	.st0{fill:#FDD57F;}
	.st1{fill:#D9D7D5;}
	.st2{fill:#475059;}
	.st3{fill:#353F4A;}
	.st4{fill:#F1F1F1;}
	.st5{fill:#92D2D8;}
	.st6{fill:#FEFDFD;}
	.st7{fill:#474F58;}
	.st8{fill:#FE9878;}
	.st9{fill:#FEFEFD;}
	.st10{fill:#FEFEFE;}
	.st11{fill:#CCC9C7;}
	.st12{fill:#F48460;}
	.st13{fill:#EC6D46;}
	.st14{fill:#EBEBEB;}
	.st15{fill:#E4E4E4;}
	.st16{fill:#F6EFF5;}
	.st17{fill:#F1F1F4;}
	.st18{fill:#EDEDEC;}
	.st19{fill:#EEEDED;}
	.st20{fill:#E0DED3;}
	.st21{fill:#FDFDFB;}
	.st22{fill:#525960;}
	.st23{fill:#FDFDFC;}
	.st24{fill:#6E716F;}
	.st25{fill:#CCD0D3;}
	.st26{fill:#9BA1A5;}
	.st27{fill:#9BA0A2;}
	.st28{fill:#9DA2A4;}
	.st29{fill:#CACED3;}
	.st30{fill:#CACFD3;}
	.st31{fill:#C8CED3;}
	.st32{fill:#F9FDFA;}
	.st33{fill:#F9FDFB;}
	.st34{fill:#CDCFD1;}
	.st35{fill:#D0CDC9;}
	.st36{fill:#9EA3A5;}
	.st37{fill:#E1D1AF;}
	.st38{fill:#D7D7D7;}
	.st39{fill:#FDFDFD;}
	.st40{fill:#FCFCFC;}
	.st41{fill:#ECEBEB;}
	.st42{fill:#C3ECF0;}
	.st43{fill:#AAE0E3;}
	.st44{fill:#2F373F;}
	.st45{fill:#ABDFE3;}
	.st46{fill:#36404A;}
	.st47{fill:#434A52;}
	.st48{fill:#F58360;}
	.st49{fill:#6B9EA6;}
	.st50{fill:#ECC97D;}
	.st51{fill:#CDCECC;}
	.st52{fill:#C4ECF2;}
	.st53{fill:#EC6D47;}
	.st54{fill:#FCFDFC;}
	.st55{fill:#FDFEFD;}
	.st56{fill:#7698A2;}
	.st57{fill:#454F5D;}
	.st58{fill:#4A4E54;}
	.st59{fill:#CBCAC9;}
	.st60{fill:#CCCBCA;}
	.st61{fill:#D8D8D8;}
	.st62{fill:#C6C8CB;}
	.st63{fill:#90D2D8;}
	.st64{fill:#C0ECEB;}
	.st65{fill:#EF8869;}
	.st66{fill:#7B9BA4;}
	.st67{fill:#7799A0;}
	.st68{fill:#43525D;}
	.st69{fill:#485662;}
	.st70{fill:#FE9978;}
	.st71{fill:#474F59;}
	.st72{fill:#CCCACA;}
	.st73{fill:#CAC9C7;}
	.st74{fill:#CFCECD;}
	.st75{fill:#D8D7D6;}
	.st76{fill:#9D9EA1;}
	.st77{fill:#9C9D9F;}
	.st78{fill:#FCFCFD;}
	.st79{fill:#CCCAC9;}
	.st80{fill:#98D5DA;}
	.st81{fill:#97D4DA;}
	.st82{fill:#97D5DA;}
	.st83{fill:#75767A;}
	.st84{fill:#AAAAAC;}
	.st85{fill:#FDD580;}
	.st86{fill:#CBCAC8;}
	.st87{fill:#45505A;}
	.st88{fill:#D4D3D3;}
	.st89{fill:#D4D3D2;}
	.st90{fill:#CFCDCB;}
	.st91{fill:#494F55;}
	.st92{fill:#FEFCF9;}
	.st93{fill:#D2D2D1;}
	.st94{fill:#FBFBFB;}
	.st95{fill:#D4D4D3;}
	.st96{fill:#CECECE;}
	.st97{fill:#D0CFCF;}
	.st98{fill:#CBC9C9;}
	.st99{fill:#CCCAC8;}
	.st100{fill:#FEC86C;}
	.st101{fill:#FEC76C;}
	.st102{fill:#A1D9DD;}
	.st103{fill:#D2D0D0;}
	.st104{fill:#FDCE7F;}
	.st105{fill:#D2D0CF;}
	.st106{fill:#98D3DA;}
	.st107{fill:#B0B1B3;}
	.st108{fill:#A7A9AB;}
	.st109{fill:#62656A;}
	.st110{fill:#A5A7A9;}
	.st111{fill:#52565A;}
	.st112{fill:#91D2D8;}
	.st113{fill:#93D2D9;}
	.st114{fill:#BDEDED;}
	.st115{fill:#FEFDFE;}
	.st116{fill:#FCFDFD;}
	.st117{fill:#FEFEFC;}
	.st118{fill:#485059;}
	.st119{fill:#FDC369;}
	.st120{fill:#FCC264;}
	.st121{fill:#9ED7DB;}
	.st122{fill:#ABE0E3;}
	.st123{fill:#F0F9F9;}
	.st124{fill:#C4ECF1;}
	.st125{fill:#C4ECEF;}
	.st126{fill:#F6F6F6;}
	.st127{fill:#FCA48C;}
</style>
<g>
	<g>
		<path class="st0" d="M477.88,647.46c-12.06,4.32-24.12,8.64-36.19,12.96c-1.35,0.06-2.76-0.12-3.83,0.99
			c-7.02,1.67-14.04,3.34-21.05,5.01c-6.29,1.05-12.58,2.1-18.87,3.15c-6.68,0.7-13.35,1.4-20.03,2.1
			c-6.65,0.32-13.3,0.65-19.94,0.97c-6.67-0.03-13.35-0.05-20.02-0.08c-5.93-0.73-11.88-1.29-17.86-1.15
			c-7.37-0.97-14.74-1.94-22.11-2.92c-6.48-2.26-13.38-2.4-19.99-4.02c-6.68-1.9-13.36-3.8-20.03-5.7
			c-0.64-0.09-1.27-0.19-1.91-0.29c-6.19-1.04-12.1-3.03-18-5.09c-6.26-2.89-12.88-4.91-19.08-7.94c-4.32-2.52-9.25-3.79-13.46-6.54
			c-2.42-0.94-4.58-2.38-6.83-3.63c-6.85-4.09-14.06-7.56-20.74-11.95c-2.02-1.51-4.14-2.88-6.27-4.24
			c-4.55-3.47-9.44-6.46-14.04-9.86c-3.89-3.46-8.14-6.48-12.09-9.86c-3.63-2.3-6.12-5.95-9.77-8.23
			c-4.28-3.74-8.09-7.97-12.19-11.89c-2.01-2.12-4.09-4.17-6.19-6.19c-4.73-4.26-8.5-9.41-12.9-13.97
			c-2.08-3.26-5.08-5.77-7.22-8.99c-2.71-3.65-5.49-7.25-8.22-10.9c-4.18-5.49-7.67-11.43-11.49-17.16
			c-0.72-1.18-1.51-2.32-2.27-3.48c-3.39-6.72-7.82-12.86-10.96-19.72c-1.98-4.3-4.24-8.46-6.34-12.7c-1.47-2.75-2.27-5.8-3.82-8.52
			c-2.86-6.09-4.94-12.48-7.24-18.78c-2.86-6.54-4.36-13.53-6.71-20.23c-0.79-3.51-1.76-6.97-2.58-10.47
			c-0.89-3.29-1.63-6.62-2.57-9.91c-1.23-6.52-2.76-12.98-3.42-19.59c-1.39-7.04-1.62-14.22-2.66-21.3
			c-1-6.25,0.28-12.62-1.04-18.85c-0.63-6.48-0.54-12.97-0.13-19.46c1.31-5.27,0.33-10.72,1.18-16.02c0.88-7.97,1.6-15.97,2.86-23.9
			c1.23-6.71,2.44-13.42,3.88-20.09c0.46-2.57,1.54-4.99,1.96-7.57c0.75-4.3,2.77-8.27,3.3-12.63c2.04-6.8,4.38-13.5,6.78-20.18
			c2.13-6.07,4.48-12.05,7.32-17.82c1.01-2.18,1.79-4.46,2.9-6.59c3.04-5.14,4.49-11.07,7.93-16.02c3.6-6.75,7.41-13.39,11.46-19.89
			c2.26-5.02,5.9-9.13,9.07-13.53c1.08-1.5,2.84-4.08,4.7-0.37c0.68,9.3,0.23,18.61,0.29,27.91c0.08,14.29,0.08,28.58-0.01,42.88
			c-0.04,5.83-1.16,6.9-7.06,7.12c-4.48,0.17-8.98-0.1-13.46,0.13c-5.21,0.26-6.17,1.17-6.22,6.25c-0.1,11.13,0.02,22.27-0.06,33.4
			c-0.02,3.59,1.38,5.15,5,5.07c4.65-0.1,9.31-0.08,13.96,0.01c6.88,0.14,7.82,1.05,7.85,7.81c0.05,13.3,0,26.59,0.03,39.89
			c0,2.15-0.2,4.32,0.33,6.44c0.51,4.46,1.34,8.7,6.86,9.61c2.31,0.61,4.65,0.35,6.97,0.35c34.48,0.02,68.95,0.01,103.43,0.03
			c2.48,0,5.01-0.33,7.41,0.65c0.57,0.3,1,0.74,1.3,1.31c1.32,12.59,1.64,25.28-0.05,37.77c-1.61,11.82-12.16,20.08-24.68,21.02
			c-1.99,0.15-3.98,0.07-5.98,0.09c29.83,0.07,59.66-0.13,89.48,0.09c12.02,1.04,24.88-8.28,24.96-25.13
			c0.04-9.47-0.05-18.94,0.06-28.41c0.03-2.41-0.48-5.09,2.06-6.8c1.92-0.79,3.94-0.6,5.92-0.61c27.79-0.02,55.58-0.03,83.37,0
			c7.78,0.01,8.59,0.8,8.63,8.57c0.06,11.64,0.04,23.29,0,34.94c-0.01,2.31,0.14,4.69-1.27,6.75c-2.36,2.14-5.3,1.68-8.08,1.68
			c-21.97,0.05-43.95-0.1-65.92,0.03c-1.33,0.01-2.68-0.12-3.99,0.03c-2,0.23-5.02-0.93-5.56,1.79c-0.47,2.37,1.84,4.07,3.9,5.31
			c3.02,1.82,6.39,1.65,9.71,1.66c31.96,0.02,63.93,0,95.89,0.01c30.13,0.01,60.26-0.06,90.39,0.02
			c26.15,0.07,52.29-0.02,78.44,0.01c6.33,0.01,12.66,0.05,18.99-0.02c8.92-0.1,11.6-2.17,14.25-10.87
			c0.11-45.32,0.02-90.65,0.04-135.97c0-2.88-0.39-5.62-2.55-7.78c-1.5-1.33-3.3-1.29-5.14-1.11
			c-59.26,0.08-118.51,0.02-177.77,0.03c-2.64,0-5.35,0.32-7.81-1.1c-2.34-2.49-1.69-5.63-1.7-8.55
			c-0.05-33.98-0.03-67.95-0.04-101.93c0-2.33,0.11-4.67-0.23-6.99c-0.77-5.26-3.47-7.59-9.07-7.84
			c-12.15,0.56-24.3,0.44-36.46,0.28c-2.45-0.03-5.03-0.04-7.1-1.82c-1.38-2.3-0.9-4.85-0.95-7.31
			c-0.22-11.13,0.47-22.29-0.79-33.39c-0.07-0.33-0.15-0.65-0.18-0.98c-0.7-9.25-0.7-9.25-9.88-9.25c-51.79,0-103.59,0-155.38-0.01
			c-2.82,0-5.67,0.2-8.45-0.41c-1.61-0.31-3.09-2.96-4.92-0.29c-5.3,0.9-10.59,0.88-15.88,0.06c-0.51-0.2-0.93-0.52-1.27-0.95
			c-0.31-1.89,1.11-2.65,2.39-3.32c4.23-2.25,8.14-5.04,12.41-7.2c0.88-0.34,1.81-0.4,2.73-0.35c1.24,0.11,1.88-0.72,2.5-1.61
			c2.15-2.23,5.1-3.1,7.69-4.59c2.59-1.2,5.09-2.58,7.68-3.77c6.77-2.35,13.08-5.83,19.86-8.18c7.96-2.99,16.05-5.57,24.16-8.13
			c16.08-4.31,27.04-6.67,41.49-9.04c1.8-0.3,3.84-0.69,5.66-0.86c1.87-0.17,1.71-0.12,4.6-0.29c3.02-0.17,5.42-0.44,9.24-0.57
			c6.66-0.41,8.05,0.19,14.71-0.22c8.34,0,16.69,0.01,25.03,0.01c3.63,0.07,7.27,0.15,10.9,0.23c8.03,0.91,16.06,1.82,24.1,2.73
			c6.65,1.08,13.3,2.16,19.95,3.25c6.67,1.63,13.34,3.26,20.02,4.9c0.28,0.12,0.56,0.16,0.86,0.13c6.55,0.9,12.85,2.76,19.05,4.99
			c6.04,2.31,12.24,4.23,18.13,6.95c5.33,2.31,10.81,4.26,15.91,7.07c2.04,1.18,4.17,2.19,6.31,3.18
			c6.77,3.32,13.16,7.32,19.78,10.89c3.43,1.92,6.52,4.42,10.07,6.14c3.44,2.26,6.53,5.02,10.13,7.05
			c5.72,4.19,11.48,8.33,16.99,12.79c1.1,1.12,2.21,2.23,3.58,3.05c7.1,5.13,12.73,11.94,19.68,17.24
			c11.98,12.74,24.07,25.4,34.11,39.81c2.13,2.69,3.82,5.69,6.05,8.31c2.78,4.05,5.58,8.09,8.13,12.29
			c7.91,12.85,15,26.14,21.23,39.89c3.79,8.97,7.54,17.95,10.77,27.14c1.41,4.36,2.85,8.7,4.1,13.11c2.04,6.55,3.52,13.24,5.2,19.88
			c1.57,6.69,2.79,13.44,3.99,20.2c0.85,7.9,2.05,15.75,2.8,23.65c0.54,2.78,0.41,5.59,0.42,8.39c-0.08,2.41-0.28,4.82,0.22,7.21
			c0.1,0.54,0.15,1.08,0.17,1.63c0.56,6.39,1.03,12.77,0.2,19.18c-1.15,6.06,0.08,12.24-0.91,18.3c-1.08,7.05-1.2,14.21-2.64,21.21
			c-0.65,6.36-2.36,12.52-3.42,18.81c-1.56,7.03-3.26,14.03-5.04,21c-2.03,5.28-3.15,10.85-5.03,16.18
			c-2.78,7.77-5.86,15.44-9,23.07c-3.09,7.06-6.5,13.97-9.98,20.85c-0.43,0.84-0.86,1.68-1.29,2.53
			c-3.14,6.55-6.99,12.68-10.86,18.81c-2.72,4.06-5.07,8.36-7.95,12.31c-6.11,9.31-13.18,17.89-20.01,26.66
			c-0.76,0.88-1.59,1.69-2.4,2.52c-4.88,5.87-10.19,11.34-15.66,16.66c-1.48,1.4-2.92,2.83-4.32,4.31
			c-5.47,5.76-11.42,10.99-17.55,16.02c-0.94,0.61-1.8,1.32-2.61,2.11c-6.35,5.22-12.92,10.15-19.53,15.03
			c-2.03,1.45-4.32,2.5-6.32,3.99c-4,3.2-8.52,5.57-12.86,8.25c-6.68,3.96-13.2,8.21-20.62,10.75c0,0-0.05-0.04-0.05-0.04
			C491.01,641.17,484.29,643.98,477.88,647.46z"/>
	</g>
	<path class="st1" d="M268.54,449.21c38.3,0,76.61,0,114.91,0.01c7.2,0,7.37,0.18,7.37,7.18c0,29.14-0.1,58.28,0.1,87.41
		c0.03,4.3-1.18,6.3-5.46,5.83c-8.63-0.94-17.19,0.87-25.82,0.43c-6.79-0.35-13.62-0.69-20.4-0.74
		c-36.91-0.28-73.84-0.44-110.75,0.01c-15.44,0.19-30.86-0.74-46.3-0.17c-10.4,0.38-20.82,0.45-31.22,0.88
		c-4.44,0.18-6.03-1.99-6.03-5.96c-0.01-29.64,0.01-59.27-0.02-88.91c0-5.4,3.39-6.01,7.7-6
		C191.26,449.23,229.9,449.2,268.54,449.21z"/>
	<path class="st2" d="M436.19,252.32c28.6,0.05,57.21,0.11,85.81,0.16c33.6,0.06,67.19,0.1,100.79,0.15
		c1.26,0.44,2.55,0.8,3.65,1.61c1.3,1.34,1.9,2.97,2.07,4.79c0.22,44.93,0.08,89.86,0.07,134.79c0,6.02-1.45,7.21-8.02,7.17
		c-33.61-0.21-67.23,0.12-100.84-0.13c-36.78-0.27-73.57-0.05-110.35-0.08c-2.47,0-5.01,0.37-7.39-0.72
		c-0.25-0.22-0.5-0.45-0.75-0.67c-0.03-14.97-0.1-29.93-0.04-44.9c0.01-2.72-0.29-4.25-3.67-4.23c-31.1,0.17-62.2,0.19-93.3,0.26
		c-1.92,1.73-4.32,1.49-6.61,1.5c-24.02,0.04-48.04,0.04-72.05,0c-2.46,0-5.01,0.18-7.13-1.53c-38.19-0.06-76.37-0.1-114.56-0.2
		c-1.92-0.01-3.99,0.67-5.78-0.69c2.26-2.41,5.25-1.77,8-1.78c38.98-0.06,77.96-0.03,116.94-0.04c55.47,0,110.94,0,166.42,0
		c10.58,0,10.58-0.01,10.12-10.5c-0.05-1.16-0.18-2.33-0.16-3.49c0.7-20.97,0.12-41.94,0.3-62.91c0.02-2.33-0.01-4.66,0.01-6.99
		c0.09-9.99,3.19-12.98,13.31-12.88c5.62-0.11,11.25-0.17,16.87,0.03C432.08,251.08,434.33,250.73,436.19,252.32z"/>
	<path class="st3" d="M400.3,333.4c1.96,4.48,0.68,9.19,0.92,13.79c0.09,1.74-1.18,2.19-2.67,2.19c-1.5,0-2.99,0.01-4.49,0.01
		c-96.33,0-192.65,0-288.98,0.01c-2.33,0-4.65,0.13-6.98,0.2c-5.17-1.08-5.77-5.09-5.99-9.34c-0.37-16.93-0.04-33.86-0.19-50.79
		c-0.02-2.3,0.52-4.1,3.02-4.26c4.92-0.33,9.91-1.33,14.67,0.97c1.56,1.84,1.2,4.08,1.21,6.21c0.04,10.98,0,21.96,0.03,32.94
		c0.01,6.53,0.14,6.67,6.77,6.67c84.21,0.01,168.41-0.01,252.62,0.03c7.82,0,15.64-0.37,23.46-0.21
		C395.99,331.87,398.41,331.58,400.3,333.4z"/>
	<path class="st2" d="M526.95,230.27c-17.65-0.12-35.29-0.19-52.94-0.36c-7.74-0.07-10.87-3.27-10.87-10.96
		c-0.02-36.81-0.03-73.61-0.01-110.42c0-7.67,3.25-11.06,10.89-11.06c18.32-0.01,36.64,0.11,54.97,0.18
		c1.66,0.64,3.49,0.95,4.69,2.45c2.41,2.2,3.04,5.04,3.04,8.15c0.01,36.94,0.02,73.88-0.02,110.82c0,3.61-0.73,6.98-4.05,9.15
		C530.96,229.45,529.04,230.09,526.95,230.27z"/>
	<path class="st4" d="M218.44,350.49c28.6,0.01,57.2,0.02,85.79,0.03c0.02,11.96,0.14,23.92,0.02,35.88
		c-0.14,14.68-11.42,25.39-25.91,24.84c-7.55-6.03-13.9-13.31-20.72-20.09c-12.47-12.4-24.91-24.84-37.31-37.31
		c-0.72-0.72-1.32-1.48-1.78-2.38C218.46,351.14,218.43,350.82,218.44,350.49z"/>
	<path class="st3" d="M430.37,252.45c-5.73,0-11.45,0-17.18,0c-1.97-2.45-1.48-5.37-1.48-8.15c-0.04-29.42-0.02-58.85-0.02-88.27
		c0-1.66,0.04-3.33-0.02-4.99c-0.17-5.21-0.65-5.75-5.75-5.85c-5.65-0.11-11.31,0-16.96-0.05c-2.15-0.02-4.34,0.11-6.34-0.98
		c-3.24-5.25-1.31-10.94-1.38-16.46c0.19-0.62,0.53-1.14,1-1.58c14.31,0.39,28.63-0.63,42.93,0.56c3.9,0.13,5.4,2.79,6.26,6.03
		c0.6,2.27,0.46,4.62,0.46,6.94c0.01,34.89,0.02,69.77-0.02,104.66C431.87,247.09,432.36,250.02,430.37,252.45z"/>
	<path class="st5" d="M184.48,73.35c5.92-0.01,11.84-0.01,17.76-0.02c0.17,0.07,0.35,0.15,0.51,0.21c0.26,0.23,0.57,0.3,0.91,0.18
		c0.25-0.21,0.54-0.34,0.86-0.38c37.29,0.06,74.58,0.13,111.87,0.17c19.81,0.02,39.62,0.15,59.43-0.09c4.83-0.06,6.8,1.17,5.74,6.16
		c-0.41,1.92-0.15,3.98-0.2,5.97c-1.69,1.8-3.92,1.51-6.05,1.53c-16.06,0.16-32.12-0.07-48.18,0.01c-2.32,0.01-4.65-0.09-6.8,1.02
		c-4.7-1.37-9.52-1.01-14.31-1.01c-29.14-0.02-58.28-0.02-87.43,0.01c-3.77,0-7.1-0.09-9.26-4.22c-1.38-2.64-4.75-1.81-7.34-1.79
		c-13.49,0.13-26.97,0.18-40.46-0.02c-7.04-0.33-14.18,1.27-21.12-1.09c-1.01-1.03-1.28-2.31-1.21-3.7c0.16-2.63,1.8-3.94,4.2-4.03
		c13.09-0.47,26.19-0.13,39.28,0.24C183.34,72.52,183.93,72.97,184.48,73.35z"/>
	<path class="st3" d="M441.89,465.32c6.26-1.71,12.63-0.5,18.94-0.68c1.1,1.7,1.1,1.7,2.03-0.05c3.81-0.02,7.61-0.03,11.42-0.05
		c1.87,1.34,0.73,3.43,1.27,5.22c0.06-1.81-0.72-3.56,0.46-5.14c1.59,0.01,3.18,0.01,4.76,0.02c0.77,0.76,1.53,0.72,2.3,0
		c1.58-0.01,3.15-0.01,4.73-0.02c1.35,1.57-0.04,3.71,1.22,5.92c0.01,0.06,0.38-1.09-0.13-0.66c-0.57-1.79-1.05-3.56,0.38-5.2
		c3.99-0.04,7.99-0.08,11.98-0.12c1.91,1.32,0.74,3.44,1.35,5.35c0.04,0.42,0.72-0.72,0.18-0.32c-0.53-1.68-0.77-3.34,0.24-4.95
		c1.58,0,3.17,0,4.75,0.01c0.79,2.91,1.39-0.34,2.1-0.07c1.66,0.01,3.32,0.02,4.98,0.03c1.43,1.64-0.39,4.02,0.84,5.41
		c-0.38-1.66-0.81-3.52,0.44-5.37c3.87,0,7.74,0,11.62,0.01c1.14,1.67,1.14,1.67,2.3,0.01c3.92-0.02,7.84-0.03,11.77-0.05
		c1.09,1.98,0.33,4.1,0.51,5.84c0.54-1.69-0.61-3.89,0.62-5.83c3.93,0.02,7.85,0.03,11.78,0.05c1.15,1.66,1.15,1.66,2.3,0
		c3.73-0.04,7.45-0.07,11.18-0.11c1.92,1.32,0.73,3.45,1.36,5.36c0.04,0.41,0.72-0.71,0.18-0.32c-0.57-1.68-0.74-3.34,0.21-4.96
		c1.6,0,3.19,0.01,4.79,0.01c0.75,0.75,1.5,0.76,2.24,0c1.6,0,3.19-0.01,4.79-0.01c1.14,1.59,0.42,3.33,0.45,5.13
		c0.55-1.77-0.6-3.87,1.27-5.2c3.9,0,7.8-0.01,11.7-0.01c1.9,1.33,0.74,3.44,1.3,5.23c0.05-1.81-0.74-3.57,0.46-5.15
		c4.58-1,6.6,0.52,5.96,5.47c-0.43,3.37-0.19,6.82-0.26,10.23c-1.87,1.85-4.29,1.61-6.59,1.62c-44.61,0.04-89.23,0.04-133.84,0.01
		c-2,0-4-0.05-5.9-0.76c-3.14-3.15-6.28-2.88-9.4,0.07c-3.98,0.64-6.04-0.68-5.54-5.07C441.82,472.59,440.94,468.91,441.89,465.32z"
		/>
	<path class="st6" d="M518.29,411.28c-63.76,0.03-127.52,0.05-191.28,0.11c-3.21,0-5.95-1.08-8.14-3.19
		c-2.02-1.94-4.34-4.39-3.26-7.35c1.03-2.83,4.12-1.29,6.22-1.3c26.47-0.14,52.93-0.13,79.4-0.16c0,0,0.09,0.04,0.09,0.04
		c1.74,0.88,3.6,0.44,5.39,0.44c38.07,0.03,76.13-0.01,114.2,0.11c2.16,0.01,5.23-1.66,6.51,1.56c0.99,2.49-2.34,7.6-5.29,8.81
		C520.89,410.86,519.49,410.65,518.29,411.28z"/>
	<path class="st7" d="M454.98,479.34c1.79,1.18,3.81,1,5.8,1c47.29-0.01,94.59-0.01,141.88-0.02c0.83,14.15,0.83,14.15-13.33,14.15
		c-47.55,0-95.09-0.08-142.64,0.14c-4.66,0.02-5.55-1.37-5.23-5.55c0.6-7.89-1.25-15.85,0.41-23.74c0.03,2.93,0.48,5.92,0.01,8.77
		c-0.85,5.17,1.52,6.64,6.09,6.25C450.51,481.38,452.92,481.57,454.98,479.34z"/>
	<path class="st8" d="M109.2,286.77c-4.15-0.06-8.31,0.09-12.44-0.24c-3.52-0.28-4.52,0.95-4.48,4.43
		c0.18,14.61,0.08,29.22,0.06,43.83c0,1.82-0.15,3.64-0.23,5.46c-1.37-3.2-0.57-6.55-0.6-9.82c-0.11-12.97-0.17-25.94,0.03-38.91
		c0.06-3.8-0.84-5.38-4.97-5.14c-5.97,0.35-11.97-0.01-17.96,0.13c-2.83,0.07-4.24-0.6-4.21-3.84c0.14-13.13,0.18-26.27-0.01-39.41
		c-0.06-4.24,2.69-4.56,5.48-4.66c5.65-0.21,11.31-0.22,16.96-0.02c3.29,0.11,4.72-0.7,4.69-4.38c-0.18-24.61-0.15-49.22-0.19-73.82
		c0.57-1.57,1.2-0.84,1.84-0.05c1.06,2.36,0.77,4.88,0.78,7.35c0.03,20.22,0.01,40.45,0.02,60.67c0,9.77,0.21,9.96,10.15,9.48
		c1.16-0.05,2.31-0.21,3.47-0.15c1.58,0.54,3.32-0.22,4.89,0.53c0.41,0.4,0.7,0.88,0.89,1.43c0.4,1.4,0.36,2.84,0.42,4.28
		c0.03,0.6,0.03,1.19,0.03,1.79c-0.17,13.01,0.36,26.02-0.28,39.02c-0.26,0.95-0.73,1.73-1.62,2.21
		C110.99,287.31,110.08,287.22,109.2,286.77z"/>
	<path class="st9" d="M218.53,351.46c5.22,2.05,7.97,6.96,11.74,10.59c12.17,11.7,23.84,23.92,35.68,35.97
		c4.23,4.31,9.38,7.76,12.39,13.22c-30.73,0.04-61.47,0.09-92.2,0.08c-1.13,0-3.16,0.82-3.22-1.12c-0.06-1.96,1.96-1.89,3.43-1.89
		c6.31,0.02,12.53,0.13,18.45-2.91c8.89-4.56,13.24-11.85,13.51-21.56C218.6,373.06,218.47,362.26,218.53,351.46z"/>
	<path class="st4" d="M390.35,450.95c2.5-0.02,7.49,1.06,9.99,1.13c8.08,0.25,15.36,7.25,15.44,15.39
		c0.18,17.48,0.17,34.97,0.02,52.46c-0.07,7.58-3.96,13.07-11.06,15.62c-7.16,2.57-6.89,2.26-14.68,1.68
		c0.23-0.25-0.21,3.2-0.09-1.67c-0.07-7.47,0-2.86,0-10.56c0-14.15,0.33-28.26,0.35-42.41c0-2.33-0.13-4.67,0.41-6.95
		c0.14-6.97,0.08-0.64,0.08-9.94C390.63,460.93,390.55,455.52,390.35,450.95z"/>
	<path class="st10" d="M146.24,474.59c0,18.37,0.01,36.74,0.01,55.1c0,6.65,0,6.65-6.67,6.71c-0.83,0.01-1.65,0.06-2.48,0.09
		c-8.3-1.02-14.58-7.44-14.71-16.07c-0.27-17.24-0.31-34.5,0-51.74c0.18-10.01,8.44-16.95,18.51-16.43
		c1.49,0.08,2.98,0.08,4.48,0.12c1.78,4.08,0.5,8.37,0.85,12.53C146.04,468.29,146.04,468.29,146.24,474.59z"/>
	<path class="st11" d="M518.29,411.28c3.87-1.56,6.73-4.08,7.96-8.2c0.52-1.75,0.4-2.94-1.91-2.74c-1.16,0.1-2.33,0.01-3.49,0.01
		c-37.94,0-75.88,0.01-113.82-0.04c-1.9,0-4.02,0.77-5.7-0.87c71.87,0.03,143.74,0.06,215.61,0.09c10.47,0,10.47,0,10.47-10.33
		c-0.01-43.91-0.02-87.82-0.04-131.73c3.25,1.48,2.27,4.46,2.28,6.92c0.08,24.79,0.04,49.58,0.05,74.36
		c0,18.13-0.02,36.27,0.02,54.4c0,2.11-0.5,4.38,1.24,6.16c-1.7,9.02-5.2,12.07-14.01,12.06
		C584.06,411.35,551.17,411.31,518.29,411.28z"/>
	<path class="st12" d="M455.88,513.34c1.52-1.52,3.46-0.9,5.21-0.9c42.18-0.03,84.36-0.03,126.54,0c1.76,0,3.68-0.61,5.24,0.84
		c1.39,2.51,1.49,5-0.1,7.47c-2.25,1.43-4.8,1.17-7.27,1.18c-40.71,0.03-81.42,0.03-122.13,0c-2.47,0-5.01,0.24-7.29-1.12
		C454.01,518.38,454.15,515.88,455.88,513.34z"/>
	<path class="st13" d="M456.08,520.35c45.54,0,91.08,0,136.62,0c1.77,2.27,1.49,4.6,0.18,6.96c-45.68-0.01-91.36-0.02-137.04-0.03
		C454.24,524.91,454.03,522.59,456.08,520.35z"/>
	<path class="st14" d="M430.37,252.45c-0.03-38.49-0.12-76.98-0.04-115.47c0.01-4.51-1.05-8.06-5.16-10.3
		c5.09-1.34,8.95,0.78,10.5,5.91c0.42,1.4,0.54,2.94,0.54,4.41c0.01,38.44-0.01,76.88-0.02,115.31
		C434.25,252.36,432.31,252.41,430.37,252.45z"/>
	<path class="st15" d="M320.27,87.46c0.69-3.04,3.17-1.85,4.89-1.86c18.74-0.09,37.47-0.06,56.21-0.06c1.39,1.57,0.79,3.49,0.8,5.25
		c0.07,11.77,0.06,23.55,0.07,35.33c0.01,0.28-0.13,0.43-0.4,0.44c-0.65-0.17-1.11-0.56-1.38-1.17c-1.44-6.39-0.48-12.86-0.68-19.3
		c-0.21-6.57-0.41-6.92-7.15-6.94c-14.91-0.04-29.83,0.01-44.74-0.03c-2.46-0.01-5,0.27-7.29-1.02c-1.09-0.91-1.19-2.06-0.79-3.32
		c1.27-2.13,3.37-1.74,5.33-1.72c9.28,0.11,18.56,0.06,27.84,0.02c1.9-0.01,3.99,0.45,5.8-1.48c-1.42-1.93-3.5-1.53-5.3-1.53
		c-9.44,0-18.89-0.16-28.33,0.08c-1.76,0.05-3.68,0.63-5.09-1.07C319.84,88.51,319.92,87.97,320.27,87.46z"/>
	<path class="st16" d="M630.95,399.3c-3.41,0.29-2.61-2.25-2.62-4.07c-0.05-11.63-0.02-23.26-0.02-34.89
		c0-32.4,0.01-64.79-0.03-97.19c0-1.91,0.71-4.02-0.91-5.7c-0.69-1.04-1.38-2.09-2.07-3.13c-0.07-1.6,0.71-1.46,1.73-0.85
		c3.32,1.66,4.05,4.76,4.05,7.98C631.08,307.4,631.01,353.35,630.95,399.3z"/>
	<path class="st17" d="M531.11,228.46c3.16-2.37,4.21-5.5,4.19-9.45c-0.1-36.75-0.09-73.51,0.01-110.26
		c0.01-3.53-0.91-6.46-3.12-9.09c-0.27-0.97,0.04-1.39,1.06-1.14c2.59,1.7,4.55,3.84,5.05,7.04c0.61,1.08,0.41,2.27,0.41,3.42
		c0.01,36.39,0.01,72.77,0,109.16c0,1.15,0.19,2.33-0.38,3.43c-0.22,4.59-2.93,6.99-7.12,8.07c-0.28-0.23-0.39-0.49-0.33-0.75
		C530.95,228.6,531.03,228.46,531.11,228.46z"/>
	<path class="st10" d="M50.27,236.46"/>
	<path class="st18" d="M89.95,150.56c-0.02-4.64-0.15-9.29,0.09-13.94c0.32-1.69-0.22-3.92,2.56-4.04
		c2.65,5.18,1.06,10.72,1.26,16.09c0.14,3.69,0.94,7.65-1.66,11c-0.28,0.24-0.56,0.48-0.85,0.72"/>
	<path class="st19" d="M50.27,236.46"/>
	<path class="st20" d="M538.34,221.56c-0.01-38.67-0.02-77.33-0.03-116c1.33,1.39,0.84,3.14,0.84,4.74c0.02,35.5,0.02,71,0,106.51
		C539.15,218.41,539.65,220.15,538.34,221.56z"/>
	<path class="st21" d="M456.08,520.35c-0.08,2.31-0.16,4.62-0.24,6.93c-3.03-1.1-6.21-1.95-8.29-4.72c-1.16-1.69-1-3.39,0-5.08
		c2.47-2.01,5.25-3.38,8.33-4.13C455.95,515.68,456.01,518.01,456.08,520.35z"/>
	<path class="st22" d="M602.87,519.97c0.14,2.3-0.67,4.27-2.38,5.75c-1.11,0.96-2.43,2.08-4,1.39c-1.54-0.67-0.85-2.32-0.92-3.54
		c-0.11-1.98-0.15-3.99,0.03-5.96c0.14-1.52-1.03-3.83,0.93-4.39c2.25-0.64,4.01,1.08,5.24,3
		C602.49,517.36,602.99,518.58,602.87,519.97z"/>
	<path class="st23" d="M592.88,527.3c-0.06-2.32-0.12-4.64-0.18-6.96c0.06-2.35,0.12-4.71,0.17-7.06c0.32-0.08,0.81-0.33,0.93-0.22
		C595.93,515.23,595.25,525.37,592.88,527.3z"/>
	<path class="st24" d="M447.55,517.47c0,1.69,0,3.38,0,5.07c-2.39,0.62-3.83-0.95-5.83-2.29
		C443.62,518.59,445.48,517.83,447.55,517.47z"/>
	<path class="st25" d="M462.86,464.58c-0.18,2.19-0.37,4.38-0.55,6.58c-0.38,0-0.76-0.01-1.14-0.01c-0.11-2.17-0.22-4.34-0.33-6.51
		C461.51,464.62,462.18,464.6,462.86,464.58z"/>
	<path class="st26" d="M557.03,464.65c-0.49,2.11,0.38,4.46-1.15,7.28c-1.53-2.82-0.66-5.17-1.15-7.28
		C555.49,464.65,556.26,464.65,557.03,464.65z"/>
	<path class="st27" d="M530.05,464.64c-0.48,2.11,0.39,4.46-1.18,7.26c-1.51-2.82-0.65-5.16-1.13-7.27
		C528.51,464.64,529.28,464.64,530.05,464.64z"/>
	<path class="st28" d="M483.06,464.63c-0.41,1.13,0.44,2.69-1.17,3.49c-1.56-0.82-0.76-2.35-1.13-3.49
		C481.53,464.63,482.3,464.63,483.06,464.63z"/>
	<path class="st29" d="M583.5,464.55c-0.23,2.07-0.46,4.15-0.7,6.22c-0.34,0.01-0.68,0.02-1.03,0.03c0-2.06,0-4.12,0-6.18
		C582.35,464.6,582.93,464.57,583.5,464.55z"/>
	<path class="st30" d="M476,464.61c0,2.11,0,4.22,0,6.33c-0.3,0.02-0.6,0.04-0.91,0.06c-0.28-2.16-0.55-4.31-0.83-6.47
		C474.85,464.56,475.43,464.59,476,464.61z"/>
	<path class="st30" d="M596.97,464.62c-0.09,2.11-0.19,4.22-0.3,6.8c-1.88-2.38-0.39-4.88-1.46-6.88
		C595.79,464.56,596.38,464.59,596.97,464.62z"/>
	<path class="st29" d="M569.95,464.62c0,2.1,0,4.21,0,7.47c-2.04-3.07-0.7-5.54-1.75-7.55C568.79,464.57,569.37,464.6,569.95,464.62
		z"/>
	<path class="st31" d="M503.01,464.62c0,2.1,0,4.21,0,7.55c-2.04-3.17-0.78-5.63-1.77-7.64
		C501.83,464.57,502.42,464.6,503.01,464.62z"/>
	<path class="st28" d="M576.99,464.63c-0.34,1.14,0.45,2.66-1.12,3.47c-1.57-0.81-0.78-2.33-1.12-3.47
		C575.49,464.63,576.24,464.63,576.99,464.63z"/>
	<path class="st32" d="M516.13,464.63c0,2.09,0,4.19,0,6.28c-0.43,0.01-0.86,0.02-1.28,0.04c0-2.12,0-4.23,0-6.35
		C515.27,464.61,515.7,464.62,516.13,464.63z"/>
	<path class="st33" d="M542.94,464.6c0,2.06,0,4.12,0,6.18c-0.38,0.01-0.75,0.02-1.13,0.03c0-2.08,0-4.15,0-6.22
		C542.19,464.6,542.57,464.6,542.94,464.6z"/>
	<path class="st34" d="M489.25,464.66c-0.11,2.06-0.22,4.12-0.33,6.18c-0.25,0.01-0.51,0.02-0.76,0.03
		c-0.12-2.09-0.25-4.18-0.37-6.26C488.28,464.63,488.77,464.64,489.25,464.66z"/>
	<path class="st35" d="M627.02,253.48c-0.71,0.01-1.37,0.13-1.73,0.85c-0.83-0.57-1.67-1.13-2.5-1.7
		C624.26,252.62,625.86,251.97,627.02,253.48z"/>
	<path class="st20" d="M533.25,98.52c-0.35,0.38-0.71,0.76-1.06,1.14c-1.07-0.67-2.13-1.35-3.2-2.02
		C530.47,97.62,532.06,97.11,533.25,98.52z"/>
	<path class="st36" d="M509.87,464.57c-0.43,1.13-0.87,2.25-1.64,4.26c-0.22-2.04-0.34-3.12-0.46-4.19
		C508.46,464.61,509.16,464.59,509.87,464.57z"/>
	<path class="st37" d="M531.11,228.46c0.04,0.39,0.07,0.77,0.11,1.16c-1.25,1.31-2.79,0.79-4.26,0.65
		C528.34,229.67,529.72,229.06,531.11,228.46z"/>
	<path class="st38" d="M206.07,486.09c0.33,0.66,0.66,1.32,0.99,1.97c-2.32,1.98-5.01,1.17-7.56,0.88c-1.8-0.2-2.01,0.47-1.5,1.9
		c0.48,1.77,0.49,3.59,0.41,5.39c-0.14,3.05,1.04,4.72,4.28,4.45c1.89-0.16,4.45,0.74,5.34-1.43c1.34-3.28,1.15-6.75-1.08-9.81
		c-0.24-0.48-0.18-0.94,0.12-1.37c1.27-0.07,3.1,0.42,2-2.01c4.33-2.27,8.65-2.26,12.98-0.01c-0.2,2.14-1.78,1.95-3.29,2.04
		c-1.59,0.09-3.33-0.52-4.7,0.85c0.04,2.16,0.5,4.32,0.21,6.46c-0.46,3.39,0.27,5.42,4.3,5.38c4.83-0.05,5.84-0.68,6.14-4.98
		c0.16-2.28-0.4-4.69,1.26-6.69c0.71,0,1.43-0.01,2.14-0.01c1.76,2.1,1.42,4.66,1.39,7.08c-0.04,3.12,1.3,4.47,4.43,4.43
		c2.42-0.03,4.98-0.37,7.08,1.39c1.91-0.42,1.83-0.43,2.04-2.02c0.48-3.62-1.15-7.43,0.99-10.9c1.72,1.92,1.49,4.31,1.4,6.57
		c-0.14,3.51,1.17,5.1,4.86,5.03c3.28-0.06,5.47-0.7,5.33-4.59c-0.06-1.76-0.12-3.67,1.45-5.02c0.66-0.33,1.32-0.67,1.98-1
		c2.69,1.53,1.74,4.33,1.75,6.41c0.02,4.31,2.62,4.17,5.59,4.28c3.33,0.12,5.47-0.67,5.31-4.6c-0.08-2.07-0.46-4.35,1.32-6.08
		c0.65,0,1.31,0,1.96,0c1.88,1.87,1.39,4.3,1.4,6.53c0.01,3.79,2.37,4.05,5.28,4.1c3.14,0.05,5.03-0.84,4.96-4.41
		c-0.05-2.48-0.41-4.9-0.62-7.35c-4.51-1.71-9.59-0.62-14.01-2.8c2.21-2.02,4.95-1.41,7.49-1.35c2.94,0.07,4.11-1.09,4.17-4
		c0.05-2.23-0.79-4.57,0.55-6.7c0.96-0.32,1.93-0.64,2.89-0.95c1.63,1.94,1.43,4.3,1.33,6.55c-0.15,3.49,1.19,5.15,4.83,4.97
		c2.24-0.11,4.6-0.32,6.64,1.07c1.08,4.77-3.37,2.94-5.13,4.33c-3.8,2.26-2.77,5.91-1.93,8.89c0.81,2.89,3.95,1.54,6.12,1.73
		c2.49,0.21,3.63-1.11,3.65-3.59c0.02-2.67,0.16-5.33-1.22-7.77c-1.19-3.4,0.27-7.28-1.91-10.51c-0.31-1.03-0.31-1.99,0.64-2.72
		c0.97-0.99,1.93-1.99,2.9-2.98c1.31,1.48,1.33,3.31,1.43,5.14c0.3,5.92,0.31,5.91,6,6.4c1.64,0.14,3.35,0.06,4.54,1.54
		c0.37,0.97,0.67,1.85-0.94,1.9c-1.39,0.05-2.92-0.43-4.06,0.84c-1.39,1.62-2.77,3.09-2.65,5.6c0.26,5.47,4.03,8,9.09,5.87
		c1.9-0.8,2.05-2.4,2.2-4.09c0.21-2.43-0.48-5.03,1.26-7.2c0.72-0.01,1.44-0.01,2.15-0.02c1.76,2.1,1.42,4.65,1.39,7.07
		c-0.04,3.11,1.27,4.48,4.41,4.44c2.42-0.03,4.98-0.39,7.06,1.42c2.22-3.86,0.85-8.04,0.91-12.06c0.04-2.4-2.33-1.68-3.87-1.91
		c-4.63-0.69-9.43-0.29-13.88-2.11c2.23-1.45,4.75-1.25,7.19-1.12c3.42,0.18,5.35-0.92,5.23-4.67c-0.05-1.46,0.28-2.96,1.46-4.07
		c0.67,0,1.35-0.01,2.02-0.01c1.15,0.93,1.4,2.29,1.34,3.59c-0.19,3.95,1.76,5.06,5.46,5.06c3.78-0.01,4.95-1.7,4.85-5.14
		c-0.05-1.61-0.04-3.36,1.5-4.51c0.9,0.69,1.81,0.69,2.71,0c1.94,1.62,1.49,3.92,1.59,6c0.18,3.68,2.72,3.53,5.28,3.56
		c2.5,0.02,4.66-0.23,4.82-3.52c0.1-2.08-0.33-4.37,1.53-6.04c0.66-0.33,1.33-0.65,1.99-0.98c0.94,5.95,4.11,11.22,5.28,17.1
		c0.19,0.95,0.12,1.97,0.03,2.95c-0.35,4.01,0.67,6.85,5.44,6.76c0.81-0.02,1.59,0.4,2.15,1.07c0,0.71,0.01,1.42,0.01,2.13
		c-1.74,1.72-3.99,1.4-6.1,1.43c-6.46,0.09-12.93,0.13-19.39,0.01c-4.52-0.08-4.92,2.56-5.05,6.11c-0.14,3.8,1.56,4.94,5.04,4.89
		c5.47-0.07,10.94-0.07,16.41,0.02c2.12,0.04,4.36-0.26,6.1,1.45c-0.54,0.32-1.07,0.86-1.64,0.92c-3.5,0.36-7.27-0.64-10.29,2.1
		c-4.41,0.51-8.85,1.42-13.05-0.95c-6.04-2.45-12.08-1.44-18.12,0c-4.36,2.4-9.27,1.02-13.84,1.96c-1.67,0.38,1.44-4.29-2.07-1.96
		c-5.65,2.36-11.31,2.37-16.96-0.01c0.01-0.72,0.02-1.43,0.03-2.15c1.96-1.63,4.35-1.32,6.61-1.33c4.37-0.02,4.88-2.71,4.96-6.24
		c0.08-3.65-1.41-5.06-4.97-4.92c-2.26,0.09-4.64,0.34-6.61-1.29c-1.01-1.7-2.09-0.36-3.14-0.06c-1.8,1.61-4.05,1.44-6.17,1.34
		c-4.26-0.21-5.39,1.98-5.37,5.84c0.02,3.77,1.4,5.35,5.28,5.42c4.19,0.08,5.09-2.01,4.99-5.57c-0.06-2.09-0.41-4.38,1.44-6.08
		c2.04,6.4,0.66,12.97,0.82,19.45c0.08,3.48,1.22,7.19-0.89,10.53c-2.13-2.58-1.5-5.69-1.48-8.61c0.02-3.29-1.17-4.87-4.64-4.87
		c-20.91,0.03-41.82-0.01-62.73,0.02c-3.22,0-4.83,1.34-5.15,4.64c-0.29,3-0.19,5.96,0.02,8.93c-4.26,1.3-8.69,1.74-13.08,1.82
		c-9.97,0.18-19.95,0.11-29.92,0.03c-4.08-0.03-8.14-0.5-11.99-2.02c-1.91-2.25-1.56-5.01-1.41-7.59c0.22-4.07-0.99-6.33-5.52-5.94
		c-1.76,0.15-3.67,0.09-5.04-1.47c0-0.66,0.01-1.33,0.01-1.99c2.74-2.24,6.02-1.2,9.07-1.41c4.77-0.33,5.35-1.14,5.5-6.16
		c0.12-4.14-1.99-4.97-5.52-4.98c-3.04-0.01-6.33,0.89-9.05-1.39c-0.32-0.7-0.64-1.4-0.96-2.1c2.64-2.03,5.74-1.25,8.67-1.39
		c2.32-0.1,4.66-0.02,6.98-0.02c6.57,0.01,8.18-0.23,7.92-6.88c-0.05-1.32,0.28-2.65,1.39-3.6c0.65,0,1.3,0,1.95,0
		c1.8,1.71,1.39,3.99,1.4,6.07c0.02,4.32,2.82,4.51,6.05,4.56c3.34,0.05,4.17-1.66,4.24-4.64c0.07-2.84-0.66-5.17-2.67-7.13
		c-3.82-1.7-8.32-0.54-12-2.82c3.97-2.91,8.78-0.48,12.97-2.03c0.67-0.34,1.34-0.67,2.02-1.01c2.36,1.2,4.85,1.71,7.51,1.62
		C202.5,484.63,204.5,484.6,206.07,486.09z"/>
	<path class="st10" d="M222.05,535.16c-2.02-0.38-1.99-1.93-1.94-3.46c0.1-2.78,0.1-5.57,0.39-8.33c0.23-2.18,1.3-3.39,3.92-3.38
		c22.74,0.1,45.49,0.09,68.23,0.02c2.66-0.01,3.49,1.08,3.41,3.57c-0.12,3.81-0.04,7.63-0.05,11.45
		C271.37,535.08,246.71,535.12,222.05,535.16z"/>
	<path class="st39" d="M374.99,518.02c-7.99-0.01-15.99-0.03-23.98-0.02c-3.37,0.01-5.37-0.66-5.15-4.99
		c0.53-10.49-1.28-8.79,9.13-8.91c7.66-0.09,15.32,0,22.98,0C380.33,511.29,379.39,515.67,374.99,518.02z"/>
	<path class="st39" d="M377.96,501.98c-1.48,0.02-2.97-0.05-4.45,0.08c-3.51,0.3-4.74-1.39-4.52-4.72c0.16-2.46,0.04-4.94,0.02-7.42
		c-0.01-0.82,0.18-2.18-0.2-2.38c-6.09-3.19-2.88-8.88-3.75-13.45c3.62-1.92,7.5-0.79,11.26-0.91c1.54-0.05,2.56,1.05,2.5,2.55
		C378.5,484.49,380.07,493.3,377.96,501.98z"/>
	<path class="st9" d="M179.09,490.07c-0.18,11.97-0.18,11.97-12.11,11.96c-4.29,0-8.57-0.04-12.86-0.07
		c-0.16-12.92-0.16-13.04,12.85-12.85C171.01,489.17,175.21,487.93,179.09,490.07z"/>
	<path class="st39" d="M368.2,471.01c-1.99,0-3.99-0.1-5.98,0.02c-3.47,0.21-5.04-0.86-4.97-4.8c0.15-9.11-0.07-9.11,9.08-9.11
		c0.83,0,1.66,0,2.49,0c9.7,0.03,9.53,0.04,9.97,9.43c0.16,3.39-0.93,4.6-4.12,4.47C372.52,470.94,370.36,471.01,368.2,471.01z"/>
	<path class="st10" d="M164.46,486.1c-1.16,0-2.32,0-3.49,0c-6.9,0-6.6-0.02-7-7c-0.27-4.75,1.1-6.66,5.99-6.08
		c3.11,0.37,6.33,0.37,9.44,0c4.7-0.55,5.98,1.31,5.75,5.82c-0.41,7.94,0.83,7.22-7.22,7.27
		C166.78,486.11,165.62,486.1,164.46,486.1z"/>
	<path class="st10" d="M299.04,520.09c5.65,0,11.3,0.01,16.96,0.01c0.01,3.63-0.11,7.27,0.06,10.89c0.13,2.86-0.69,4.05-3.84,4.15
		C298.84,535.6,298.84,535.7,299.04,520.09z"/>
	<path class="st39" d="M155.08,504.07c3.97,0.01,7.94,0.13,11.9-0.02c2.85-0.11,4.09,0.68,4.17,3.86c0.26,10.1,0.39,10.1-9.61,10.1
		c-2.15,0-4.3,0-6.45,0.01C153.6,513.36,153.34,508.72,155.08,504.07z"/>
	<path class="st39" d="M318.06,522.06c2.23-3.21,5.58-1.73,8.49-1.98c1.77-0.15,3.57,0,5.35,0.01c0.02,3.82-0.04,7.64,0.1,11.45
		c0.09,2.52-0.83,3.43-3.43,3.58c-9.54,0.55-11.09-0.98-10.26-10.66C318.38,523.68,318.15,522.86,318.06,522.06z"/>
	<path class="st10" d="M155.08,520c12.01,0.21,12.01,0.21,12,12.05c0,0.98-0.01,1.96-0.02,2.94c-0.83,0.02-1.67,0.15-2.49,0.06
		c-3.38-0.39-8.59,1.71-9.77-1.11C153.09,529.86,153.1,524.62,155.08,520z"/>
	<path class="st40" d="M316.84,457.14c7.16,0,7.16,0,7.15,7.09c-0.01,6.69-0.16,6.67-7.67,6.87c-4.11,0.11-6.58-0.43-6.36-5.56
		C310.31,457.14,310.02,457.13,316.84,457.14z"/>
	<path class="st40" d="M269.71,471.04c-6.17-0.01-6.41-0.54-6.68-8.97c-0.19-5.63,3.64-4.9,7.06-4.92c6.78-0.04,6.94,0.17,6.92,7.49
		C276.99,471.06,276.99,471.06,269.71,471.04z"/>
	<path class="st40" d="M222.14,471.04c-3.22,0.38-6.46,0.3-6.13-5.44c0.4-6.94,1.59-8.11,8.48-8.57c5.71-0.38,5.67,2.81,5.58,6.83
		C229.92,471.04,230.03,471.04,222.14,471.04z"/>
	<path class="st40" d="M176.51,471.05c-6.74,0-7.37-0.59-7.38-6.85c-0.01-6.15,1.11-6.7,8.4-7.17c6.27-0.41,5.56,3.45,5.53,7.33
		C183.01,471.05,183.04,471.05,176.51,471.05z"/>
	<path class="st39" d="M296.1,505.06c-0.02,2.48-0.29,5,0.01,7.45c0.52,4.34-0.99,5.83-5.47,5.6c-6.86-0.36-10.25-5.63-7.35-12.17
		c0.75-1.69,2.16-1.85,3.7-1.85c2.98,0.01,5.96,0.01,8.95,0.01C295.97,504.42,296.03,504.74,296.1,505.06z"/>
	<path class="st39" d="M299.07,504.17c1.82-0.03,3.65-0.09,5.47-0.07c8.37,0.07,7.43-0.93,7.46,7.42c0.03,6.13-0.31,6.44-6.46,6.49
		c-2.16,0.02-4.31-0.03-6.47-0.06C299.07,513.35,299.07,508.76,299.07,504.17z"/>
	<path class="st39" d="M342.05,463.85c0.19-3.09-1.55-7.16,4.57-6.81c8.36,0.49,8.38,0.19,8.38,7.86c0,6.14-0.04,5.67-7.26,6.27
		C341.29,471.71,341.67,468.07,342.05,463.85z"/>
	<path class="st40" d="M198.04,464.23c-0.31,2.96,1.79,7.2-4.44,6.9c-8.4-0.4-8.51-0.2-8.5-7.46c0.01-6.55,0.05-6.07,7.14-6.68
		C198.54,456.45,198.59,459.79,198.04,464.23z"/>
	<path class="st39" d="M319.92,489.11c0.02,1.32,0.07,2.64,0.07,3.96c0.02,9.28,0.01,8.98-9.16,9.08c-5.63,0.06-4.37-3.89-4.62-6.75
		c-0.24-2.76-1.62-6.8,3.81-6.47C313.32,488.99,316.62,489.05,319.92,489.11z"/>
	<path class="st39" d="M154.08,463.83c0-6.66,0-6.66,7.23-6.69c5.73-0.02,5.58,0.03,5.84,7.39c0.16,4.41-0.2,7.12-5.92,6.65
		C154.12,470.59,154.08,471.04,154.08,463.83z"/>
	<path class="st39" d="M273.05,490.07c-0.01,0.99-0.04,1.97-0.04,2.96c-0.02,9.22-2.11,10.87-11.2,8.98
		c-1.71-0.35-3.02-1.2-2.49-2.92c0.97-3.11-0.58-6.02-0.25-9.03C263.74,488.41,268.39,488.41,273.05,490.07z"/>
	<path class="st39" d="M339.03,464.61c0,6.43-0.02,6.08-7.36,6.53c-5.98,0.37-5.65-3.06-5.72-7.14c-0.08-4.29,0.1-7.37,5.88-6.98
		C339.01,457.51,339.03,457.17,339.03,464.61z"/>
	<path class="st23" d="M302.08,470.81c-7.49-0.39-7.31-0.39-7.14-9.15c0.09-4.53,2.91-4.6,6.01-4.47c7.55,0.32,7.38,0.37,7.13,10.15
		C307.94,473.11,303.99,470.38,302.08,470.81z"/>
	<path class="st23" d="M254.11,470.78c-1.9-0.5-5.93,2.48-6.13-3.35c-0.34-9.75-0.43-9.9,7.02-10.24c3.03-0.14,5.97-0.21,6.1,4.36
		C261.36,470.43,261.53,470.42,254.11,470.78z"/>
	<path class="st23" d="M245.07,464.18c0,6.85,0,6.85-6.03,6.86c-6.99,0.01-6.99,0.01-6.98-7.23c0.01-6.09,0.44-6.53,6.28-6.5
		C245.07,457.34,245.07,457.34,245.07,464.18z"/>
	<path class="st39" d="M214.08,464.18c-0.66,2.62,2.07,7.18-4.37,6.94c-8.65-0.32-8.66-0.05-8.66-6.84c0-6.87,0.42-6.86,8.37-7.25
		C215.61,456.73,213.8,460.81,214.08,464.18z"/>
	<path class="st39" d="M331.96,476.09c-0.51,10.09-0.51,10.09-10.44,10.01c-1.15-0.01-2.3-0.09-3.44-0.14
		c-0.01-3.11-0.06-6.22,0-9.33c0.02-0.95,0.06-2.13,0.6-2.8C320.51,471.59,330.7,473.41,331.96,476.09z"/>
	<path class="st23" d="M232.04,473.14c3.23-0.32,6.16-0.69,5.82,4.66c-0.52,8.29-0.16,8.31-6.77,8.31c-8.33,0-5.98,0.16-6.93-7.61
		C223.38,472.11,227.93,472.97,232.04,473.14z"/>
	<path class="st39" d="M191.04,484.08c-0.32,2.38-2.15,2-3.73,2.01c-3.08,0.03-6.16,0.01-9.24,0.01c-0.31-1.27-0.82-2.52-0.91-3.81
		c-0.57-8.63,3.37-11.68,11.63-9.14c1.51,0.46,1.79,1.33,1.94,2.9C190.99,478.74,189.83,481.47,191.04,484.08z"/>
	<path class="st23" d="M292.05,463.59c-0.01,7.45-0.01,7.45-6.28,7.45c-6.72,0-6.72,0-6.72-7.01c0-5.82,1.14-6.75,7.28-6.89
		C291.67,457.03,292.89,459.82,292.05,463.59z"/>
	<path class="st39" d="M225.97,489.11c0.02,2.47-0.16,4.96,0.1,7.4c0.46,4.4-1.42,5.74-5.69,5.61c-7.53-0.22-7.69-0.02-7.28-7.6
		c0.1-1.81-1.88-4.19,0.95-5.58C218.03,488.99,222,489.05,225.97,489.11z"/>
	<path class="st6" d="M246.37,486.1c-6.3,0-6.3,0-6.3-6.59c0-6.44,0-6.44,6.45-6.43c6.56,0.01,6.56,0.01,6.55,6.83
		C253.06,486.11,253.06,486.11,246.37,486.1z"/>
	<path class="st39" d="M241.02,502c-13.06,0.15-13.06,0.15-12.91-12.9C241.25,488.87,241.25,488.87,241.02,502z"/>
	<path class="st9" d="M257.09,491.07c-0.02,0.66-0.05,1.32-0.06,1.97c-0.06,9.79-0.05,9.68-9.73,9.05c-2.65-0.17-3.4-1.25-3.32-3.65
		c0.11-3.12,0.05-6.25,0.06-9.38c3.1-0.01,6.2-0.04,9.29-0.02C254.93,489.06,256.77,488.69,257.09,491.07z"/>
	<path class="st39" d="M286.03,488.93c4.04,3.19,1.95,7.61,1.72,11.31c-0.2,3.14-3.77,1.67-5.82,1.73
		c-6.86,0.19-6.86,0.08-6.87-6.93c0-1.66-0.03-3.31-0.04-4.97C278.49,487.83,282.4,489.69,286.03,488.93z"/>
	<path class="st10" d="M206.07,486.09c-3.25,0-6.5-0.08-9.75,0.03c-2.24,0.08-3.4-0.72-3.26-3.05c0.01-0.49,0.02-0.99,0.04-1.48
		c0.25-9.49-2.08-8.38,9.24-8.55c2.71-0.04,3.94,0.8,3.79,3.66C205.95,479.82,206.07,482.96,206.07,486.09z"/>
	<path class="st39" d="M334.93,502.03c-13,0.03-13,0.03-12.86-12.94C335.38,488.87,335.38,488.87,334.93,502.03z"/>
	<path class="st10" d="M222.05,486.05c-4.33,0-8.66,0.01-12.98,0.01c-0.01-1.32-0.03-2.64-0.03-3.95c-0.02-9.8-0.03-9.69,9.73-9.09
		c2.67,0.17,3.4,1.23,3.32,3.64C221.97,479.79,222.05,482.92,222.05,486.05z"/>
	<path class="st6" d="M269.03,479.7c0,6.4,0,6.4-6.5,6.4c-6.53,0-6.53,0-6.53-6.88c0-6.14,0-6.14,6.75-6.14
		C269.04,473.08,269.04,473.08,269.03,479.7z"/>
	<path class="st39" d="M284.23,474.08c2.55,10.32,1.31,12.01-8.77,12.02c-1.15,0-2.29,0.01-3.44,0.02
		c-0.14-3.22-0.27-6.45-0.43-9.67c-0.08-1.62,0.27-3.29,2.11-3.24C277.21,473.31,280.87,472.05,284.23,474.08z"/>
	<path class="st39" d="M300.15,476.08c0,0.99-0.01,1.98-0.01,2.97c1.17,2.37,1.36,4.72-0.12,7.04c-0.16,0-0.33,0-0.49,0
		c-12.71,0.04-12.71,0.04-12.41-12.97c3.24-0.01,6.48,0.07,9.71-0.07C299.08,472.96,300.19,473.82,300.15,476.08z"/>
	<path class="st9" d="M315.02,486.18c-12.21-0.32-12.21-0.32-11.96-13.09c1.16,0,2.33-0.01,3.49-0.01
		C316.55,473.09,318.58,476.22,315.02,486.18z"/>
	<path class="st10" d="M363.07,475.08c-0.03,1.98-0.29,3.99-0.04,5.93c0.55,4.27-1.32,5.31-5.32,5.17
		c-8.91-0.32-7.62,0.72-7.75-7.64c-0.02-1.15-0.07-2.31-0.11-3.46C352.71,472.17,360.25,472.17,363.07,475.08z"/>
	<path class="st9" d="M347.14,475.08c-0.04,2.47-0.17,4.94-0.09,7.41c0.07,2.38-0.62,3.49-3.3,3.67c-9.62,0.63-9.61,0.74-9.76-10.08
		c0.11-0.65-0.02-1.5,0.35-1.9C336.26,472.11,344.87,472.77,347.14,475.08z"/>
	<path class="st39" d="M190.07,488.93c2.81-0.17,4.52,0.77,4.03,3.97c-0.07,0.49-0.01,0.99-0.01,1.49
		c0.04,7.34-3.53,9.81-10.74,7.54c-1.78-0.56-2.23-1.77-2.24-3.39c-0.02-2.82-0.04-5.64-0.07-8.47
		C183.83,487.97,187.1,489.62,190.07,488.93z"/>
	<path class="st40" d="M339.95,535.07c-1.89-0.79-5.76,1.93-5.95-3.15c-0.12-3.25,0.81-5.13,4.44-4.85
		c1.81,0.14,3.65,0.09,5.47,0.01c3.18-0.14,3.92,1.87,4.02,4.45c0.12,2.93-1.66,3.66-4.17,3.55
		C342.59,535.03,341.43,535.07,339.95,535.07z"/>
	<path class="st40" d="M371.98,535.07c-2.75-0.25-6.88,1.42-6.81-4.07c0.03-2.21,0.81-3.9,3.44-3.9c1.82,0,3.65,0.09,5.47-0.03
		c3.16-0.2,4.92,0.66,4.98,4.36c0.06,3.92-2.25,3.74-4.85,3.64C373.54,535.05,372.88,535.07,371.98,535.07z"/>
	<path class="st10" d="M362.95,528.08c-0.28,2.2,1.22,5.41-0.96,6.41c-3.23,1.48-7.28,1.26-10.59,0.19
		c-2.79-0.91-0.93-4.33-1.36-6.59C354.34,525.93,358.65,525.93,362.95,528.08z"/>
	<path class="st10" d="M350.02,520.1c4.34,0.45,8.83-1.2,13.05,0.95c-0.04,1.99-0.07,3.98-0.11,5.97c-4.3,0.83-8.61,0.83-12.91,0
		C350.03,524.71,350.02,522.4,350.02,520.1z"/>
	<path class="st41" d="M350.04,527.01c4.31,0,8.61,0,12.91,0c0,0.35,0,0.71,0,1.06c-4.31,0-8.61,0-12.92,0
		C350.04,527.72,350.04,527.37,350.04,527.01z"/>
	<path class="st42" d="M514.26,391.24c-32.31,0-64.62-0.05-96.93,0.07c-3.33,0.01-4.54-0.61-4.53-4.32
		c0.12-39.79,0.08-79.59-0.07-119.38c-0.01-3.44,1.43-3.66,4.18-3.66c30.98,0.04,61.95-0.05,92.93-0.07
		c32.31-0.02,64.61-0.01,96.92-0.01c1.83,0,3.68,0.24,5.49,0.04c3.21-0.37,3.88,1.07,3.87,4.02c-0.08,39.79-0.11,79.59,0.04,119.38
		c0.02,4.19-2.13,3.97-4.97,3.97C578.87,391.23,546.56,391.24,514.26,391.24z"/>
	<path class="st43" d="M112.49,244.51c0-0.34-0.01-0.68-0.01-1.03c1.43-0.43,1.77-1.29,1.45-3.68c0.25-0.4,0.6-0.65,1.06-0.75
		c0.66-0.01,1.29,0.14,1.81,0.54c0.68,0.52,1.64,0.15,2.27,0.76c-0.41-0.79-1.58-0.17-1.95-1.05c-0.03-0.49,0.13-0.91,0.49-1.25
		c1.93-1.06,3.74-0.31,5.57,0.32c0.63,0.21-0.14-0.14,0.43,0.17c0.87,0.48,1.79,0.52,2.73,0.58c-0.82-0.32-1.66-0.62-1.94-1.61
		c0-1.97,1.57-1.81,2.81-2.05c6.53-1.25,8.17-3.11,7.96-9.68c-0.57-18.29-0.12-36.59-0.24-54.88c-0.03-4.32-0.41-8.68,0.29-12.95
		c0.68-4.1,2.55-4.63,5.99-1.98c0.63,1.4,0.75,2.88,0.75,4.37c0,21.83,0.22,43.66-0.1,65.49c-0.06,3.78,0.38,7.6-0.44,11.35
		c-0.05,0.14-0.21,0.32-0.17,0.44c0.26,0.87-3.95,1.5-0.14,2.56c0.22,0.06,0.29,0.56,0.4,0.89c0.71,14.35,0.82,28.68-0.03,43
		c-2.01,1.57-2.01,3.17,0.01,4.8c0.63,2.3,0.51,4.64,0.51,6.97c0.02,9.15-0.02,18.31,0.02,27.46c0.03,7.19,0.31,7.44,7.7,7.5
		c0.5,0,1,0,1.5,0c73.58,0,147.16,0,220.75-0.01c2.48,0,5.01,0.35,7.36-0.8c1.86-1.47,1.55-3.55,1.55-5.52
		c0.01-31.11,0.23-62.22-0.07-93.33c-0.21-21.76,0.12-43.53-0.09-65.29c-0.03-3.5-0.08-6.99-0.41-10.46
		c-0.04-0.61,0.01-1.22,0.1-1.82c1.32-3.24-0.69-7.13,1.94-10.12c8.99-0.02,17.97,0.06,26.96-0.1c2.89-0.05,4.06,0.54,4.05,3.79
		c-0.15,35.1-0.14,70.21-0.18,105.31c-0.99,0.01-1.99,0.01-2.98,0.03c-6.41,0.12-9.04,2.69-9.05,9.05
		c-0.03,22.05,0.01,44.09-0.04,66.14c0,1.92,0.67,4-0.82,5.73c-5.99-0.03-11.99-0.07-17.98-0.07
		c-80.77-0.02-161.55-0.02-242.32-0.04c-8.49,0-17-0.23-25.48,0.07c-4.04,0.14-5.44-0.82-5.36-5.13
		c0.26-13.81,0.06-27.64,0.03-41.46c0.77-0.03,1.54-0.06,2.31-0.08c1.08,0.17,2.31-0.33,3.19,0.72c0.45,1.5,1.16,2.71,3.03,2.5
		c-0.79-0.74-2.22-0.59-2.61-1.87c0.38-1.6-0.94-2.33-1.71-3.37c-1.03-8.93-0.17-17.88-0.49-26.8
		C112.76,253.41,113.45,248.93,112.49,244.51z"/>
	<path class="st44" d="M514.22,261.22c-1.4-0.43-2.61-1.28-2.57-2.64c0.05-1.83,1.43-2.97,3.25-2.93c1.49,0.03,2.42,1.12,2.17,2.65
		C516.82,259.86,515.76,260.86,514.22,261.22z"/>
	<path class="st39" d="M529.42,209.59c-8.93,0.86-17.89,0.22-26.83,0.34c-10.29,0.13-20.59-0.03-30.88,0.1
		c-2.45,0.03-3.51-0.34-3.49-3.18c0.17-26.72,0.2-53.45,0.26-80.17c2.26-1.87,5.02-1.63,7.63-1.65c15.63-0.15,31.27-0.12,46.91-0.03
		c6.37,0.04,6.71,0.5,6.71,6.81c0,24.28,0.01,48.56-0.01,72.84C529.71,206.29,529.98,207.97,529.42,209.59z"/>
	<path class="st45" d="M529.42,209.59c-0.04-25.8-0.19-51.61-0.03-77.41c0.03-4.34-1.05-5.69-5.53-5.63
		c-18.46,0.26-36.92,0.12-55.38,0.12c-0.6-9.24-0.6-9.24,8.23-9.24c16.45,0,32.9,0.06,49.35-0.05c2.88-0.02,4.1,0.6,4.1,3.82
		c-0.06,28.57,0.04,57.14,0.08,85.71C530.24,207.86,530.46,208.93,529.42,209.59z"/>
	<path class="st46" d="M499,222.5c-1.5,0-3,0.01-4.5,0c-1.55-0.01-3.04-0.01-3.21-2.18c-0.14-1.8,0.67-3.02,2.28-3.36
		c3.77-0.78,7.6-0.79,11.37,0c1.62,0.34,2.41,1.57,2.27,3.37c-0.17,2.17-1.68,2.16-3.22,2.17C502.33,222.51,500.67,222.5,499,222.5z
		"/>
	<path class="st47" d="M499.39,104.64c2.14,0.19,2.82,1.5,2.85,3.41c0.04,2.1-1.21,3.25-3.03,3.13c-1.81-0.12-2.83-1.64-2.88-3.5
		C496.28,105.62,497.43,104.65,499.39,104.64z"/>
	<path class="st42" d="M382.36,143.45c-0.57,3.33,1.06,6.91-1.09,10.07c-1.18-1.11-1.42-2.58-1.46-4.07
		c-0.18-6.26-0.18-12.52,0-18.77c0.04-1.49,0.28-2.97,1.45-4.08c0.19-0.01,0.38-0.02,0.57-0.03
		C382.01,132.19,382.19,137.82,382.36,143.45z"/>
	<path class="st15" d="M320.27,87.46c0.02,0.39,0.04,0.78,0.06,1.17c-1.42,1.91-3.49,1.61-5.47,1.6
		c-36.6-0.07-73.21-0.23-109.81,0.08c-11.81,0.1-23.62-0.21-35.44-0.15c-1.88,0.01-3.99-0.58-5.71,1.4
		c1.53,1.88,3.63,1.43,5.49,1.44c8.82,0.04,17.64,0.15,26.45-0.06c2.33-0.05,4.69-0.29,6.67,1.36c0.79,1.18,0.79,2.36-0.01,3.53
		c-2.2,1.6-4.76,1.28-7.23,1.28c-15.15,0.04-30.3,0.01-45.44,0.03c-6.87,0.01-6.87,0.03-8.6,6.66c-0.28,0.57-0.74,0.92-1.36,1.04
		c-2.96-2.56-1.54-5.91-1.63-8.98c0.06-0.56,0.18-1.1,0.33-1.64c1.23-3.37-0.25-7.1,1.31-10.43c0.32-0.46,0.75-0.81,1.26-1.04
		c4.01-1.09,8.12-0.69,12.17-0.51c3.88,0.17,6.63-0.91,8.09-4.63c15.13-0.02,30.27-0.01,45.4-0.09c2.75-0.01,4.92,0.05,4.74,3.82
		c-0.14,2.89,2.41,2.18,4.07,2.18c12.97,0.05,25.94,0.03,38.92,0.03c19.96,0,39.91,0.06,59.87-0.08
		C316.77,85.45,318.51,86.19,320.27,87.46z"/>
	<path class="st48" d="M140.7,85.37c-0.01-1.91-0.02-3.82-0.03-5.73c6.91-0.01,13.81-0.02,20.72-0.03c0.83,4.64-0.73,6.61-5.77,6.08
		C150.69,85.17,145.67,85.44,140.7,85.37z"/>
	<path class="st49" d="M202.41,73.68c0.65,0,1.3,0,1.95,0c-0.11,0.9,0.4,2.35-0.98,2.35C202.01,76.03,202.52,74.58,202.41,73.68z"/>
	<path class="st50" d="M454.98,479.34c-2.34,4.48-3.34,4.62-7,1C450.33,475.3,451.48,475.13,454.98,479.34z"/>
	<path class="st51" d="M355.33,402.39c2.61,0,5.23,0,7.84,0c-2.54,1.46-5.22,0.86-7.84,0.97c-0.34-0.21-0.45-0.43-0.34-0.64
		C355.11,402.5,355.22,402.39,355.33,402.39z"/>
	<path class="st52" d="M355.33,402.39c-0.01,0.32-0.01,0.64,0,0.97c-2.3,0-4.59,0-6.89,0c-0.01-0.32-0.02-0.64-0.03-0.97
		C350.72,402.39,353.03,402.39,355.33,402.39z"/>
	<path class="st43" d="M140.4,155.55c-2.99-1.58-3.93-0.07-3.97,2.68c-0.04,2.99-0.02,5.98-0.02,8.97c0,17.44-0.01,34.88,0.01,52.32
		c0,1.82,0.08,3.65,0.31,5.45c1.03,7.99-2.34,11.83-10.22,11.55c-1.52-0.05-1.66,0.64-1.1,1.8c-0.45,0.98-1.32,1.15-2.27,1.18
		c-1.86-0.46-3.66-1.3-5.65-1.03c-1.79,0.89-3.62,0.92-5.47,0.22c-0.92-0.1-1.85,0.74-2.76-0.05c-1.52-2-1.46-4.35-1.47-6.67
		c-0.02-27.21-0.05-54.43,0.02-81.64c0.02-7.26,1.14-8.49,8.43-8.32c7.92,0.18,15.91-1.12,23.76,0.91c2.75,2.64,1.7,6.03,1.83,9.19
		C141.65,153.36,141.48,154.65,140.4,155.55z"/>
	<path class="st3" d="M140.34,143.43c-8.64-0.01-17.28,0.19-25.9-0.12c-4.08-0.15-5.29,0.95-5.26,5.18
		c0.19,30.05,0.1,60.1,0.1,90.15c-3.77,0.85-7.62,0.15-11.4,0.56c-4.27,0.46-5.68-0.89-5.63-5.42c0.24-22.71,0.11-45.43,0.1-68.14
		c0-1.99-0.09-3.97-0.15-5.96c0-9.02,0-18.04,0-27.06c0.3-4.75,2.25-6.52,8.16-7.41c11.98,0.01,23.96-0.14,35.94-0.26
		c1.49-0.01,3.01-0.23,4.39,0.59C142.54,131.54,143.05,137.51,140.34,143.43z"/>
	<path class="st53" d="M88.51,252.5c-3.99,0-7.99-0.07-11.98,0.04c-2.02,0.06-3.18-0.65-3.39-2.69c-0.28-2.72,1.78-2.36,3.34-2.37
		c8.15-0.05,16.3-0.01,24.46-0.02c1.77,0,3.39,0.08,3.4,2.5c0.01,2.41-1.56,2.56-3.36,2.54C96.83,252.48,92.67,252.49,88.51,252.5z"
		/>
	<path class="st54" d="M103.07,263.15c-9.96,0-19.93,0-29.89,0c-0.01-0.33-0.02-0.65-0.03-0.98c9.97,0,19.93,0,29.9,0
		C103.06,262.5,103.07,262.82,103.07,263.15z"/>
	<path class="st43" d="M112.49,244.51c1.55,1.51,0.89,3.45,0.9,5.2c0.06,10.13,0.07,20.26,0,30.39c-0.01,2.08,0.09,3.97,2.03,5.21
		c-0.95,0.99-1.92,0.99-2.93,0.09C112.49,271.77,112.49,258.14,112.49,244.51z"/>
	<path class="st55" d="M73.56,256.58c9.72,0,19.45,0,29.17,0c0,0.3,0.01,0.6,0.01,0.9c-9.75,0-19.51,0-29.26,0
		C73.51,257.18,73.53,256.88,73.56,256.58z"/>
	<path class="st21" d="M73.67,267.19c4.75,0,9.51,0,14.26,0c0.01,0.29,0.03,0.57,0.04,0.86c-4.82,0-9.64,0-14.47,0
		C73.56,267.76,73.61,267.48,73.67,267.19z"/>
	<path class="st43" d="M114.42,239.67c0.16,0.99-0.4,2.46,1.65,2.07c1.29-0.25,2.8-0.88,4.05,1.16c-2.63,1.02-5.19,0.4-7.64,0.59
		c-0.04-1.33-0.08-2.66-0.12-3.99C113.1,238.9,113.8,238.87,114.42,239.67z"/>
	<path class="st56" d="M112.5,285.4c0.98-0.03,1.95-0.06,2.93-0.09c0.65,0.26,1.67,0.12,1.7,1.12c0.03,1.04-1,0.89-1.65,1.13
		c-0.34,0.38-0.69,0.41-1.05,0.03c-0.97-0.3-1.95-0.6-2.92-0.91C111.84,286.26,112.17,285.83,112.5,285.4z"/>
	<path class="st57" d="M114.42,239.67c-0.69-0.06-1.37-0.11-2.06-0.17c-0.13-0.26-0.24-0.54-0.33-0.81
		c1.82-0.07,3.65-0.15,5.47-0.22c0,0.35,0,0.7,0,1.05c-0.64,0.54-1.32,0.5-2.03,0.16C115.12,239.67,114.77,239.67,114.42,239.67z"/>
	<path class="st58" d="M618.88,403.19c-2.77,1.33-5.54,1.27-8.34-0.03C613.26,402.02,616.05,402.02,618.88,403.19z"/>
	<path class="st58" d="M597.45,403.3c2.73-1.39,5.54-1.14,9.28-0.57C603.25,405.14,600.32,404.08,597.45,403.3z"/>
	<path class="st10" d="M140.34,143.43c0-5.82,0-11.63,0-17.45c-2.39-6.53-2.49-13.05,0.11-19.56c-0.06-10.63-0.97-8.76,8.49-8.8
		c17.76-0.09,35.52,0,53.29,0.02c1.71,0.09,2.98-1.3,4.66-1.38c36.41-0.24,72.8-0.3,109.17,0c0.97,0.16,1.87,0.54,2.69,1.08
		c0.51,0.31,1.06,0.43,1.67,0.3c18.82-0.02,37.65,0.04,56.47-0.13c3.57-0.03,4.57,1.18,4.48,4.6c-0.21,8.16-0.09,16.32-0.11,24.48
		c0,8.98,0.01,17.95,0.02,26.93c0,0,0-0.01,0-0.01c-2.51,1.64-5.37,1.63-8.2,1.63c-75.03,0.04-150.05,0.04-225.08-0.01
		c-2.75,0-5.81,0.47-7.53-2.64C140.43,149.47,140.38,146.45,140.34,143.43z"/>
	<path class="st21" d="M202.2,94.53c-11.78,0.01-23.56,0.09-35.34-0.03c-1.89-0.02-4.67,0.93-5.37-1.98
		c-0.74-3.03,0.9-4.01,3.9-3.95c13.43,0.24,26.88,0.65,40.3,0.38c35.25-0.71,70.49-0.09,105.74-0.33c2.96-0.02,5.93,0.01,8.89,0.01
		c9.54-0.01,19.07-0.01,28.61-0.02c2.16,0,4.32-0.11,6.47,0.03c2.28,0.15,5.61-1.03,5.74,2.84c0.13,3.92-3.18,3.03-5.5,3.06
		c-5.47,0.09-10.95,0.03-16.43,0.03c-6.26-0.01-12.53-0.03-18.79-0.04c-0.7,0.09-1.35,0.42-2.04,0.58
		c-0.76,0.24-1.53,0.43-2.32,0.58c-0.67,0.13-1.33,0.26-1.99,0.27c-35.94,0.07-71.89,0.5-107.82-0.2
		C204.8,95.69,203.55,94.96,202.2,94.53z"/>
	<path class="st59" d="M367.36,93.82c-1.71,0.47-2.93,0.02-2.96-1.96c-0.02-1.82,0.48-3.14,2.84-2.88c1.84,0.2,3.18,0.54,3.03,2.77
		C370.15,93.65,369.23,94.36,367.36,93.82z"/>
	<path class="st60" d="M377.3,89.6c0,1.33,0,2.65,0,3.98c-1.66,0.75-3.32,0.78-4.97-0.02c0-0.99,0-1.98,0-2.96
		C373.65,88.61,375.42,88.82,377.3,89.6z"/>
	<path class="st61" d="M377.3,89.6c-1.75-0.11-3.45,0.02-4.97,1C373.42,87.43,375.32,88.31,377.3,89.6z"/>
	<path class="st62" d="M319.22,93.7c0.4,0.28,0.8,0.55,1.2,0.83c0,1.04-0.01,2.08-0.01,3.12c-0.16,0.77-0.27,1.57-1.22,1.8
		C318.6,97.53,317.99,95.61,319.22,93.7z"/>
	<path class="st61" d="M372.33,93.56c1.66,0.01,3.31,0.01,4.97,0.02C375.64,95.07,373.98,95.1,372.33,93.56z"/>
	<path class="st39" d="M91.33,136.67c0.02,5.32-0.09,10.64,0.12,15.94"/>
	<path class="st10" d="M209.48,535.07c-9.62-0.14-8.39,1.23-8.43-7.95c-0.03-8.17-0.74-7,7.81-7.05c9.19-0.06,8.93,0,9.29,8.68
		c0.21,4.84-0.89,7.34-6.19,6.34C211.17,534.94,210.31,535.07,209.48,535.07z"/>
	<path class="st39" d="M183.17,528.17c-0.65,2.19,1.19,5.55-1.29,6.39c-3.69,1.25-7.84,0.8-11.76,0.08
		c-0.43-0.08-0.84-1.34-0.92-2.09c-0.15-1.48-0.07-2.98-0.07-4.46c0-7.5,4.68-10.72,11.82-7.82
		C184.78,521.83,182.29,525.56,183.17,528.17z"/>
	<path class="st10" d="M185.09,526.83c0.61-1.9-1.47-5.46,1.36-6.32c3.17-0.97,6.87-0.38,10.32-0.16c1.44,0.09,1.28,1.71,1.3,2.84
		c0.04,2.32-0.21,4.67,0.07,6.95c0.48,4.01-1.15,5.14-5.04,5C183.82,534.81,185.23,535.98,185.09,526.83z"/>
	<path class="st40" d="M273.9,504.08c7.11,0,7.11,0,7.11,7.06c0,6.88,0,6.88-6.31,6.87c-7.61-0.02-7.61-0.02-7.62-6.57
		C267.08,504.09,267.08,504.09,273.9,504.08z"/>
	<path class="st40" d="M187.05,511.13c0,6.87,0,6.87-6.81,6.87c-6.88,0-7.1-0.21-7.12-6.8c-0.01-6.97,0.15-7.13,7.29-7.12
		C187.04,504.09,187.04,504.09,187.05,511.13z"/>
	<path class="st40" d="M314.05,514.04c0-0.67-0.03-1.33,0.01-2c0.54-7.74,3.92-10.02,11.5-7.87c1.51,0.43,2.11,1.32,2.4,2.78
		c1.92,9.57-1.43,12.77-11.11,10.54c-0.65-0.15-1.3-0.29-1.94-0.43C314.35,516.13,314.02,515.13,314.05,514.04z"/>
	<path class="st39" d="M249.07,510.3c-0.01,7.71-0.01,7.71-6.11,7.71c-6.9,0-6.9,0-6.89-7.35c0.01-6.58,0.05-6.1,7.17-6.71
		C249.64,503.39,249.48,506.9,249.07,510.3z"/>
	<path class="st39" d="M205.06,510.72c0-6.63,0-6.63,6.29-6.63c6.71,0,6.71,0,6.71,6.72c0,7.2,0,7.2-6.55,7.2
		C205.06,518,205.06,518,205.06,510.72z"/>
	<path class="st23" d="M221,510.23c-0.15-6.73-0.71-6.05,8.26-6.16c7.56-0.09,4.37,5.6,4.64,8.99c0.36,4.64-1.02,5.22-8.89,4.95
		C220.69,517.86,220.68,517.84,221,510.23z"/>
	<path class="st39" d="M360.21,489.04c6.76,0,6.76,0,6.76,6.11c0,6.9,0,6.9-7.29,6.88c-6.44-0.01-6.63-0.23-6.63-7.29
		C353.05,489.04,353.05,489.04,360.21,489.04z"/>
	<path class="st39" d="M202.09,510.59c0,7.43,0,7.43-6.75,7.42c-6.26-0.01-6.26-0.01-6.26-6.91c0-7.01,0-7.01,6.65-7.01
		C202.09,504.08,202.09,504.08,202.09,510.59z"/>
	<path class="st39" d="M252.01,510.84c0-6.76,0-6.76,6.67-6.76c6.36,0,6.36,0,6.35,7.06c-0.01,6.38-0.58,6.41-7.74,6.98
		C250.68,518.67,252.12,514.44,252.01,510.84z"/>
	<path class="st9" d="M207.06,488.93c3.77-0.05,2.95,2.74,2.98,4.92c0.11,7.85-3.49,10.43-11.12,8.15
		c-1.72-0.51-1.83-1.65-1.85-3.01c-0.04-2.98-0.06-5.95-0.09-8.93C200.02,486.81,203.68,489.1,207.06,488.93z"/>
	<path class="st9" d="M302.02,488.93c4.1,3.38,2.33,8.1,1.46,11.66c-0.78,3.16-5.18,1.04-7.95,1.38c-1.99,0.24-5.15,0.55-4.37-2.74
		c0.81-3.43-3.49-8.48,2.93-10.28C296.73,488.51,299.37,488.12,302.02,488.93z"/>
	<path class="st9" d="M351,495.59c0,6.44,0,6.44-6.44,6.44c-6.58,0-6.58,0-6.58-6.8c0-6.2,0-6.2,6.7-6.2
		C351,489.05,351,489.05,351,495.59z"/>
	<path class="st1" d="M302.02,488.93c-2.64,0.01-5.29,0.01-7.93,0.02c1.4-2.16,5.29,0.86,5.94-2.86c0.04-2.35,0.08-4.69,0.12-7.04
		c1.66-0.69,1.93,0.15,1.9,1.59C301.97,483.4,302.02,486.16,302.02,488.93z"/>
	<path class="st1" d="M207.06,488.93c-3.32,0.68-6.91-0.98-10.07,1.13c-0.79-0.18-1.82-0.29-1.46-1.43
		c0.41-1.29,1.59-1.76,2.77-1.29c2.87,1.16,5.83,0.56,8.76,0.72c0,0,0.01,0.01,0.01,0.01C207.06,488.36,207.06,488.65,207.06,488.93
		z"/>
	<path class="st1" d="M343.71,516.88c-0.73-1.28-1.04-1.58-1.03-1.85c0.15-2.94,0.35-5.87,1.03-8.79
		C343.71,509.47,343.71,512.71,343.71,516.88z"/>
	<path class="st1" d="M314.05,514.04c1.08,0.78,0.89,1.92,0.87,3.02C313.91,516.26,312.18,515.66,314.05,514.04z"/>
	<path class="st10" d="M593.24,388.37c-0.38,2.45-2.31,1.97-3.89,1.97c-49.96,0.02-99.91,0-149.87,0.05c-2.82,0-4.21-0.57-4.2-3.83
		c0.1-30.63,0.06-61.27,0.06-91.9c0-1.16-0.11-2.36,0.94-3.21c1.78-1.64,4.01-1.41,6.15-1.41c47.88-0.04,95.76,0.04,143.64-0.02
		c2.57,0,5.47-0.51,7.11,2.43l0.06,0c0.69,1.06,0.46,2.25,0.46,3.39c0.01,29.71,0.01,59.42,0,89.13
		C593.69,386.12,593.92,387.32,593.24,388.37z"/>
	<path class="st63" d="M436.27,279.52c-0.81-3.16,0.25-4.11,3.63-4.11c49.28,0.12,98.56,0.07,147.84,0.09
		c5.71,0,6.67,1.77,4.48,7.99c-1.73,1.77-3.99,1.44-6.1,1.43c-32.05-0.13-64.1-0.02-96.15-0.05c-3.51,0-6.91,0.05-9.79-2.64
		c-1.66-1.55-4.08-1.12-6.23-1.15c-8.14-0.12-16.27,0.17-24.41-0.15C445.11,280.62,440.45,282.24,436.27,279.52z"/>
	<path class="st15" d="M449.21,279.67c9.81-0.06,19.62-0.13,29.43-0.15c0.96,0,2.64,0.12,2.76,0.54c1.54,5.29,5.84,3.31,9.06,3.33
		c33.92,0.12,67.85,0.09,101.77,0.1c1.64,2.85,0.79,5.96,0.95,8.97c-2.11-1.38-4.49-0.98-6.79-0.98
		c-50.04-0.01-100.07-0.01-150.11-0.02c0-2.78,0.2-5.59-0.75-8.28c2.23-1.25,4.69-1.12,7.11-1.09
		C445.15,282.13,447.49,281.77,449.21,279.67z"/>
	<path class="st64" d="M593.24,388.37c0-31.97,0-63.95-0.01-95.92c1.51,1.31,0.96,3.08,0.96,4.67c0.03,28.86,0.03,57.72,0,86.58
		C594.19,385.29,594.74,387.07,593.24,388.37z"/>
	<path class="st65" d="M449.21,279.67c0.41,2.56-0.13,4.2-3.27,3.95c-3.46-0.27-6.94-0.31-10.42-0.45c0.25-1.22,0.5-2.44,0.75-3.66
		C440.58,279.57,444.89,279.62,449.21,279.67z"/>
	<path class="st10" d="M140.34,285.52c0.01-15.38,0.01-30.76,0.02-46.14c-0.32-0.18-0.43-0.35-0.32-0.53
		c0.11-0.18,0.21-0.26,0.32-0.26c0.04-4,0.08-8,0.12-12c1.72-1.67,3.9-1.69,6.08-1.68c75.93,0.22,151.87,0.02,227.8,0.1
		c7.31,0.01,7.42,0.14,7.42,7.58c0,31.47,0.01,62.93-0.02,94.4c0,1.79,0.49,3.67-0.49,5.38c-41.92,0.03-83.84,0.08-125.76,0.1
		c-36.6,0.02-73.2-0.06-109.79,0.09c-4.09,0.02-5.43-1.03-5.36-5.25c0.22-13.3,0.02-26.61-0.02-39.91
		C139.82,286.77,139.82,286.15,140.34,285.52z"/>
	<path class="st42" d="M381.28,332.37c0.02-33.81,0.01-67.61,0.09-101.42c0.01-2.96-0.45-4.55-4.03-4.54
		c-78.95,0.12-157.91,0.14-236.86,0.18c-0.03-23.68-0.05-47.37-0.08-71.05c0.02-1.02,0.04-2.04,0.06-3.06
		c1.78,1.21,3.8,1.02,5.79,1.02c76.05,0,152.1-0.01,228.15,0.05c2.29,0,4.58-0.97,6.87-0.05c0.79,2.55,1.06,5.15,1.05,7.84
		c-0.06,17.13-0.03,34.26-0.03,51.39c0.01,38,0.03,76-0.02,114C382.27,328.62,383.11,330.77,381.28,332.37z"/>
	<path class="st43" d="M114.42,292.45c0.8,0.15,1.97,0.02,2.34,0.5c3.46,4.52,4.88,1.06,6.13-1.65c0.9-1.96,1.16-2.8,3.75-1.55
		c3.58,1.73,7.67,2.5,13,1.23c-3.04,3-3.28,5.55-3.26,8.26c0.08,9.64-0.07,19.27,0.09,28.91c0.05,3.2-0.9,4.5-4.23,4.33
		c-4.48-0.23-8.98-0.27-13.45,0.01c-3.66,0.23-4.47-1.31-4.42-4.65C114.52,316.05,114.42,304.25,114.42,292.45L114.42,292.45z"/>
	<path class="st43" d="M123.41,285.32c-0.03-1,0.12-2.41-0.91-2.66c-4.74-1.14-4.12-4.74-4.1-8.2c0.05-7.49,0.03-14.98,0.01-22.47
		c-0.01-2.55-0.18-4.82,3.19-5.84c2.18-0.66,1.68-3.97,5.34-4.95c4.29-1.15,6.48,1.34,9.62,1.94c0.51,0.1,1.01,0.42,0.82,1.4
		c-2.15,11.5-0.41,23.13-0.96,34.69c-0.11,2.29,0.44,4.94-3.06,5.2c-1.55,0.12-0.46,0.9-0.57,1.51c-0.5,2.73-1.69,4.38-4.37,1.63
		C127.41,285.35,124.47,287.43,123.41,285.32z"/>
	<path class="st43" d="M111.42,292.45c0.17-0.72,0.34-1.44,0.5-2.16c0.83,0.72,1.66,1.44,2.5,2.16c0,0,0,0,0,0
		c-1.72,1.65-0.95,3.77-0.96,5.67c-0.08,11.09-0.04,22.18-1.04,33.28c0-11.09,0.04-22.18-0.04-33.28
		C112.37,296.22,113.15,294.1,111.42,292.45L111.42,292.45z"/>
	<path class="st43" d="M111.42,292.45c0,12.89,0,25.78,0,38.67c-0.33,0.01-0.67,0.03-1,0.04c0-3.9,0-7.8,0-11.7
		c0-7.45-0.03-14.9,0.02-22.36C110.46,295.52,109.9,293.75,111.42,292.45C111.42,292.45,111.42,292.45,111.42,292.45z"/>
	<path class="st43" d="M114.42,287.59c0.35-0.01,0.7-0.02,1.05-0.03c0.25,0.2,0.48,0.43,0.74,0.61c1.23,0.85,3.68-0.69,3.97,1.71
		c0.21,1.75-1.74,1.13-2.59,1.29C114.83,291.7,114.43,289.73,114.42,287.59z"/>
	<path class="st66" d="M123.41,285.32c1.49,0.06,2.99,0.01,4.46,0.22c1.44,0.21,1.46,1.05,0.55,2.02c-1.42-0.05-2.84-0.03-4.25-0.16
		C122.59,287.26,122.19,286.55,123.41,285.32z"/>
	<path class="st67" d="M140.34,285.52c0,0.62,0.01,1.24,0.01,1.86c-1.85-0.05-3.81,0.49-6.09-0.86
		C136.52,284.92,138.5,285.65,140.34,285.52z"/>
	<path class="st68" d="M140.36,238.6c0.09,0.26,0.09,0.53,0,0.79c-1.78-0.17-3.72,2.62-5.83-0.79
		C136.77,238.6,138.57,238.6,140.36,238.6z"/>
	<path class="st69" d="M123.15,239.49c0.39-1.09,1.42-0.96,2.27-1.18c1.09,0.13,2.18,0.26,3.26,0.39
		C126.78,238.64,125.27,241.6,123.15,239.49z"/>
	<path class="st43" d="M115.47,239.67c0.68-0.05,1.35-0.11,2.03-0.16c0.62,0.04,1.23,0.08,1.85,0.12
		C118.03,240.39,116.73,240.94,115.47,239.67z"/>
	<path class="st70" d="M498.75,167.43c-6.49,0-12.99-0.2-19.46,0.08c-4.13,0.18-5.9-0.52-5.45-5.4c0.63-6.76,0.29-13.63,0.03-20.44
		c-0.11-2.86,0.7-3.9,3.55-3.88c14.47,0.07,28.95,0.07,43.42,0c2.53-0.01,3.59,0.79,3.55,3.43c-0.11,7.65-0.12,15.3,0.01,22.95
		c0.04,2.8-1.32,3.32-3.7,3.3C513.4,167.38,506.07,167.42,498.75,167.43z"/>
	<path class="st0" d="M498.77,182.6c-7.16,0-14.33-0.04-21.49,0.03c-2.45,0.02-4.08-0.62-3.2-3.42c0.74-2.37-2.19-6.69,3.19-6.72
		c14.66-0.07,29.32,0.01,43.97-0.05c4.34-0.02,2.93,3.15,3.03,5.33c0.1,2.16,0.88,4.91-3.02,4.85
		C513.76,182.53,506.27,182.6,498.77,182.6z"/>
	<path class="st71" d="M499.4,190.36c-7.49,0-14.98,0.01-22.48-0.02c-1.09,0-2.69,0.34-2.79-1.26c-0.11-1.74,1.53-1.38,2.61-1.38
		c14.98-0.02,29.97-0.02,44.95,0c1.06,0,2.68-0.35,2.5,1.46c-0.17,1.67-1.76,1.16-2.81,1.17
		C514.05,190.38,506.72,190.36,499.4,190.36z"/>
	<path class="st72" d="M473.99,193.96c16.56,0,33.11,0,49.67,0c0.01,0.29,0.02,0.58,0.03,0.87c-16.56,0-33.11,0-49.67,0
		C474.01,194.54,474,194.25,473.99,193.96z"/>
	<path class="st73" d="M486.2,201.45c-3.16,0-6.33,0.02-9.49-0.01c-1.15-0.01-2.64,0.02-2.66-1.51c-0.01-1.16,1.3-1.34,2.33-1.34
		c6.83-0.01,13.65-0.01,20.48,0.01c1.01,0,2.18,0.14,2.1,1.49c-0.08,1.31-1.27,1.34-2.27,1.34
		C493.2,201.46,489.7,201.45,486.2,201.45z"/>
	<path class="st74" d="M157.31,90.34c0.11,2.9-0.18,4.04-1.96,4.18c-2.1,0.17-3.07-0.73-2.93-2.82c0.08-1.26-0.24-2.93,1.72-2.85
		C155.86,88.92,157.27,89.75,157.31,90.34z"/>
	<path class="st75" d="M144.44,89.62c2.05-1.43,4.19-1.96,5.73,0.49c0.63,1,0.56,2.62-0.31,3.71c-0.94,1.18-2.42,0.86-3.66,0.66
		c-2.4-0.38-1.62-2.39-1.78-3.89c0.96-0.49,1.64,0.41,3.18,1.15C146.2,90.41,145.19,90.24,144.44,89.62z"/>
	<path class="st59" d="M144.44,89.62c0.65-0.01,1.3-0.03,1.95-0.01c1.3,0.04,2.73-0.08,2.89,1.79c0.07,0.85-0.11,1.65-1.06,1.94
		c-1.52,0.48-2.49-0.03-2.92-1.62c-0.12-0.42-0.57-0.76-0.88-1.13C144.42,90.26,144.43,89.94,144.44,89.62z"/>
	<path class="st76" d="M202.2,94.53c0.78-1.11,1.57-1.13,2.36-0.01c0.69,1.05,0.67,2.09-0.03,3.12c-0.28,0.63-0.11,1.65-1.15,1.65
		c-1.04,0-0.86-1.03-1.15-1.65C202.22,96.6,202.21,95.57,202.2,94.53z"/>
	<path class="st77" d="M203.29,82.21c1.29,1.69,1.46,3.35,0.09,5.61C201.95,85.59,202.37,83.9,203.29,82.21z"/>
	<path class="st78" d="M139.41,96.6c0.5-3.63-1.09-7.43,0.93-10.92C139.97,89.31,141.53,93.11,139.41,96.6z"/>
	<path class="st79" d="M204.57,108.56c3.91-1.56,7.83-0.01,11.75-0.02c30.94-0.09,61.87-0.04,92.81-0.05
		c10.31,0,10.14-0.03,10.25,10.37c0.04,3.71-1.01,4.81-4.77,4.8c-35.59-0.13-71.19-0.12-106.78-0.01c-3.45,0.01-4.8-0.95-4.54-4.49
		c0.25-3.47,0.02-6.98-0.01-10.47C203.67,108.17,204.1,108.14,204.57,108.56z"/>
	<path class="st15" d="M204.54,97.64c0.01-1.04,0.02-2.08,0.03-3.12c3.8,0.01,7.59,0.04,11.39,0.04c31.45,0,62.89,0,94.34,0
		c2.62,0,5.23-0.01,7.85-0.02c1,1.01,0.95,2.04,0.04,3.08C280.3,97.63,242.42,97.64,204.54,97.64z"/>
	<path class="st80" d="M285.85,133.69c5.14,0,10.28,0.04,15.42-0.02c2.55-0.03,4.15,0.66,4.04,3.64c-0.1,2.8-1.82,3.13-4.02,3.13
		c-10.28-0.02-20.56-0.04-30.84,0.01c-2.56,0.01-4.14-0.67-4.05-3.63c0.09-2.82,1.85-3.13,4.03-3.12
		C275.57,133.72,280.71,133.7,285.85,133.69z"/>
	<path class="st81" d="M236.62,133.7c4.97,0,9.94,0.08,14.91-0.04c2.57-0.06,4.03,0.49,3.98,3.51c-0.04,2.75-1.32,3.3-3.7,3.28
		c-10.27-0.07-20.54-0.07-30.81,0c-2.33,0.01-3.69-0.42-3.71-3.24c-0.02-2.99,1.3-3.62,3.93-3.55
		C226.35,133.79,231.48,133.7,236.62,133.7z"/>
	<path class="st82" d="M187.47,133.7c5.15,0,10.3,0.1,15.45-0.04c2.57-0.07,3.52,0.82,3.54,3.43c0.02,2.7-1.14,3.39-3.61,3.37
		c-10.14-0.09-20.27-0.06-30.41-0.02c-2.48,0.01-4.1-0.54-4.18-3.55c-0.09-3.37,1.98-3.21,4.24-3.19
		C177.5,133.73,182.49,133.7,187.47,133.7z"/>
	<path class="st81" d="M335.59,140.44c-5.14,0-10.28-0.07-15.42,0.03c-2.53,0.05-4.04-0.44-3.98-3.52c0.06-2.77,1.33-3.29,3.7-3.28
		c10.28,0.07,20.56,0.1,30.84-0.03c2.91-0.04,3.7,1.11,3.66,3.82c-0.05,3-1.63,2.89-3.92,2.8c-4.96-0.21-9.93-0.07-14.89-0.07
		C335.59,140.27,335.59,140.35,335.59,140.44z"/>
	<path class="st83" d="M318.18,97.62c-0.01-1.03-0.02-2.05-0.04-3.08c0.36-0.28,0.72-0.57,1.08-0.85c-0.01,1.92-0.02,3.83-0.02,5.75
		C318.13,99.24,318.47,98.26,318.18,97.62z"/>
	<path class="st84" d="M204.57,108.56c-0.43,0.04-0.86,0.08-1.29,0.11c-0.93-0.94-1.49-2.42-0.04-2.73
		C204.86,105.6,204.19,107.6,204.57,108.56z"/>
	<path class="st8" d="M481.57,337.31c-8.32,0-16.65-0.11-24.97,0.05c-3.07,0.06-4.49-0.58-4.41-4.07c0.22-9.81,0.22-19.64,0-29.45
		c-0.07-3.15,1.06-4.07,3.94-4.07c16.47,0.02,32.94,0.04,49.41-0.12c4.42-0.04,6.02,1.42,5.82,6.07c-0.39,9.14-0.24,18.3-0.04,27.45
		c0.07,3.34-1.07,4.27-4.3,4.2C498.55,337.19,490.06,337.32,481.57,337.31z"/>
	<path class="st85" d="M517.33,356.36c0.01-12.86,0.01-12.86,12.94-12.87c15.28-0.01,30.57-0.03,45.85-0.04
		c0.99,2.85,0.99,5.85,1.05,8.79c0.09,4.57-0.62,4.92-5.23,4.82c-16.31-0.38-32.61-0.16-48.92-0.1c-0.31,0-0.61,0.25-0.91,0.39
		l-0.42-0.08l-0.42,0.05C519.75,357.88,518.46,357.46,517.33,356.36z"/>
	<path class="st85" d="M452.21,356.44c0.58-4.19-1.94-9.82,1.27-12.24c2.69-2.02,7.96-0.68,12.1-0.69
		c13.76-0.04,27.53,0.1,41.29-0.09c3.54-0.05,4.73,1.12,4.44,4.55c-0.23,2.8-0.04,5.63-0.03,8.45c-2.32,1.58-4.84,0.35-7.24,0.41
		c-16.34,0.38-32.7-0.49-49.04,0.51C453.98,357.41,453.08,356.93,452.21,356.44z"/>
	<path class="st86" d="M514.51,370.4c18.49,0,36.98,0,55.47,0c1,0,2.01-0.08,3,0.02c1.2,0.12,3.04-0.46,2.97,1.61
		c-0.06,1.6-1.6,1.34-2.73,1.4c-0.83,0.04-1.67,0.01-2.5,0.01c-37.65,0-75.29,0.02-112.94-0.06c-1.77,0-4.95,1.14-5.04-1.38
		c-0.1-2.86,3.12-1.52,4.8-1.53C476.53,370.36,495.52,370.4,514.51,370.4z"/>
	<path class="st87" d="M453.28,363.58c29.53-0.06,59.07-0.14,88.6-0.16c11.11-0.01,22.23,0.1,33.34,0.15
		c0.7,1.16,0.23,1.96-0.93,2.22c-1.12,0.25-2.32,0.1-3.48,0.1c-37.71,0-75.42,0.03-113.12-0.09
		C456.18,365.8,453.08,367.55,453.28,363.58z"/>
	<path class="st88" d="M547.47,310.39c-8.14,0-16.28,0.03-24.41-0.03c-1.52-0.01-3.73,0.58-3.64-2.06c0.08-2.23,2.04-1.78,3.44-1.78
		c16.61-0.03,33.22-0.03,49.82,0c1.4,0,3.37-0.4,3.4,1.82c0.04,2.61-2.18,2.01-3.69,2.02C564.08,310.42,555.78,310.39,547.47,310.39
		z"/>
	<path class="st89" d="M547.44,303.39c-8.13,0-16.26,0.03-24.4-0.03c-1.34-0.01-3.45,0.65-3.54-1.57c-0.09-2.32,2-2.28,3.65-2.28
		c16.43-0.02,32.86-0.02,49.29,0c1.7,0,3.75,0.12,3.54,2.4c-0.19,2.1-2.3,1.44-3.66,1.45C564.03,303.42,555.73,303.4,547.44,303.39z
		"/>
	<path class="st90" d="M483.05,380.44c-8.82,0-17.64,0.04-26.46-0.05c-1.44-0.01-3.93,0.95-3.94-1.55c-0.01-2.07,2.3-1.38,3.65-1.39
		c17.97-0.05,35.95-0.05,53.92,0c1.35,0,3.65-0.7,3.68,1.34c0.04,2.52-2.45,1.59-3.89,1.6
		C501.02,380.49,492.03,380.44,483.05,380.44z"/>
	<path class="st91" d="M453.28,363.58c0.5,2.44,2.47,1.8,4.01,1.81c37.97,0.03,75.95,0.03,113.92,0c1.54,0,3.51,0.63,4.01-1.82
		c1.68,0.83,1.57,1.93,0.11,2.68c-0.8,0.41-1.95,0.16-2.94,0.16c-38.69,0-77.37,0.02-116.06-0.09
		C455.05,366.31,450.94,368.14,453.28,363.58z"/>
	<path class="st92" d="M522.11,357.35c1.61-1.26,3.5-0.75,5.28-0.76c14.57-0.04,29.14-0.16,43.7,0.07c4.11,0.06,5.75-1.11,5.25-5.27
		c-0.31-2.61-0.16-5.28-0.22-7.93c0.77,0.08,2.37,0.12,2.12,0.5c-2.37,3.57,0.78,6.97,0.11,10.54c-0.52,2.74-1.89,4.03-4.21,3.77
		c-16.99-1.93-34.02-0.28-51.03-0.87C522.77,357.39,522.44,357.37,522.11,357.35z"/>
	<path class="st93" d="M528.35,317.38c-2.32,0-4.63,0.03-6.95-0.01c-1.09-0.02-1.95-0.45-2.04-1.68c-0.11-1.47,0.73-2.14,2.09-2.15
		c4.96-0.02,9.92-0.02,14.88,0.03c1.14,0.01,1.8,0.73,1.79,1.92c-0.01,1.2-0.7,1.84-1.84,1.87
		C533.64,317.41,530.99,317.37,528.35,317.38z"/>
	<path class="st92" d="M452.21,356.44c19.69-0.01,39.38-0.01,59.07-0.02c0.54,2.27-1.09,1.86-2.29,1.76
		c-16.75-1.48-33.52-0.81-50.29-0.36c-0.99,0.03-1.83-0.1-2.79,0.51C453.63,359.8,453.57,359.7,452.21,356.44z"/>
	<path class="st92" d="M517.33,356.36c1.32,0.32,2.63,0.64,3.95,0.96C518.62,358.95,517.63,358.71,517.33,356.36z"/>
	<path class="st92" d="M575.39,359.92c-1.04,0.71-2.05,0.62-3.42,0.04C573.27,359.22,574.28,359.17,575.39,359.92z"/>
	<path class="st94" d="M513.94,289.45c-19.63,0-39.26,0-58.89,0c-1.33,0-2.66-0.01-3.99-0.11c-1.2-0.1-1.72-0.89-1.63-2.05
		c0.07-0.92,0.53-1.59,1.5-1.67c1.32-0.1,2.65-0.13,3.98-0.13c39.6-0.01,79.19-0.01,118.79-0.01c1,0,2,0.01,2.99,0.03
		c1.28,0.02,2.33,0.36,2.38,1.9c0.05,1.54-0.95,1.98-2.25,2.01c-1.16,0.03-2.33,0.04-3.49,0.04
		C553.54,289.45,533.74,289.45,513.94,289.45z"/>
	<path class="st95" d="M440.35,289.36c-1.16,0-1.91-0.49-1.96-1.73c-0.04-1.11,0.3-2.02,1.62-1.96c1.12,0.05,1.85,0.74,2.04,1.83
		C442.27,288.77,441.55,289.32,440.35,289.36z"/>
	<path class="st96" d="M447.05,287.4c0.06,1.46-0.58,1.89-1.45,1.96c-1.01,0.08-2.03-0.08-2.12-1.36c-0.07-1.05,0.35-1.98,1.6-1.89
		C446.08,286.17,446.82,286.78,447.05,287.4z"/>
	<path class="st97" d="M584.17,289.16c-1.24,0.17-1.74-0.44-1.84-1.33c-0.12-1.04,0.09-2.08,1.4-2.12c0.96-0.03,1.4,0.7,1.41,1.63
		C585.14,288.2,584.97,288.96,584.17,289.16z"/>
	<path class="st98" d="M590.07,287.68c0.05,1-0.45,1.56-1.42,1.58c-0.76,0.01-1.23-0.51-1.28-1.22c-0.06-0.87,0.22-1.76,1.19-1.89
		C589.53,286.02,589.94,286.79,590.07,287.68z"/>
	<path class="st99" d="M171.35,285.41c0-15.42,0-30.83,0-46.83c14.16,0,28.75,0.12,43.34-0.08c3.76-0.05,4.82,1.11,4.76,4.81
		c-0.21,12.79-0.26,25.59,0.02,38.38c0.09,4.18-1.47,4.94-5.18,4.89c-13.96-0.19-27.92-0.09-41.88-0.1
		C172.02,286.16,171.43,286.05,171.35,285.41z"/>
	<path class="st100" d="M303.28,286.53c-1.11-0.85-0.87-2.07-0.87-3.21c-0.01-13.62,0-27.24-0.02-40.86c0-2.1-0.1-3.98,2.96-3.96
		c14.45,0.09,28.91,0.05,43.36,0.11c0.58,0,1.15,0.51,1.72,0.78c-0.12,0.2-0.23,0.41-0.35,0.61c-6.67,6.15-12.79,12.88-19.61,18.88
		c-2.95,2.6-5.36,2.34-8.1-0.39c-5.57-5.54-10.97-11.24-17.44-17.55c1.05,1.93,1.95,2.56,1.92,3.66c-0.5,6.12-0.16,12.26-0.26,18.39
		c-0.03,2.22-0.15,4.54,2.99,4.68c2.98,0.13,4.49-1.53,5.11-4.3c0.69-3.07,0.24-6.3,1.38-9.3c4.39,0.9,6.38,4.71,9.03,7.65
		c1.13,1.26-0.08,2.38-1.24,3.15c-1.92,0.65-3.42,1.74-4.02,3.8c-1.14,1.68-2.55,3.08-4.21,4.24c-1.97,0.6-3.22,1.93-3.87,3.87
		c-0.67,1.03-1.54,1.86-2.52,2.59c-1.09,0.7-2.08,1.56-3.29,2.06c-1.39,0.57-2.17,0.18-2.11-1.43c0.01-10.79,0-21.59,0-29.82
		c0.41,9.24-0.79,21.04,0.56,32.83c0.12,1.02,0,1.98-0.49,2.88C303.71,286.1,303.5,286.32,303.28,286.53z"/>
	<path class="st43" d="M237.36,239.48c0.94-1.33,2.35-0.99,3.63-0.99c13.56-0.02,27.12-0.02,40.68,0.01c1.26,0,2.7-0.42,3.59,1.01
		c-0.51,0.48-1.02,0.96-1.61,1.33c-5.94,4.87-10.98,10.66-16.46,16c-6.14,5.98-6.58,6.02-12.77-0.14c-0.83-0.82-1.67-1.63-2.49-2.46
		c-2.34-2.49-4.8-4.87-7.23-7.27C242.18,244.56,240.86,240.96,237.36,239.48z"/>
	<path class="st101" d="M350.43,239.4c1.4,2.51,0.62,5.22,0.64,7.83c0.1,11.32,0.08,22.64,0.01,33.96
		c-0.01,1.75,0.66,3.68-0.79,5.24c-0.19-0.21-0.37-0.41-0.56-0.62c0.18-13.05,0.05-26.1,0.1-39.15
		c-0.03,10.57,0.01,21.15-0.06,31.72c-0.01,1.52,0.89,3.64-1.23,4.36c-1.78,0.61-3.11-0.84-4.26-2.04
		c-4.49-4.67-9.21-9.1-13.68-13.78c-3.33-3.49-3.27-4.82,0.25-8.21c6.55-6.3,13.03-12.68,19.4-19.16L350.43,239.4z"/>
	<path class="st102" d="M252.37,253.47c0.65,0.49,1.36,0.92,1.95,1.48c6.71,6.35,6.67,6.32,13.44-0.36
		c5.15-5.08,10.39-10.07,15.6-15.1c0.73,0.58,1.58,1.09,1.15,2.26c-4.38,6.02-10.21,10.65-15.3,15.99c-4.3,4.52-4.37,4.43-0.92,9.45
		c0.71,1.04,1.83,2.01,1.01,3.51c-0.42,0.23-0.87,0.33-1.35,0.33c-0.33-0.05-0.67-0.1-0.95-0.27c-6.81-3.84-6.81-3.84-12.62,1.98
		c-3.39,3.4-6.82,6.77-10.18,10.2c-0.26,0.27-0.36,0.55-0.16,1.25c11.22-0.02,22.56,0.02,33.94-0.03c0.1-2.54-2.5-3.17-2.36-5.16
		c0.02-0.48,0.15-0.93,0.38-1.36c4.39-0.44,5.64,3.37,7.9,5.82c0.49,0.95,0.41,2.14,1.22,2.96c-1.1,1.54-2.73,0.9-4.13,0.91
		c-12.95,0.05-25.9-0.08-38.84,0.1c-3.54,0.05-5-0.73-4.94-4.63c0.24-14.43,0.13-28.87,0.16-43.31c4.57,0.16,5.7,4.25,8.01,7
		c-0.38,0.32-0.82,0.49-1.32,0.52c-1.36,0-2.26-1.43-4.37-1.12c-0.09,11.44-0.01,22.97-0.05,34.99c5.27-5.19,9.94-10.13,14.9-14.79
		c2.93-2.75,2.75-4.93-0.25-7.33c-1.27-1.02-2.67-2.07-2.58-4.02C251.78,254.24,252.01,253.82,252.37,253.47z"/>
	<path class="st103" d="M261.6,300.42c6.48,0,12.96-0.05,19.43,0.05c1.31,0.02,3.67-0.88,3.7,1.15c0.04,2.24-2.41,1.69-3.95,1.73
		c-2.99,0.08-5.98,0.03-8.97,0.03c-9.8,0-19.6,0.05-29.4-0.05c-1.63-0.02-4.51,1.04-4.61-1.34c-0.11-2.65,2.82-1.47,4.37-1.51
		C248.64,300.33,255.12,300.42,261.6,300.42z"/>
	<path class="st103" d="M195.53,303.38c-6.64,0-13.29,0.01-19.93-0.01c-1.47,0-3.65,0.17-3.64-1.63c0.02-2.15,2.31-1.27,3.61-1.28
		c13.29-0.07,26.57-0.06,39.86-0.01c1.33,0.01,3.58-0.72,3.6,1.42c0.02,2.13-2.22,1.46-3.57,1.48
		C208.82,303.42,202.18,303.38,195.53,303.38z"/>
	<path class="st104" d="M195.6,293.31c6.97,0,13.94-0.02,20.91,0.02c1.08,0.01,2.62-0.27,2.66,1.41c0.04,1.65-1.45,1.54-2.58,1.54
		c-13.94,0.02-27.88,0.03-41.83-0.01c-1.26,0-3.04,0.09-2.91-1.79c0.11-1.6,1.79-1.13,2.83-1.14
		C181.65,293.29,188.62,293.31,195.6,293.31z"/>
	<path class="st104" d="M261.28,293.32c6.96,0,13.93-0.02,20.89,0.02c1.07,0.01,2.69-0.34,2.71,1.31c0.02,1.47-1.48,1.62-2.62,1.62
		c-14.09,0.03-28.19,0.03-42.28,0.01c-1.14,0-2.59,0.03-2.38-1.68c0.2-1.66,1.73-1.24,2.79-1.25
		C247.35,293.3,254.32,293.32,261.28,293.32z"/>
	<path class="st105" d="M326.85,300.43c6.65,0,13.3-0.03,19.95,0.03c1.21,0.01,3.1-0.56,3.22,1.32c0.13,1.98-1.77,1.58-2.99,1.58
		c-13.47,0.04-26.93,0.04-40.4,0c-1.22,0-3.12,0.4-2.97-1.6c0.15-1.88,2.03-1.29,3.24-1.3C313.54,300.4,320.19,300.43,326.85,300.43
		z"/>
	<path class="st104" d="M327.33,295.88c-7.14,0-14.28-0.01-21.43,0.01c-0.93,0-2.19,0.59-2.4-0.88c-0.25-1.77,1.21-1.67,2.35-1.67
		c13.98-0.01,27.96-0.01,41.94,0.01c0.97,0,2.24-0.1,2.39,1.19c0.21,1.88-1.3,1.47-2.41,1.47c-6.82,0-13.63,0-20.45,0
		C327.33,295.97,327.33,295.93,327.33,295.88z"/>
	<path class="st86" d="M183.66,310.39c-3.14,0-6.29,0.03-9.43-0.02c-1.11-0.02-2.57,0.14-2.5-1.58c0.05-1.32,1.28-1.32,2.26-1.32
		c6.62-0.02,13.24-0.02,19.85,0c0.98,0,2.2,0,2.25,1.32c0.06,1.7-1.38,1.57-2.5,1.58C190.28,310.41,186.97,310.39,183.66,310.39z"/>
	<path class="st86" d="M249.48,310.36c-3.31,0-6.62,0.02-9.92-0.01c-1.04-0.01-2.04-0.31-1.88-1.66c0.13-1.04,1.04-1.2,1.87-1.2
		c6.78-0.03,13.56-0.03,20.34-0.01c0.78,0,1.82-0.06,1.92,1.05c0.11,1.26-0.9,1.74-1.91,1.76c-3.47,0.08-6.94,0.03-10.42,0.03
		C249.48,310.33,249.48,310.34,249.48,310.36z"/>
	<path class="st74" d="M315.62,307.44c2.99,0,5.98-0.03,8.97,0.02c1.11,0.02,2.59-0.15,2.47,1.6c-0.09,1.3-1.29,1.32-2.28,1.33
		c-6.31,0.02-12.62,0.02-18.93,0c-1.01,0-2.21-0.1-2.24-1.38c-0.03-1.69,1.44-1.53,2.55-1.55
		C309.31,307.41,312.46,307.44,315.62,307.44z"/>
	<path class="st106" d="M285.12,286.43c-1.25-0.07-1.75-0.81-1.77-1.98c-1.18-12.58-0.37-25.18-0.54-37.77
		c-0.03-1.88,0.56-3.59,1.53-5.18c-0.33-0.67-0.66-1.33-0.99-2c0.64,0.01,1.27,0.01,1.91,0.02
		C285.21,255.15,285.17,270.79,285.12,286.43z"/>
	<path class="st101" d="M350.3,286.43c-0.41,0.25-0.83,0.72-1.24,0.73c-14.82,0.04-29.64,0.04-44.46,0c-0.44,0-0.87-0.41-1.31-0.63
		c0,0,0.14-0.15,0.14-0.15c1.49-1.37,3.36-1.31,5.18-1.31c12.14-0.04,24.29-0.04,36.43,0c1.82,0.01,3.69-0.08,5.19,1.29
		L350.3,286.43z"/>
	<path class="st107" d="M162.77,286.14c-1.83,1.81-3.76,1.52-6.18,0.72C158.7,284.44,160.83,285.84,162.77,286.14z"/>
	<path class="st108" d="M145.95,286.7c1.66-1.56,3.37-1.49,5.44-0.55C149.56,288.45,147.68,287.04,145.95,286.7z"/>
	<path class="st109" d="M157.35,238.64c1.7,0,3.41,0,6.25,0C160.8,239.94,159.06,239.46,157.35,238.64z"/>
	<path class="st110" d="M171.35,285.41c0.35,0.36,0.71,0.71,1.06,1.07c-1.25,0.61-3,2-3.65,0.07
		C168.27,285.05,170.41,285.74,171.35,285.41z"/>
	<path class="st111" d="M145.2,238.92c2.65-0.52,4.22-0.72,6,0.01C149.37,239.88,147.73,239.6,145.2,238.92z"/>
	<path class="st112" d="M195.62,165.56c6.48,0,12.97,0.13,19.45-0.06c3.17-0.09,4.41,0.81,4.37,4.18
		c-0.16,13.3-0.14,26.6-0.01,39.89c0.03,3.09-1.06,4-4.05,3.97c-13.3-0.12-26.6-0.11-39.9,0c-2.92,0.02-4.14-0.76-4.11-3.92
		c0.14-13.46,0.12-26.93,0.01-40.39c-0.02-2.85,1.03-3.77,3.8-3.72C181.99,165.65,188.81,165.56,195.62,165.56z"/>
	<path class="st113" d="M295.44,174.49c-16.65,0-33.31-0.06-49.96,0.05c-3.47,0.02-5.23-0.84-5.19-4.73
		c0.03-3.23,0.97-4.37,4.28-4.31c9.99,0.18,19.98,0.06,29.97,0.06c23.48,0,46.96,0.01,70.44-0.01c2.88,0,5.56-0.47,5.48,4.1
		c-0.08,4.24-2,4.92-5.57,4.89C328.41,174.43,311.93,174.49,295.44,174.49z"/>
	<path class="st114" d="M377.98,223.36c-76.41,0-152.83,0-229.24,0c0-0.17,0-0.33,0-0.5c76.48,0,152.96,0,229.44,0
		C378.11,223.03,378.04,223.2,377.98,223.36z"/>
	<path class="st115" d="M295.63,179.55c16.31,0,32.62,0,48.93,0c1.33,0,2.66,0.01,3.99,0.08c0.92,0.05,1.61,0.53,1.48,1.56
		c-0.14,1.08-0.97,1.12-1.86,1.08c-32.24-1.6-64.51-0.27-96.76-0.67c-2.8-0.03-5.65-0.43-8.42,0.52c-0.85,0.29-1.76,0.02-1.89-1.01
		c-0.13-1.06,0.82-1.38,1.62-1.46c1.32-0.13,2.66-0.1,3.99-0.1C263.01,179.55,279.32,179.55,295.63,179.55z"/>
	<path class="st116" d="M241.07,186.98c36.19,0,72.39,0,108.58,0c0,0.34,0,0.68,0,1.01c-36.2,0-72.39,0-108.59,0
		C241.07,187.65,241.07,187.31,241.07,186.98z"/>
	<path class="st117" d="M267.03,193.77c19.19,0,38.37,0,57.43,0C322.3,195.85,272.45,196.55,267.03,193.77z"/>
	<path class="st118" d="M485.4,328.92c-3.28,4.06-7.82,0.91-10.44-0.57c-3.01-1.71-5.3-6.36-5.31-10.4
		c-0.01-4.43,8.21-11.85,12.06-11.93c3.96-0.09,12.55,8.45,12.45,12.38C494.09,321.74,488.28,329.2,485.4,328.92z"/>
	<path class="st119" d="M350.22,286.36c-15.6,0.01-31.2,0.02-46.8,0.02c0-13.56,0-27.13,0-40.69c0.31,0,0.62-0.01,0.92-0.01
		c0,11.93,0,23.85,0,35.78c0.81,0.57,1.1,1.58,1.89,2.17c0.37,0.21,0.74,0.36,1.15,0.44c12.4,0.26,24.8-0.01,37.46,0.14
		c-5.12-4.97-9.94-9.77-14.67-14.64c-1.84-1.89-3.75-2.6-6.22-1.68c-1.06,0.04-1.92-0.38-2.64-1.12c-0.78-2.04,1.42-1.47,2.03-2.31
		c1.28-1.08,1.77-2.05,0.15-3.41c-2.48-2.08-4.77-4.38-7.14-6.58c-4.18-2.48-7.56-5.77-9.99-9.99c-0.28-0.4-0.51-1.08-0.86-1.16
		c-1.78-0.37-2.92-1.33-1.74-2.98c1.03-1.43,1.92,0.26,2.8,0.82c4.53,2.87,7.56,7.31,11.11,11.13c8.57,9.21,10.45,9,18.71-0.41
		c4.01-4.58,7.87-9.81,13.89-12.33c-0.08,1.27,0.55,2.75-0.88,3.65c-7.3,4.55-12.23,11.64-18.53,17.28
		c-1.35,1.21-2.9,2.27-0.72,4.35c5.15,4.91,10.08,10.05,15.15,15.05c0.9,0.88,1.68,2.53,3.14,2c1.57-0.57,0.87-2.33,0.88-3.56
		c0.05-10.32,0.03-20.65,0.05-30.97c0-0.61,0.18-1.23,0.88-1.81C350.22,259.14,350.22,272.75,350.22,286.36z"/>
	<path class="st101" d="M306.34,244.49c3.74,2.92,7.07,6.25,9.99,9.99c0.96,5.12,0.66,9.75-3.25,13.93
		c-2.37,2.54-4.37-0.44-6.69,0.4c-1.36,0.49-1.08-2.38-1-3.7C305.84,258.24,304.16,251.27,306.34,244.49z"/>
	<path class="st120" d="M321.33,266.47c0.82,0.02,1.57,0.2,2,1c0.55,1.6-0.68,2.44-1.53,3.35c-3.94,4.21-8.03,8.27-12.22,12.22
		c-1.15,1.08-2.3,2.54-4.24,1.41l0,0c-0.96-3.53,2.31-4.23,4-5.99c0.38-0.95,1.05-1.62,2-2c1.08-1.59,2.41-2.92,4-3.99
		c0.96-1.71,2.29-3.04,4-4C320.08,267.88,320.35,266.82,321.33,266.47z"/>
	<path class="st101" d="M315.33,272.47c-0.55,2.12-1.88,3.45-4,3.99C311.13,273.59,312.47,272.26,315.33,272.47z"/>
	<path class="st101" d="M309.34,278.46c-0.9,2.29-3.94,3.14-4,5.99c-1.17-0.72-0.96-1.9-1-3
		C306.18,280.76,307.01,278.36,309.34,278.46z"/>
	<path class="st101" d="M306.83,274.05c-0.8,0.08-1.27-0.21-1.3-0.99c-0.04-0.97,0.55-1.48,1.43-1.49c0.54-0.01,1.53,0.3,1.54,0.51
		C308.56,273.19,307.63,273.64,306.83,274.05z"/>
	<path class="st101" d="M321.33,266.47c-0.04,1.3-0.7,1.96-2,2c-0.2-2.87,1.13-4.2,4-3.99C322.67,265.14,322,265.8,321.33,266.47z"
		/>
	<path class="st121" d="M252.37,253.47c0,0.34,0,0.68-0.01,1.01c-4.46-1.2-7.66-4.39-8-8c0.34,0,0.67,0,1.01,0
		C248.1,248.41,250.43,250.75,252.37,253.47z"/>
	<path class="st43" d="M284.34,241.5c0,12.6,0.03,25.2-0.02,37.8c-0.01,1.74,0.68,3.69-0.97,5.15c-1.93-2.73-4.27-5.05-6.99-6.99
		c-3.18-1.48-5.51-3.81-7-6.99c-6.34-8.15-6.37-8.18,1.37-15.83C275.21,250.2,279.8,245.87,284.34,241.5z"/>
	<path class="st122" d="M244.36,246.49c2.08,3.25,5.08,5.59,8,8c0.14,0.47,0.15,1.08,0.45,1.39c6.79,6.85,6.8,6.84-0.1,13.75
		c-4.44,4.44-8.87,8.89-14.35,14.39c0-7.2,0-13.05,0-18.9c0-5.98-0.05-11.96,0.04-17.94c0.02-1.4-0.82-3.39,0.83-4.06
		c1.62-0.66,2.35,1.42,3.51,2.24C243.28,245.73,243.82,246.11,244.36,246.49z"/>
	<path class="st43" d="M276.35,278.47c0.07,0.32,0.06,0.69,0.23,0.96c1.17,1.92,4.98,2.83,4.03,5c-1.04,2.4-4.48,0.94-6.83,0.97
		c-10.77,0.14-21.54,0.06-32.78,0.06c1.56-3.76,4.76-5.63,7.11-8.17c3.15-3.4,6.67-6.47,9.77-9.92c2.17-2.42,3.88-3.2,6.25-0.28
		c1.11,1.37,2.8,2.27,4.23,3.39C271.27,272.88,274.13,275.35,276.35,278.47z"/>
	<path class="st121" d="M276.35,278.47c-2.92-2.41-5.92-4.75-8-8c0.34,0,0.67,0,1.01,0c2.73,1.93,5.06,4.27,7,6.99
		C276.36,277.79,276.35,278.13,276.35,278.47z"/>
	<path class="st123" d="M198.49,185.39c-3.64,0-7.28,0.02-10.91-0.01c-1.4-0.01-2.76-0.35-2.85-2.07c-0.1-1.99,1.48-1.86,2.78-1.86
		c7.11-0.02,14.22-0.02,21.33,0c1.3,0,2.9-0.08,2.85,1.84c-0.04,1.66-1.31,2.11-2.79,2.11c-3.47,0-6.95,0-10.42,0
		C198.49,185.4,198.49,185.39,198.49,185.39z"/>
	<path class="st123" d="M198.02,177.41c-3.47,0-6.94,0.01-10.41-0.01c-1.42-0.01-2.75-0.35-2.88-2.03
		c-0.16-2.06,1.48-1.83,2.75-1.83c7.11-0.03,14.21-0.03,21.32-0.01c1.28,0,2.92-0.18,2.91,1.76c-0.01,1.65-1.3,2.12-2.78,2.12
		C205.29,177.4,201.66,177.41,198.02,177.41z"/>
	<path class="st124" d="M183.19,175.41c-0.25,1.03-0.78,1.83-1.94,1.72c-1.1-0.11-1.67-0.89-1.69-1.98
		c-0.02-1.29,0.88-1.56,1.94-1.54C182.66,173.63,183.29,174.18,183.19,175.41z"/>
	<path class="st125" d="M179.55,182.92c0.22-1.3,1.18-1.42,2.21-1.32c0.91,0.09,1.52,0.62,1.44,1.6c-0.08,1.08-0.56,1.92-1.84,1.65
		C180.37,184.64,179.51,184.16,179.55,182.92z"/>
	<path class="st126" d="M481.7,323.63c-3.48-0.02-5.24-2.07-5.2-5.24c0.04-2.98,1.99-4.91,5.05-5.01c3.34-0.11,5.39,1.92,5.44,5.1
		C487.06,321.66,485.2,323.67,481.7,323.63z"/>
	<path class="st101" d="M305.34,284.46c5.92-3.1,9.39-8.9,14.37-13.04c1.36-1.13,2.42-2.62,3.62-3.95c2.54-2.94,4.54-2.3,7.05,0.43
		c5.44,5.93,11.23,11.54,17.14,17.56c-13.37,0-26.44,0-39.51,0C307,285.45,306.02,285.36,305.34,284.46z"/>
	<path class="st127" d="M481.9,316.51c1.36,0.25,1.89,1.29,1.76,2.45c-0.12,1.05-1.02,1.6-2.15,1.46c-1.07-0.14-1.86-0.77-1.84-1.87
		C479.7,317.24,480.54,316.55,481.9,316.51z"/>
</g>
</svg>
